<svg shape-rendering="geometricPrecision" viewBox="0 0 400 214" version="1.1" xmlns="http://www.w3.org/2000/svg" desc="Created with imagetracer.js version 1.2.6" ><path fill="rgb(41,84,112)" opacity="1" d="M 164.5 40.0 Q 167.3 39.3 168.0 40.5 Q 167.3 41.8 164.5 41.0 Q 163.5 40.5 164.5 40.0 Z " /><path fill="rgb(41,84,112)" opacity="1" d="M 146.5 50.0 Q 149.3 49.3 150.0 50.5 L 150.0 101.5 L 148.5 103.0 Q 146.8 102.8 146.5 104.0 L 146.0 103.5 L 146.0 50.5 L 146.5 50.0 Z M 148.0 51.0 L 147.0 52.0 L 147.0 71.0 Q 148.0 71.0 149.0 73.0 L 149.0 73.0 L 149.0 52.0 Q 149.0 51.0 148.0 51.0 Z " /><path fill="rgb(41,84,112)" opacity="1" d="M 156.5 52.0 L 157.0 52.5 L 157.0 70.5 Q 158.3 70.8 158.0 72.5 Q 156.0 73.5 158.0 74.5 Q 157.5 76.5 158.5 77.0 L 159.0 76.5 L 159.0 58.5 L 159.5 58.0 L 160.0 58.5 L 160.0 96.5 Q 159.3 98.8 155.5 98.0 L 155.0 97.5 L 155.0 84.5 L 156.0 83.5 L 156.0 52.5 L 156.5 52.0 Z " /><path fill="rgb(41,84,112)" opacity="1" d="M 177.5 73.0 L 178.0 73.5 L 178.0 80.5 L 178.5 81.0 Q 180.9 79.9 181.5 77.0 Q 182.8 77.8 182.0 80.5 Q 180.4 81.4 180.5 84.0 Q 178.8 84.3 178.5 83.0 Q 176.0 84.0 177.5 85.0 Q 179.7 84.8 180.5 86.0 Q 181.3 84.3 182.0 85.5 Q 182.5 87.5 181.5 88.0 Q 180.3 87.8 180.0 88.5 Q 182.0 89.5 181.0 93.5 Q 180.2 94.7 178.0 94.5 L 178.5 95.0 Q 181.3 94.3 182.0 95.5 L 181.5 96.0 L 175.5 96.0 L 175.0 95.5 L 175.0 80.5 L 176.0 79.5 L 176.0 76.5 Q 177.6 75.6 177.5 73.0 Z M 177.0 91.0 Q 175.0 94.0 177.0 95.0 Q 176.0 92.0 178.0 92.0 Q 178.0 91.0 177.0 91.0 Z " /><path fill="rgb(41,84,112)" opacity="1" d="M 186.5 78.0 Q 189.0 79.0 187.5 80.0 Q 186.3 80.3 186.0 79.5 Q 185.8 78.3 186.5 78.0 Z " /><path fill="rgb(41,84,112)" opacity="1" d="M 194.5 85.0 Q 195.8 85.8 194.0 86.5 Q 194.3 87.8 193.5 88.0 Q 192.8 87.8 193.0 86.5 L 194.5 85.0 Z " /><path fill="rgb(41,84,112)" opacity="1" d="M 184.5 88.0 Q 187.4 89.1 189.0 91.5 Q 187.3 91.8 186.5 93.0 L 183.0 89.5 L 184.5 88.0 Z " /><path fill="rgb(41,84,112)" opacity="1" d="M 191.5 94.0 L 194.0 96.5 L 193.5 97.0 Q 189.8 97.8 189.0 95.5 Q 190.8 95.3 191.5 94.0 Z " /><path fill="rgb(41,84,112)" opacity="1" d="M 240.5 94.0 Q 242.0 95.0 241.0 98.5 Q 240.5 99.5 240.0 98.5 Q 239.0 95.0 240.5 94.0 Z " /><path fill="rgb(41,84,112)" opacity="1" d="M 167.5 100.0 L 183.5 100.0 L 184.5 101.0 L 192.5 101.0 L 193.0 101.5 L 192.5 102.0 L 184.5 102.0 L 183.0 103.5 Q 184.8 104.3 183.5 105.0 Q 181.8 104.8 181.5 106.0 L 169.5 106.0 L 168.5 107.0 L 164.5 107.0 L 163.5 108.0 L 161.5 108.0 Q 160.6 109.6 158.0 109.5 L 158.0 110.5 L 173.0 125.5 L 173.0 127.5 Q 172.8 128.3 171.5 128.0 Q 162.4 120.6 154.5 112.0 L 153.5 112.0 Q 152.5 116.0 146.5 115.0 Q 145.0 114.0 146.0 110.5 Q 150.0 105.5 156.5 103.0 L 158.5 103.0 L 159.5 102.0 Q 162.0 102.5 162.5 101.0 L 166.5 101.0 L 167.5 100.0 Z " /><path fill="rgb(41,84,112)" opacity="1" d="M 195.5 100.0 L 200.5 100.0 L 201.0 100.5 Q 199.8 102.3 195.5 101.0 Q 194.5 100.5 195.5 100.0 Z " /><path fill="rgb(41,84,112)" opacity="1" d="M 240.5 100.0 L 241.0 100.5 L 241.0 106.5 Q 240.5 107.5 240.0 106.5 L 240.0 100.5 L 240.5 100.0 Z " /><path fill="rgb(41,84,112)" opacity="1" d="M 189.5 104.0 Q 193.0 103.0 194.0 104.5 Q 193.8 105.8 194.5 106.0 Q 195.8 105.8 196.0 106.5 L 195.5 107.0 L 183.5 107.0 Q 182.5 106.5 183.5 106.0 L 189.5 106.0 L 190.0 105.5 Q 188.3 104.8 189.5 104.0 Z " /><path fill="rgb(41,84,112)" opacity="1" d="M 200.5 104.0 Q 204.0 103.0 205.0 104.5 L 204.5 105.0 L 200.5 105.0 Q 200.0 106.5 197.5 106.0 Q 196.5 105.5 197.5 105.0 Q 200.0 105.5 200.5 104.0 Z " /><path fill="rgb(41,84,112)" opacity="1" d="M 235.5 109.0 Q 238.3 108.3 239.0 109.5 Q 238.3 110.8 235.5 110.0 Q 234.5 109.5 235.5 109.0 Z " /><path fill="rgb(41,84,112)" opacity="1" d="M 167.5 110.0 L 169.5 110.0 L 175.5 116.0 Q 177.7 115.8 178.5 117.0 Q 179.8 116.3 178.0 115.5 Q 177.0 112.0 178.5 111.0 L 184.5 111.0 L 185.0 111.5 L 185.0 123.5 L 184.0 124.5 Q 184.5 127.0 183.0 127.5 L 183.0 130.5 Q 181.0 135.5 177.5 139.0 Q 172.8 139.8 172.0 136.5 L 173.0 135.5 L 173.0 134.5 L 174.0 133.5 L 174.0 132.5 Q 176.2 130.7 177.0 127.5 L 177.0 125.5 Q 178.5 125.0 178.0 122.5 Q 173.4 115.6 166.0 111.5 L 167.5 110.0 Z " /><path fill="rgb(41,84,112)" opacity="1" d="M 227.5 113.0 Q 229.8 112.8 230.0 114.5 Q 229.3 115.8 226.5 115.0 Q 225.0 114.0 227.5 113.0 Z " /><path fill="rgb(41,84,112)" opacity="1" d="M 214.5 115.0 Q 215.8 114.8 216.0 115.5 Q 216.3 116.8 215.5 117.0 Q 212.8 116.3 212.0 117.5 Q 212.3 118.8 211.5 119.0 Q 210.3 118.8 210.0 119.5 Q 211.3 119.8 211.0 121.5 Q 209.8 121.8 210.0 123.5 Q 210.3 124.3 211.5 124.0 Q 212.3 122.3 213.0 123.5 Q 213.3 124.8 212.5 125.0 Q 208.3 125.7 206.5 124.0 Q 205.8 124.3 206.0 125.5 L 206.5 126.0 L 213.5 126.0 Q 214.3 124.3 217.5 125.0 Q 218.5 125.5 217.5 126.0 L 215.5 126.0 L 214.5 127.0 L 212.5 127.0 Q 212.0 128.5 209.5 128.0 L 208.5 129.0 L 207.5 129.0 Q 205.7 131.2 202.5 132.0 L 197.5 132.0 L 196.5 131.0 L 195.5 131.0 L 194.5 130.0 L 193.5 130.0 Q 191.9 128.1 189.0 127.5 L 189.0 123.5 L 190.0 122.5 Q 189.0 119.0 190.5 118.0 Q 196.0 120.5 199.5 125.0 L 200.5 125.0 Q 206.3 118.8 214.5 115.0 Z " /><path fill="rgb(41,84,112)" opacity="1" d="M 217.5 117.0 Q 218.8 116.8 219.0 117.5 L 217.5 119.0 Q 215.0 118.5 214.5 120.0 Q 213.0 119.0 215.5 118.0 Q 217.3 118.3 217.5 117.0 Z " /><path fill="rgb(41,84,112)" opacity="1" d="M 220.5 120.0 Q 224.0 119.0 225.0 120.5 L 224.5 121.0 Q 221.8 120.3 221.0 121.5 Q 223.6 121.4 224.5 123.0 Q 227.3 122.3 228.0 123.5 Q 226.8 125.3 222.5 124.0 Q 221.4 122.6 219.5 122.0 L 217.5 122.0 Q 217.0 123.5 214.5 123.0 Q 213.5 122.5 214.5 122.0 L 216.5 122.0 L 217.5 121.0 Q 220.0 121.5 220.5 120.0 Z " /><path fill="rgb(41,84,112)" opacity="1" d="M 179.5 145.0 Q 182.3 144.3 183.0 145.5 Q 182.8 146.8 183.5 147.0 Q 187.3 146.3 188.0 148.5 Q 187.8 149.8 188.5 150.0 Q 190.5 150.5 191.0 149.5 Q 190.3 146.8 191.5 146.0 Q 194.3 145.3 195.0 146.5 L 195.0 156.5 L 194.5 157.0 Q 191.8 157.8 191.0 156.5 Q 191.5 154.5 190.5 154.0 Q 187.5 154.5 187.0 152.5 Q 188.8 151.8 187.5 151.0 Q 186.3 149.7 183.5 150.0 Q 182.8 150.3 183.0 151.5 Q 184.9 154.1 188.0 155.5 Q 188.3 156.8 187.5 157.0 L 184.5 157.0 Q 183.3 155.3 180.5 155.0 Q 178.5 157.5 174.5 158.0 Q 174.3 156.3 173.0 155.5 Q 177.0 154.5 179.0 151.5 Q 177.8 148.8 176.5 151.0 Q 174.5 151.5 174.0 150.5 Q 173.3 147.8 174.5 147.0 Q 177.0 146.5 177.5 148.0 Q 179.1 147.1 179.5 145.0 Z " /><path fill="rgb(41,84,112)" opacity="1" d="M 234.5 145.0 Q 236.5 144.5 237.0 145.5 Q 236.8 146.8 237.5 147.0 Q 241.8 145.8 243.0 147.5 Q 243.5 149.5 242.5 150.0 L 228.5 150.0 L 228.0 149.5 Q 227.8 147.3 229.5 147.0 Q 230.5 149.0 231.5 147.0 Q 234.3 147.3 234.5 145.0 Z " /><path fill="rgb(41,84,112)" opacity="1" d="M 149.5 146.0 Q 151.5 145.5 152.0 146.5 Q 151.5 148.5 152.5 149.0 Q 156.8 150.3 158.0 148.5 Q 157.5 146.5 158.5 146.0 Q 161.5 145.5 162.0 147.5 L 162.0 157.5 L 161.5 158.0 L 148.5 158.0 L 148.0 157.5 L 148.0 147.5 L 149.5 146.0 Z M 154.0 152.0 Q 152.0 152.0 152.0 155.0 Q 153.0 156.0 158.0 155.0 Q 158.0 155.0 158.0 154.0 Q 157.0 151.0 154.0 152.0 Z " /><path fill="rgb(41,84,112)" opacity="1" d="M 165.5 146.0 Q 168.3 145.3 169.0 146.5 Q 168.0 150.0 169.5 151.0 Q 171.5 150.5 172.0 151.5 Q 172.5 153.5 171.5 154.0 Q 169.5 153.5 169.0 154.5 Q 170.0 158.0 168.5 159.0 Q 165.8 159.8 165.0 158.5 L 165.0 146.5 L 165.5 146.0 Z " /><path fill="rgb(41,84,112)" opacity="1" d="M 220.5 146.0 Q 223.3 145.3 224.0 146.5 L 224.0 154.5 L 224.5 155.0 Q 225.8 152.8 227.0 155.5 Q 227.5 157.5 226.5 158.0 Q 224.5 157.5 224.0 158.5 L 224.0 168.5 L 223.5 169.0 Q 220.8 169.8 220.0 168.5 Q 220.8 163.7 219.0 161.5 L 220.0 160.5 L 220.0 146.5 L 220.5 146.0 Z " /><path fill="rgb(41,84,112)" opacity="1" d="M 245.5 146.0 Q 248.3 145.3 249.0 146.5 Q 248.0 150.0 249.5 151.0 Q 251.5 150.5 252.0 151.5 Q 252.8 154.3 251.5 155.0 Q 249.5 154.5 249.0 155.5 Q 250.0 159.0 248.5 160.0 Q 245.8 160.8 245.0 159.5 L 245.0 146.5 L 245.5 146.0 Z " /><path fill="rgb(41,84,112)" opacity="1" d="M 203.5 147.0 L 216.5 147.0 L 217.0 147.5 L 217.0 157.5 Q 215.4 158.4 215.5 161.0 Q 212.5 161.5 212.0 159.5 Q 214.2 156.7 213.0 150.5 L 212.5 150.0 L 203.5 150.0 L 203.0 149.5 Q 202.5 147.5 203.5 147.0 Z " /><path fill="rgb(41,84,112)" opacity="1" d="M 234.5 151.0 Q 237.0 150.5 237.5 152.0 L 240.5 152.0 L 242.0 153.5 Q 243.0 158.0 240.5 159.0 Q 238.0 161.0 232.5 160.0 Q 230.3 159.3 229.0 157.5 Q 228.0 154.0 229.5 153.0 Q 230.7 151.7 233.5 152.0 L 234.5 151.0 Z M 234.0 154.0 Q 233.0 154.0 233.0 157.0 Q 234.0 158.0 238.0 157.0 Q 238.0 157.0 238.0 155.0 Q 237.0 153.0 234.0 154.0 Z " /><path fill="rgb(41,84,112)" opacity="1" d="M 206.5 155.0 Q 209.3 154.3 210.0 155.5 L 210.0 163.5 L 210.5 164.0 L 216.5 164.0 L 217.5 163.0 Q 218.8 163.8 218.0 166.5 L 217.5 167.0 L 202.5 167.0 Q 201.3 166.3 203.0 165.5 Q 202.8 164.3 203.5 164.0 Q 205.5 164.5 206.0 163.5 L 206.0 155.5 L 206.5 155.0 Z " /><path fill="rgb(41,84,112)" opacity="1" d="M 176.5 159.0 L 194.5 159.0 L 195.0 159.5 L 195.0 164.5 L 194.5 165.0 L 180.5 165.0 L 180.0 165.5 L 180.5 166.0 L 191.5 166.0 Q 191.8 167.3 193.5 167.0 Q 194.8 164.8 196.0 167.5 Q 196.3 168.8 195.5 169.0 L 176.5 169.0 L 176.0 168.5 Q 174.8 164.3 176.5 163.0 L 190.5 163.0 L 191.0 162.5 Q 191.3 161.3 190.5 161.0 L 176.5 161.0 L 176.0 160.5 Q 175.8 159.3 176.5 159.0 Z " /><path fill="rgb(41,84,112)" opacity="1" d="M 161.5 160.0 L 162.5 161.0 L 168.5 161.0 L 169.0 161.5 L 169.0 168.5 L 168.5 169.0 Q 165.8 169.8 165.0 168.5 Q 166.0 165.0 164.5 164.0 L 150.5 164.0 L 150.0 163.5 Q 149.5 161.5 150.5 161.0 L 160.5 161.0 L 161.5 160.0 Z " /><path fill="rgb(41,84,112)" opacity="1" d="M 230.5 161.0 L 244.5 161.0 Q 245.0 162.5 247.5 162.0 Q 248.3 160.3 249.0 161.5 L 249.0 168.5 L 248.5 169.0 Q 245.8 169.8 245.0 168.5 Q 245.8 165.8 244.5 165.0 L 230.5 165.0 L 230.0 164.5 Q 229.3 161.8 230.5 161.0 Z " /><path fill="rgb(41,84,112)" opacity="1" d="M 182.5 173.0 L 183.5 174.0 Q 186.3 173.3 187.0 174.5 L 186.5 175.0 Q 183.8 174.3 183.0 175.5 Q 182.8 176.8 183.5 177.0 Q 186.3 176.3 187.0 177.5 Q 186.0 179.5 183.0 179.5 Q 183.5 181.5 182.5 182.0 Q 181.3 182.3 181.0 181.5 L 181.0 174.5 L 182.5 173.0 Z " /><path fill="rgb(41,84,112)" opacity="1" d="M 199.5 173.0 L 200.0 173.5 L 200.0 180.5 L 200.5 181.0 Q 203.3 180.3 204.0 181.5 Q 203.0 183.0 199.5 182.0 L 199.0 181.5 L 199.0 173.5 L 199.5 173.0 Z " /><path fill="rgb(41,84,112)" opacity="1" d="M 213.5 173.0 Q 214.7 173.8 214.5 176.0 Q 218.3 175.3 219.0 177.5 Q 219.8 181.3 217.5 182.0 Q 214.0 183.0 213.0 181.5 L 213.0 173.5 L 213.5 173.0 Z M 216.0 177.0 Q 214.0 177.0 214.0 180.0 Q 214.0 181.0 217.0 181.0 Q 218.0 180.0 217.0 178.0 Q 217.0 177.0 216.0 177.0 Z " /><path fill="rgb(41,84,112)" opacity="1" d="M 189.5 176.0 Q 193.3 175.3 194.0 177.5 Q 194.3 178.8 193.5 179.0 Q 190.8 178.3 190.0 179.5 Q 189.8 180.8 190.5 181.0 Q 193.3 180.3 194.0 181.5 Q 193.0 183.0 189.5 182.0 Q 187.3 181.3 188.0 177.5 L 189.5 176.0 Z " /><path fill="rgb(41,84,112)" opacity="1" d="M 206.5 176.0 Q 210.0 175.0 211.0 176.5 L 211.0 181.5 L 210.5 182.0 Q 206.0 183.0 205.0 180.5 Q 206.6 178.6 209.0 177.5 Q 208.8 176.8 207.5 177.0 Q 206.8 178.8 206.0 177.5 Q 205.8 176.3 206.5 176.0 Z M 209.0 179.0 Q 206.0 180.0 208.0 181.0 Q 209.0 181.0 209.0 181.0 Q 209.0 179.0 209.0 179.0 Z " /><path fill="rgb(41,84,112)" opacity="1" d="M 99.5 186.0 Q 100.5 188.0 103.0 188.5 Q 102.2 189.7 100.0 189.5 Q 102.1 189.9 103.0 191.5 Q 102.3 194.8 97.5 194.0 Q 95.5 193.5 96.0 190.5 Q 96.6 189.6 98.0 189.5 Q 97.2 188.3 95.0 188.5 Q 98.4 188.4 99.5 186.0 Z M 98.0 191.0 Q 96.0 192.0 99.0 193.0 Q 101.0 193.0 101.0 192.0 Q 100.0 190.0 98.0 191.0 Z " /><path fill="rgb(41,84,112)" opacity="1" d="M 179.5 186.0 Q 180.4 186.6 180.5 188.0 Q 182.5 187.5 183.0 188.5 Q 183.3 189.8 182.5 190.0 Q 180.5 189.5 180.0 190.5 Q 182.1 190.9 183.0 192.5 Q 183.8 196.3 181.5 197.0 Q 177.0 198.0 176.0 195.5 Q 175.3 191.8 177.5 191.0 Q 178.8 191.3 179.0 190.5 Q 178.2 189.3 176.0 189.5 Q 175.8 188.3 176.5 188.0 Q 178.5 188.5 179.0 187.5 Q 178.8 186.3 179.5 186.0 Z M 179.0 192.0 Q 177.0 193.0 178.0 196.0 Q 179.0 196.0 181.0 196.0 Q 182.0 195.0 181.0 193.0 Q 181.0 192.0 179.0 192.0 Z " /><path fill="rgb(41,84,112)" opacity="1" d="M 267.5 186.0 Q 272.3 185.3 274.0 187.5 Q 274.5 190.5 272.5 191.0 Q 270.5 190.5 270.0 191.5 L 270.5 192.0 Q 274.0 191.0 275.0 192.5 L 274.5 193.0 L 264.5 193.0 Q 263.5 192.5 264.5 192.0 Q 267.3 192.8 268.0 191.5 Q 265.0 191.5 264.0 189.5 Q 263.8 187.3 265.5 187.0 Q 267.3 187.3 267.5 186.0 Z M 267.0 188.0 Q 265.0 189.0 267.0 190.0 Q 272.0 191.0 273.0 189.0 L 273.0 188.0 L 267.0 188.0 Z " /><path fill="rgb(41,84,112)" opacity="1" d="M 293.5 186.0 Q 294.4 186.6 294.5 188.0 Q 296.5 187.5 297.0 188.5 Q 296.2 189.7 294.0 189.5 L 294.0 192.5 L 297.0 195.5 L 297.0 196.5 L 296.5 197.0 L 293.5 194.0 Q 292.3 193.8 292.0 194.5 Q 292.3 196.8 290.5 197.0 Q 289.3 197.3 289.0 196.5 Q 291.1 195.1 292.0 192.5 L 292.0 189.5 Q 291.2 188.3 289.0 188.5 Q 292.4 188.4 293.5 186.0 Z " /><path fill="rgb(41,84,112)" opacity="1" d="M 83.5 187.0 L 89.5 187.0 L 90.0 187.5 Q 91.3 192.8 88.5 194.0 Q 87.0 193.0 88.0 189.5 L 86.5 188.0 Q 84.3 187.8 83.5 189.0 Q 82.4 188.4 83.5 187.0 Z " /><path fill="rgb(41,84,112)" opacity="1" d="M 92.5 187.0 L 93.0 187.5 Q 92.3 190.3 93.5 191.0 Q 94.8 190.8 95.0 191.5 L 93.0 193.5 L 93.0 198.5 L 92.5 199.0 L 92.0 198.5 L 92.0 187.5 L 92.5 187.0 Z " /><path fill="rgb(41,84,112)" opacity="1" d="M 104.5 187.0 Q 105.8 186.8 106.0 187.5 Q 105.5 189.5 106.5 190.0 Q 107.8 189.8 108.0 190.5 Q 107.4 191.4 106.0 191.5 Q 106.5 193.5 105.5 194.0 L 104.0 192.5 Q 102.8 188.3 104.5 187.0 Z " /><path fill="rgb(41,84,112)" opacity="1" d="M 110.5 187.0 L 117.5 187.0 L 119.0 188.5 Q 119.5 190.5 118.5 191.0 Q 116.7 192.7 112.5 192.0 Q 110.3 191.3 109.0 189.5 Q 108.8 187.3 110.5 187.0 Z M 112.0 188.0 Q 111.0 188.0 111.0 190.0 L 112.0 190.0 L 117.0 190.0 Q 117.0 190.0 117.0 189.0 L 117.0 188.0 L 112.0 188.0 Z " /><path fill="rgb(41,84,112)" opacity="1" d="M 138.5 187.0 L 147.5 187.0 L 148.0 187.5 L 147.5 188.0 L 140.5 188.0 L 140.0 188.5 Q 139.5 190.5 140.5 191.0 L 147.5 191.0 L 148.0 191.5 L 147.5 192.0 L 138.5 192.0 L 138.0 191.5 Q 137.0 188.0 138.5 187.0 Z " /><path fill="rgb(41,84,112)" opacity="1" d="M 164.5 187.0 Q 168.8 185.8 170.0 187.5 L 170.0 196.5 L 169.5 197.0 L 164.5 197.0 L 164.0 196.5 L 164.0 187.5 L 164.5 187.0 Z M 167.0 188.0 Q 163.0 189.0 165.0 196.0 Q 166.0 196.0 168.0 196.0 Q 170.0 195.0 169.0 190.0 Q 169.0 188.0 167.0 188.0 Z " /><path fill="rgb(41,84,112)" opacity="1" d="M 172.5 187.0 Q 173.8 186.8 174.0 187.5 L 174.0 198.5 L 173.5 199.0 Q 172.3 199.3 172.0 198.5 L 172.0 187.5 L 172.5 187.0 Z " /><path fill="rgb(41,84,112)" opacity="1" d="M 184.5 187.0 Q 185.8 186.8 186.0 187.5 Q 185.3 191.8 188.0 192.5 Q 187.4 193.4 186.0 193.5 L 186.0 198.5 L 185.5 199.0 L 185.0 198.5 L 185.0 188.5 Q 183.3 187.8 184.5 187.0 Z " /><path fill="rgb(41,84,112)" opacity="1" d="M 189.5 187.0 Q 193.3 186.3 194.0 188.5 Q 193.5 190.5 194.5 191.0 L 195.0 190.5 Q 194.3 187.8 195.5 187.0 Q 196.8 186.8 197.0 187.5 L 197.0 197.5 L 196.5 198.0 Q 195.3 198.3 195.0 197.5 Q 196.3 193.3 194.5 192.0 L 189.5 197.0 L 189.0 196.5 L 189.0 195.5 L 192.0 192.5 L 192.0 188.5 Q 191.5 187.5 189.5 188.0 Q 188.5 187.5 189.5 187.0 Z " /><path fill="rgb(41,84,112)" opacity="1" d="M 198.5 187.0 Q 199.8 186.8 200.0 187.5 L 200.0 197.5 L 199.5 198.0 Q 198.3 198.3 198.0 197.5 L 198.0 187.5 L 198.5 187.0 Z " /><path fill="rgb(41,84,112)" opacity="1" d="M 209.5 187.0 L 214.5 187.0 Q 215.0 188.5 217.5 188.0 Q 217.8 186.8 219.5 187.0 Q 220.8 187.8 219.0 188.5 L 219.0 195.5 L 218.5 196.0 Q 214.3 194.8 213.0 196.5 L 213.5 197.0 L 218.5 197.0 L 219.0 197.5 Q 219.3 198.8 218.5 199.0 L 211.5 199.0 L 210.0 197.5 Q 209.8 195.3 211.5 195.0 L 217.5 195.0 L 218.0 194.5 L 217.5 194.0 L 210.5 194.0 L 210.0 193.5 L 210.5 193.0 L 217.5 193.0 L 218.0 192.5 Q 218.3 191.3 217.5 191.0 Q 215.0 191.5 214.5 190.0 Q 213.8 192.8 209.5 192.0 Q 208.5 191.5 209.5 191.0 Q 213.5 191.5 214.0 188.5 Q 213.0 187.0 209.5 188.0 Q 208.5 187.5 209.5 187.0 Z M 216.0 189.0 Q 215.0 190.0 216.0 190.0 Q 217.0 190.0 218.0 190.0 Q 217.0 189.0 216.0 189.0 Z " /><path fill="rgb(41,84,112)" opacity="1" d="M 222.5 187.0 Q 227.8 185.8 229.0 188.5 L 229.0 190.5 Q 227.4 191.4 227.5 194.0 L 227.0 193.5 L 227.0 188.5 L 226.5 188.0 L 222.5 188.0 Q 221.5 187.5 222.5 187.0 Z " /><path fill="rgb(41,84,112)" opacity="1" d="M 230.5 187.0 Q 231.8 186.8 232.0 187.5 Q 231.5 191.0 233.0 192.5 L 232.0 193.5 L 232.0 198.5 L 231.5 199.0 Q 230.3 199.3 230.0 198.5 L 230.0 187.5 L 230.5 187.0 Z " /><path fill="rgb(41,84,112)" opacity="1" d="M 235.5 187.0 Q 236.8 186.8 237.0 187.5 Q 236.5 189.5 237.5 190.0 L 244.5 190.0 L 245.0 190.5 L 244.5 191.0 L 235.5 191.0 Q 233.9 189.9 235.5 187.0 Z " /><path fill="rgb(41,84,112)" opacity="1" d="M 279.5 187.0 Q 280.8 186.8 281.0 187.5 Q 280.5 190.5 282.5 191.0 Q 283.8 190.8 284.0 191.5 Q 283.8 192.3 282.5 192.0 L 280.5 190.0 L 277.5 193.0 L 276.0 191.5 Q 278.1 191.1 279.0 189.5 Q 278.5 187.5 279.5 187.0 Z " /><path fill="rgb(41,84,112)" opacity="1" d="M 286.5 187.0 Q 288.3 188.3 287.0 192.5 Q 286.5 193.5 286.0 192.5 Q 286.5 190.5 285.5 190.0 Q 283.3 190.3 283.0 188.5 Q 285.6 188.6 286.5 187.0 Z " /><path fill="rgb(41,84,112)" opacity="1" d="M 299.5 187.0 L 300.0 187.5 L 300.0 198.5 Q 299.0 200.0 298.0 197.5 Q 299.3 197.3 299.0 195.5 Q 298.1 192.9 296.0 191.5 Q 296.8 190.3 299.0 190.5 Q 298.3 187.8 299.5 187.0 Z " /><path fill="rgb(41,84,112)" opacity="1" d="M 302.5 187.0 L 308.5 187.0 L 309.0 187.5 Q 307.0 188.5 309.0 189.5 L 307.5 191.0 Q 304.8 190.3 304.0 191.5 L 304.5 192.0 L 309.5 192.0 L 310.0 192.5 L 309.5 193.0 L 303.5 193.0 Q 302.3 192.3 303.0 189.5 L 303.5 189.0 Q 306.3 189.8 307.0 188.5 Q 306.0 187.0 302.5 188.0 Q 301.5 187.5 302.5 187.0 Z " /><path fill="rgb(41,84,112)" opacity="1" d="M 311.5 187.0 Q 312.8 186.8 313.0 187.5 L 313.0 192.5 L 312.5 193.0 Q 311.3 193.3 311.0 192.5 Q 311.5 190.0 310.0 189.5 Q 311.3 188.8 311.5 187.0 Z " /><path fill="rgb(41,84,112)" opacity="1" d="M 85.5 191.0 L 86.0 191.5 Q 85.0 195.0 86.5 196.0 Q 89.3 195.3 90.0 196.5 L 89.5 197.0 L 82.5 197.0 Q 81.5 196.5 82.5 196.0 Q 84.8 196.3 85.0 194.5 Q 84.3 191.8 85.5 191.0 Z " /><path fill="rgb(41,84,112)" opacity="1" d="M 224.5 191.0 L 225.0 191.5 Q 224.0 195.0 225.5 196.0 Q 228.3 195.3 229.0 196.5 L 228.5 197.0 L 222.5 197.0 L 222.0 196.5 L 224.0 194.5 L 223.0 193.5 Q 222.8 191.3 224.5 191.0 Z " /><path fill="rgb(41,84,112)" opacity="1" d="M 235.5 192.0 L 245.5 192.0 L 246.0 192.5 Q 246.3 193.8 245.5 194.0 L 235.5 194.0 L 235.0 193.5 Q 234.8 192.3 235.5 192.0 Z " /><path fill="rgb(41,84,112)" opacity="1" d="M 108.5 193.0 L 119.5 193.0 L 120.0 193.5 L 119.5 194.0 L 108.5 194.0 Q 107.5 193.5 108.5 193.0 Z " /><path fill="rgb(41,84,112)" opacity="1" d="M 137.5 194.0 L 148.5 194.0 L 149.0 194.5 L 148.5 195.0 Q 145.0 194.0 144.0 195.5 Q 144.8 198.3 143.5 199.0 Q 141.5 198.0 141.5 195.0 L 137.5 195.0 Q 136.5 194.5 137.5 194.0 Z " /><path fill="rgb(41,84,112)" opacity="1" d="M 266.5 194.0 L 272.5 194.0 L 274.0 195.5 Q 274.5 198.5 272.5 199.0 Q 265.5 200.5 264.0 196.5 Q 263.8 195.3 264.5 195.0 Q 266.3 195.3 266.5 194.0 Z M 268.0 195.0 Q 265.0 196.0 267.0 197.0 L 273.0 197.0 L 273.0 197.0 Q 272.0 194.0 268.0 195.0 Z " /><path fill="rgb(41,84,112)" opacity="1" d="M 278.5 194.0 L 286.5 194.0 L 287.0 194.5 Q 287.8 198.3 285.5 199.0 Q 279.5 200.5 278.0 197.5 Q 277.3 194.8 278.5 194.0 Z M 280.0 195.0 Q 279.0 195.0 279.0 197.0 L 280.0 197.0 L 286.0 197.0 Q 286.0 197.0 286.0 196.0 L 286.0 195.0 L 280.0 195.0 Z " /><path fill="rgb(41,84,112)" opacity="1" d="M 304.5 194.0 L 312.5 194.0 L 313.0 194.5 Q 314.0 198.0 312.5 199.0 L 304.5 199.0 L 304.0 198.5 Q 303.0 195.0 304.5 194.0 Z M 307.0 195.0 Q 304.0 196.0 306.0 197.0 Q 310.0 198.0 311.0 197.0 Q 310.0 195.0 307.0 195.0 Z " /><path fill="rgb(41,84,112)" opacity="1" d="M 96.5 195.0 L 105.5 195.0 L 106.0 195.5 Q 106.8 198.3 105.5 199.0 Q 104.3 199.3 104.0 198.5 Q 104.5 196.5 103.5 196.0 L 96.5 196.0 Q 95.5 195.5 96.5 195.0 Z " /><path fill="rgb(41,84,112)" opacity="1" d="M 109.5 195.0 Q 110.8 194.8 111.0 195.5 Q 110.8 196.8 111.5 197.0 L 118.5 197.0 L 119.0 197.5 Q 119.3 198.8 118.5 199.0 L 110.5 199.0 L 109.0 197.5 Q 108.5 195.5 109.5 195.0 Z " /><path fill="rgb(41,84,112)" opacity="1" d="M 235.5 195.0 Q 236.8 194.8 237.0 195.5 Q 236.8 196.8 237.5 197.0 L 244.5 197.0 L 245.0 197.5 Q 245.3 198.8 244.5 199.0 L 236.5 199.0 L 235.0 197.5 Q 234.5 195.5 235.5 195.0 Z " /><path fill="rgb(41,84,112)" opacity="1" d="M 202.5 196.0 Q 203.8 196.8 203.0 199.5 Q 202.5 200.5 202.0 199.5 Q 201.3 196.8 202.5 196.0 Z " /><path fill="rgb(41,84,112)" opacity="1" d="M 315.5 196.0 Q 316.8 195.8 317.0 196.5 Q 317.3 197.8 316.5 198.0 Q 315.3 198.3 315.0 197.5 Q 314.8 196.3 315.5 196.0 Z " /><path fill="rgb(192,211,211)" opacity="1" d="M 223.5 21.0 Q 227.5 20.5 228.0 23.5 L 227.5 24.0 L 225.5 22.0 Q 222.5 22.5 223.5 21.0 Z " /><path fill="rgb(192,211,211)" opacity="1" d="M 228.5 32.0 L 232.0 35.5 L 231.5 36.0 L 228.0 32.5 L 228.5 32.0 Z " /><path fill="rgb(192,211,211)" opacity="1" d="M 222.5 36.0 Q 222.8 40.3 226.0 41.5 L 225.5 42.0 L 222.0 38.5 Q 221.5 36.5 222.5 36.0 Z " /><path fill="rgb(192,211,211)" opacity="1" d="M 227.5 37.0 L 231.0 40.5 L 230.5 41.0 L 227.0 37.5 L 227.5 37.0 Z " /><path fill="rgb(192,211,211)" opacity="1" d="M 158.5 39.0 L 167.5 39.0 L 168.0 39.5 L 167.5 40.0 L 158.5 40.0 Q 157.5 39.5 158.5 39.0 Z " /><path fill="rgb(192,211,211)" opacity="1" d="M 214.5 39.0 L 215.0 39.5 L 215.0 49.5 Q 214.5 50.5 214.0 49.5 L 214.0 39.5 L 214.5 39.0 Z " /><path fill="rgb(192,211,211)" opacity="1" d="M 239.5 42.0 L 245.5 48.0 Q 246.3 46.3 247.0 47.5 L 245.5 49.0 L 239.0 42.5 L 239.5 42.0 Z " /><path fill="rgb(192,211,211)" opacity="1" d="M 167.5 45.0 Q 169.5 44.5 170.0 45.5 Q 169.5 46.5 167.5 46.0 Q 166.5 45.5 167.5 45.0 Z " /><path fill="rgb(192,211,211)" opacity="1" d="M 160.5 46.0 L 161.0 46.5 L 161.0 60.5 Q 160.5 61.5 160.0 60.5 L 160.0 46.5 L 160.5 46.0 Z " /><path fill="rgb(192,211,211)" opacity="1" d="M 238.5 47.0 L 242.0 50.5 L 242.0 51.5 Q 241.8 52.3 240.5 52.0 Q 239.3 51.3 241.0 50.5 L 238.0 47.5 L 238.5 47.0 Z " /><path fill="rgb(192,211,211)" opacity="1" d="M 193.5 49.0 L 196.0 51.5 L 196.0 52.5 Q 195.8 53.3 194.5 53.0 Q 193.3 52.3 195.0 51.5 L 193.0 49.5 L 193.5 49.0 Z " /><path fill="rgb(192,211,211)" opacity="1" d="M 254.5 50.0 L 255.0 50.5 L 250.5 55.0 L 250.0 54.5 L 254.5 50.0 Z " /><path fill="rgb(192,211,211)" opacity="1" d="M 230.5 51.0 Q 232.5 50.5 233.0 51.5 Q 232.5 52.5 230.5 52.0 Q 229.5 51.5 230.5 51.0 Z " /><path fill="rgb(192,211,211)" opacity="1" d="M 205.5 53.0 L 218.5 53.0 L 219.0 53.5 L 218.5 54.0 L 205.5 54.0 Q 204.5 53.5 205.5 53.0 Z " /><path fill="rgb(192,211,211)" opacity="1" d="M 231.5 53.0 Q 234.3 52.3 235.0 53.5 Q 234.3 54.8 231.5 54.0 Q 230.5 53.5 231.5 53.0 Z " /><path fill="rgb(192,211,211)" opacity="1" d="M 254.5 55.0 L 255.0 55.5 L 252.5 58.0 L 252.0 57.5 L 254.5 55.0 Z " /><path fill="rgb(192,211,211)" opacity="1" d="M 202.5 61.0 Q 204.5 60.5 205.0 61.5 Q 204.5 62.5 202.5 62.0 Q 201.5 61.5 202.5 61.0 Z " /><path fill="rgb(192,211,211)" opacity="1" d="M 220.5 61.0 L 229.5 61.0 L 230.0 61.5 L 229.5 62.0 L 220.5 62.0 Q 219.5 61.5 220.5 61.0 Z " /><path fill="rgb(192,211,211)" opacity="1" d="M 249.5 61.0 Q 251.3 62.3 250.0 66.5 Q 249.5 67.5 249.0 66.5 Q 247.8 62.3 249.5 61.0 Z " /><path fill="rgb(192,211,211)" opacity="1" d="M 207.5 63.0 Q 209.5 62.5 210.0 63.5 Q 209.5 64.5 207.5 64.0 Q 206.5 63.5 207.5 63.0 Z " /><path fill="rgb(192,211,211)" opacity="1" d="M 239.5 63.0 L 240.0 63.5 L 240.0 95.5 Q 239.5 96.5 239.0 95.5 L 239.0 63.5 L 239.5 63.0 Z " /><path fill="rgb(192,211,211)" opacity="1" d="M 212.5 65.0 L 217.5 70.0 Q 218.3 68.3 219.0 69.5 L 217.5 71.0 L 212.0 65.5 L 212.5 65.0 Z " /><path fill="rgb(192,211,211)" opacity="1" d="M 225.5 66.0 Q 226.5 66.5 226.0 68.5 Q 225.5 69.5 225.0 68.5 Q 224.5 66.5 225.5 66.0 Z " /><path fill="rgb(192,211,211)" opacity="1" d="M 208.5 67.0 L 216.0 74.5 L 215.5 75.0 L 208.0 67.5 L 208.5 67.0 Z " /><path fill="rgb(192,211,211)" opacity="1" d="M 190.5 68.0 L 195.0 72.5 L 194.5 73.0 L 190.0 68.5 L 190.5 68.0 Z " /><path fill="rgb(192,211,211)" opacity="1" d="M 187.5 71.0 L 194.0 77.5 L 193.5 78.0 L 187.0 71.5 L 187.5 71.0 Z " /><path fill="rgb(192,211,211)" opacity="1" d="M 209.5 74.0 L 215.0 79.5 L 214.5 80.0 L 209.0 74.5 L 209.5 74.0 Z " /><path fill="rgb(192,211,211)" opacity="1" d="M 187.5 77.0 L 195.0 84.5 L 194.5 85.0 L 187.0 77.5 L 187.5 77.0 Z " /><path fill="rgb(192,211,211)" opacity="1" d="M 207.5 78.0 L 213.5 84.0 Q 214.3 82.3 215.0 83.5 L 213.5 85.0 L 207.0 78.5 L 207.5 78.0 Z " /><path fill="rgb(192,211,211)" opacity="1" d="M 225.5 79.0 Q 226.5 79.5 226.0 81.5 Q 225.5 82.5 225.0 81.5 Q 224.5 79.5 225.5 79.0 Z " /><path fill="rgb(192,211,211)" opacity="1" d="M 185.5 81.0 L 193.0 88.5 L 192.5 89.0 L 185.0 81.5 L 185.5 81.0 Z " /><path fill="rgb(192,211,211)" opacity="1" d="M 182.5 84.0 L 192.0 93.5 L 191.5 94.0 L 182.0 84.5 L 182.5 84.0 Z " /><path fill="rgb(192,211,211)" opacity="1" d="M 207.5 84.0 L 213.0 89.5 L 212.5 90.0 L 207.0 84.5 L 207.5 84.0 Z " /><path fill="rgb(192,211,211)" opacity="1" d="M 202.5 85.0 L 211.0 93.5 L 209.5 95.0 Q 208.3 94.3 210.0 93.5 L 202.0 85.5 L 202.5 85.0 Z " /><path fill="rgb(192,211,211)" opacity="1" d="M 181.5 90.0 Q 184.8 89.8 185.0 92.5 L 184.5 93.0 L 182.5 91.0 Q 180.1 90.9 181.5 90.0 Z " /><path fill="rgb(192,211,211)" opacity="1" d="M 174.5 93.0 Q 175.5 93.5 175.0 95.5 Q 174.5 96.5 174.0 95.5 Q 173.5 93.5 174.5 93.0 Z " /><path fill="rgb(192,211,211)" opacity="1" d="M 190.5 97.0 Q 193.3 96.3 194.0 97.5 Q 193.3 98.8 190.5 98.0 Q 189.5 97.5 190.5 97.0 Z " /><path fill="rgb(192,211,211)" opacity="1" d="M 168.5 99.0 L 173.5 99.0 L 174.0 99.5 Q 172.8 101.3 168.5 100.0 Q 167.5 99.5 168.5 99.0 Z " /><path fill="rgb(192,211,211)" opacity="1" d="M 175.5 99.0 L 180.5 99.0 L 181.0 99.5 Q 179.8 101.3 175.5 100.0 Q 174.5 99.5 175.5 99.0 Z " /><path fill="rgb(192,211,211)" opacity="1" d="M 239.5 104.0 Q 240.8 104.8 240.0 107.5 Q 239.5 108.5 239.0 107.5 Q 238.3 104.8 239.5 104.0 Z " /><path fill="rgb(192,211,211)" opacity="1" d="M 149.5 106.0 L 150.0 106.5 L 145.5 111.0 L 145.0 110.5 L 149.5 106.0 Z " /><path fill="rgb(192,211,211)" opacity="1" d="M 182.5 107.0 L 195.5 107.0 L 196.0 107.5 L 195.5 108.0 L 182.5 108.0 Q 181.5 107.5 182.5 107.0 Z " /><path fill="rgb(192,211,211)" opacity="1" d="M 233.5 108.0 Q 235.5 107.5 236.0 108.5 Q 235.5 109.5 233.5 109.0 Q 232.5 108.5 233.5 108.0 Z " /><path fill="rgb(192,211,211)" opacity="1" d="M 159.5 109.0 Q 160.8 109.8 159.0 110.5 L 162.0 113.5 L 161.5 114.0 L 158.0 110.5 L 159.5 109.0 Z " /><path fill="rgb(192,211,211)" opacity="1" d="M 177.5 110.0 Q 178.5 110.5 178.0 112.5 Q 177.5 113.5 177.0 112.5 Q 176.5 110.5 177.5 110.0 Z " /><path fill="rgb(192,211,211)" opacity="1" d="M 185.5 112.0 L 186.0 112.5 L 186.0 122.5 Q 185.5 123.5 185.0 122.5 L 185.0 112.5 L 185.5 112.0 Z " /><path fill="rgb(192,211,211)" opacity="1" d="M 157.5 115.0 L 163.0 120.5 L 162.5 121.0 L 157.0 115.5 L 157.5 115.0 Z " /><path fill="rgb(192,211,211)" opacity="1" d="M 235.5 117.0 Q 237.5 116.5 238.0 117.5 Q 237.5 118.5 235.5 118.0 Q 234.5 117.5 235.5 117.0 Z " /><path fill="rgb(192,211,211)" opacity="1" d="M 219.5 118.0 Q 220.3 119.3 222.0 119.5 Q 221.8 120.3 220.5 120.0 Q 218.0 119.0 219.5 118.0 Z " /><path fill="rgb(192,211,211)" opacity="1" d="M 226.5 118.0 Q 228.5 117.5 229.0 118.5 Q 228.5 119.5 226.5 119.0 Q 225.5 118.5 226.5 118.0 Z " /><path fill="rgb(192,211,211)" opacity="1" d="M 204.5 120.0 L 205.0 120.5 L 200.5 125.0 L 199.5 125.0 L 196.0 121.5 L 196.5 121.0 L 199.5 124.0 L 200.5 124.0 L 204.5 120.0 Z " /><path fill="rgb(192,211,211)" opacity="1" d="M 234.5 123.0 L 242.5 123.0 L 243.0 123.5 L 242.5 124.0 L 234.5 124.0 Q 233.5 123.5 234.5 123.0 Z " /><path fill="rgb(192,211,211)" opacity="1" d="M 225.5 124.0 Q 227.5 123.5 228.0 124.5 Q 227.5 125.5 225.5 125.0 Q 224.5 124.5 225.5 124.0 Z " /><path fill="rgb(192,211,211)" opacity="1" d="M 250.5 124.0 Q 252.5 123.5 253.0 124.5 Q 252.5 125.5 250.5 125.0 Q 249.5 124.5 250.5 124.0 Z " /><path fill="rgb(192,211,211)" opacity="1" d="M 179.5 137.0 L 180.0 137.5 L 177.5 140.0 L 177.0 139.5 L 179.5 137.0 Z " /><path fill="rgb(192,211,211)" opacity="1" d="M 165.5 145.0 Q 168.3 144.3 169.0 145.5 L 168.5 146.0 Q 165.8 145.3 165.0 146.5 L 165.0 153.5 L 164.5 154.0 L 164.0 153.5 L 164.0 146.5 L 165.5 145.0 Z " /><path fill="rgb(192,211,211)" opacity="1" d="M 191.5 145.0 Q 195.3 144.3 196.0 146.5 L 196.0 156.5 L 195.5 157.0 L 195.0 156.5 L 195.0 146.5 L 194.5 146.0 Q 190.5 146.8 191.5 145.0 Z " /><path fill="rgb(192,211,211)" opacity="1" d="M 220.5 145.0 Q 223.3 144.3 224.0 145.5 Q 223.3 146.8 220.5 146.0 Q 219.5 145.5 220.5 145.0 Z " /><path fill="rgb(192,211,211)" opacity="1" d="M 245.5 145.0 Q 249.3 144.3 250.0 146.5 Q 251.0 150.0 249.5 151.0 L 249.0 150.5 Q 250.0 147.0 248.5 146.0 Q 245.8 145.3 245.0 146.5 L 245.0 159.5 L 245.5 160.0 Q 248.3 160.8 249.0 159.5 Q 248.0 156.0 249.5 155.0 Q 251.0 156.0 250.0 159.5 Q 248.0 160.5 250.0 161.5 L 250.0 168.5 L 249.5 169.0 L 249.0 168.5 L 249.0 161.5 L 248.5 161.0 Q 244.8 161.8 244.0 159.5 L 244.0 146.5 L 245.5 145.0 Z " /><path fill="rgb(192,211,211)" opacity="1" d="M 203.5 146.0 L 216.5 146.0 L 218.0 147.5 L 218.0 152.5 L 217.5 153.0 L 217.0 152.5 Q 218.3 148.3 216.5 147.0 L 203.5 147.0 Q 202.5 146.5 203.5 146.0 Z " /><path fill="rgb(192,211,211)" opacity="1" d="M 227.5 147.0 Q 228.5 147.5 228.0 149.5 Q 227.5 150.5 227.0 149.5 Q 226.5 147.5 227.5 147.0 Z " /><path fill="rgb(192,211,211)" opacity="1" d="M 203.5 150.0 L 211.5 150.0 L 213.0 151.5 Q 214.0 155.0 212.5 156.0 L 212.0 155.5 Q 213.0 152.0 211.5 151.0 L 203.5 151.0 Q 202.5 150.5 203.5 150.0 Z " /><path fill="rgb(192,211,211)" opacity="1" d="M 252.5 151.0 Q 253.8 151.8 253.0 154.5 Q 252.0 157.0 251.0 155.5 L 252.0 154.5 Q 251.3 151.8 252.5 151.0 Z " /><path fill="rgb(192,211,211)" opacity="1" d="M 234.5 154.0 Q 236.5 153.5 237.0 154.5 Q 236.5 155.5 234.5 155.0 Q 233.5 154.5 234.5 154.0 Z " /><path fill="rgb(192,211,211)" opacity="1" d="M 205.5 155.0 L 206.0 155.5 L 206.0 163.5 Q 205.5 164.5 203.5 164.0 Q 202.5 163.5 203.5 163.0 Q 204.8 163.3 205.0 162.5 L 205.0 155.5 L 205.5 155.0 Z " /><path fill="rgb(192,211,211)" opacity="1" d="M 210.5 155.0 L 211.0 155.5 L 211.0 162.5 L 211.5 163.0 Q 213.5 162.5 214.0 163.5 Q 213.3 164.8 210.5 164.0 L 210.0 163.5 L 210.0 155.5 L 210.5 155.0 Z " /><path fill="rgb(192,211,211)" opacity="1" d="M 164.5 156.0 Q 165.5 156.5 165.0 158.5 Q 164.5 159.5 164.0 158.5 Q 163.5 156.5 164.5 156.0 Z " /><path fill="rgb(192,211,211)" opacity="1" d="M 169.5 158.0 Q 171.0 159.0 168.5 160.0 Q 166.5 160.5 166.0 159.5 Q 168.6 159.6 169.5 158.0 Z " /><path fill="rgb(192,211,211)" opacity="1" d="M 224.5 158.0 Q 226.5 157.5 227.0 158.5 Q 226.5 159.5 224.5 159.0 Q 223.5 158.5 224.5 158.0 Z " /><path fill="rgb(192,211,211)" opacity="1" d="M 195.5 159.0 Q 197.3 160.3 196.0 164.5 L 194.5 166.0 L 181.5 166.0 Q 180.5 165.5 181.5 165.0 L 194.5 165.0 L 195.0 164.5 Q 193.8 160.3 195.5 159.0 Z " /><path fill="rgb(192,211,211)" opacity="1" d="M 149.5 160.0 Q 150.8 160.8 150.0 163.5 Q 149.5 164.5 149.0 163.5 Q 148.3 160.8 149.5 160.0 Z " /><path fill="rgb(192,211,211)" opacity="1" d="M 234.5 160.0 Q 236.5 159.5 237.0 160.5 Q 236.5 161.5 234.5 161.0 Q 233.5 160.5 234.5 160.0 Z " /><path fill="rgb(192,211,211)" opacity="1" d="M 229.5 161.0 Q 230.8 161.8 230.0 164.5 Q 229.5 165.5 229.0 164.5 Q 228.3 161.8 229.5 161.0 Z " /><path fill="rgb(192,211,211)" opacity="1" d="M 169.5 162.0 Q 170.8 162.8 170.0 165.5 Q 169.5 166.5 169.0 165.5 Q 168.3 162.8 169.5 162.0 Z " /><path fill="rgb(192,211,211)" opacity="1" d="M 244.5 166.0 Q 245.5 166.5 245.0 168.5 Q 244.5 169.5 244.0 168.5 Q 243.5 166.5 244.5 166.0 Z " /><path fill="rgb(192,211,211)" opacity="1" d="M 212.5 167.0 Q 214.5 166.5 215.0 167.5 Q 214.5 168.5 212.5 168.0 Q 211.5 167.5 212.5 167.0 Z " /><path fill="rgb(192,211,211)" opacity="1" d="M 176.5 169.0 L 195.5 169.0 L 196.0 169.5 L 195.5 170.0 L 176.5 170.0 Q 175.5 169.5 176.5 169.0 Z " /><path fill="rgb(192,211,211)" opacity="1" d="M 200.5 173.0 Q 201.8 173.8 201.0 176.5 Q 200.5 177.5 200.0 176.5 Q 199.3 173.8 200.5 173.0 Z " /><path fill="rgb(192,211,211)" opacity="1" d="M 214.5 173.0 Q 214.8 174.8 216.0 175.5 Q 215.8 176.3 214.5 176.0 Q 213.2 175.2 214.5 173.0 Z " /><path fill="rgb(192,211,211)" opacity="1" d="M 200.5 178.0 Q 201.4 178.6 201.5 180.0 Q 204.5 179.5 205.0 181.5 Q 205.3 182.8 204.5 183.0 Q 203.6 182.4 203.5 181.0 Q 200.5 181.5 200.0 179.5 Q 199.8 178.3 200.5 178.0 Z " /><path fill="rgb(192,211,211)" opacity="1" d="M 183.5 179.0 Q 184.5 179.5 184.0 181.5 Q 183.5 182.5 183.0 181.5 Q 182.5 179.5 183.5 179.0 Z " /><path fill="rgb(192,211,211)" opacity="1" d="M 138.5 186.0 L 147.5 186.0 L 149.0 187.5 L 147.5 189.0 L 140.5 189.0 Q 139.5 188.5 140.5 188.0 L 147.5 188.0 L 148.0 187.5 L 147.5 187.0 L 138.5 187.0 Q 137.5 186.5 138.5 186.0 Z " /><path fill="rgb(192,211,211)" opacity="1" d="M 161.5 186.0 L 162.0 186.5 L 162.0 191.5 Q 161.5 192.5 161.0 191.5 Q 159.8 187.3 161.5 186.0 Z " /><path fill="rgb(192,211,211)" opacity="1" d="M 209.5 186.0 L 214.5 186.0 L 215.0 186.5 Q 213.8 188.3 209.5 187.0 Q 208.5 186.5 209.5 186.0 Z " /><path fill="rgb(192,211,211)" opacity="1" d="M 302.5 186.0 L 308.5 186.0 L 309.0 186.5 L 308.5 187.0 L 302.5 187.0 Q 301.5 186.5 302.5 186.0 Z " /><path fill="rgb(192,211,211)" opacity="1" d="M 93.5 187.0 Q 94.8 187.8 94.0 190.5 Q 93.5 191.5 93.0 190.5 Q 92.3 187.8 93.5 187.0 Z " /><path fill="rgb(192,211,211)" opacity="1" d="M 133.5 187.0 Q 134.3 187.3 134.0 188.5 Q 133.4 189.4 132.0 189.5 Q 133.8 190.3 132.5 191.0 Q 131.3 191.3 131.0 190.5 L 131.0 189.5 L 133.5 187.0 Z " /><path fill="rgb(192,211,211)" opacity="1" d="M 170.5 187.0 L 171.0 187.5 L 171.0 196.5 Q 170.5 197.5 170.0 196.5 L 170.0 187.5 L 170.5 187.0 Z " /><path fill="rgb(192,211,211)" opacity="1" d="M 186.5 187.0 Q 187.8 187.8 187.0 190.5 Q 186.5 191.5 186.0 190.5 Q 185.3 187.8 186.5 187.0 Z " /><path fill="rgb(192,211,211)" opacity="1" d="M 287.5 187.0 Q 289.3 188.3 288.0 192.5 Q 287.0 195.0 286.0 193.5 L 287.0 192.5 Q 285.8 188.3 287.5 187.0 Z " /><path fill="rgb(192,211,211)" opacity="1" d="M 300.5 187.0 L 301.0 187.5 L 301.0 198.5 Q 300.5 199.5 300.0 198.5 L 300.0 187.5 L 300.5 187.0 Z " /><path fill="rgb(192,211,211)" opacity="1" d="M 209.5 188.0 Q 212.3 187.3 213.0 188.5 Q 212.3 189.8 209.5 189.0 Q 208.5 188.5 209.5 188.0 Z " /><path fill="rgb(192,211,211)" opacity="1" d="M 303.5 188.0 Q 305.5 187.5 306.0 188.5 Q 305.5 189.5 303.5 189.0 Q 302.5 188.5 303.5 188.0 Z " /><path fill="rgb(192,211,211)" opacity="1" d="M 155.5 189.0 Q 156.3 190.3 158.0 190.5 Q 157.8 191.3 156.5 191.0 Q 154.0 190.0 155.5 189.0 Z " /><path fill="rgb(192,211,211)" opacity="1" d="M 165.5 189.0 Q 167.3 190.3 166.0 194.5 Q 165.5 195.5 165.0 194.5 L 165.0 189.5 L 165.5 189.0 Z " /><path fill="rgb(192,211,211)" opacity="1" d="M 237.5 189.0 L 243.5 189.0 L 244.0 189.5 L 243.5 190.0 L 237.5 190.0 Q 236.5 189.5 237.5 189.0 Z " /><path fill="rgb(192,211,211)" opacity="1" d="M 140.5 190.0 L 147.5 190.0 L 148.0 190.5 L 147.5 191.0 L 140.5 191.0 Q 139.5 190.5 140.5 190.0 Z " /><path fill="rgb(192,211,211)" opacity="1" d="M 226.5 190.0 Q 227.5 190.5 227.0 192.5 Q 225.8 193.3 225.5 195.0 Q 224.5 194.5 225.0 192.5 Q 226.3 191.8 226.5 190.0 Z " /><path fill="rgb(192,211,211)" opacity="1" d="M 308.5 190.0 Q 309.8 189.8 310.0 190.5 Q 310.3 191.8 309.5 192.0 L 304.5 192.0 L 304.0 191.5 Q 304.8 190.3 307.5 191.0 L 308.5 190.0 Z " /><path fill="rgb(192,211,211)" opacity="1" d="M 86.5 191.0 Q 87.0 193.5 89.0 194.5 L 88.5 195.0 L 87.5 194.0 Q 86.8 195.8 86.0 194.5 Q 85.3 191.8 86.5 191.0 Z " /><path fill="rgb(192,211,211)" opacity="1" d="M 124.5 191.0 Q 124.8 192.3 126.5 192.0 Q 126.8 190.8 128.5 191.0 Q 129.5 191.5 128.5 192.0 Q 126.3 191.8 125.5 193.0 Q 123.0 192.0 124.5 191.0 Z " /><path fill="rgb(192,211,211)" opacity="1" d="M 241.5 191.0 Q 243.5 190.5 244.0 191.5 Q 243.5 192.5 241.5 192.0 Q 240.5 191.5 241.5 191.0 Z " /><path fill="rgb(192,211,211)" opacity="1" d="M 95.5 192.0 Q 97.3 192.3 97.0 194.5 Q 96.5 195.5 96.0 194.5 Q 96.3 192.8 95.0 192.5 L 95.5 192.0 Z " /><path fill="rgb(192,211,211)" opacity="1" d="M 252.5 192.0 Q 253.8 192.8 253.0 195.5 Q 252.5 196.5 252.0 195.5 Q 251.3 192.8 252.5 192.0 Z " /><path fill="rgb(192,211,211)" opacity="1" d="M 93.5 193.0 L 94.0 193.5 L 94.0 198.5 Q 93.5 199.5 93.0 198.5 Q 91.8 194.3 93.5 193.0 Z " /><path fill="rgb(192,211,211)" opacity="1" d="M 161.5 193.0 Q 162.5 193.5 162.0 195.5 Q 160.0 196.5 162.0 197.5 Q 162.3 198.8 161.5 199.0 Q 160.6 198.4 160.5 197.0 Q 157.8 197.8 157.0 196.5 L 157.5 196.0 Q 160.3 196.8 161.0 195.5 Q 160.5 193.5 161.5 193.0 Z " /><path fill="rgb(192,211,211)" opacity="1" d="M 186.5 193.0 Q 188.3 194.3 187.0 198.5 Q 186.5 199.5 186.0 198.5 Q 184.8 194.3 186.5 193.0 Z " /><path fill="rgb(192,211,211)" opacity="1" d="M 302.5 193.0 L 309.5 193.0 L 310.0 193.5 L 309.5 194.0 L 302.5 194.0 Q 301.5 193.5 302.5 193.0 Z " /><path fill="rgb(192,211,211)" opacity="1" d="M 109.5 194.0 Q 111.5 193.5 112.0 194.5 Q 111.5 195.5 109.5 195.0 Q 108.5 194.5 109.5 194.0 Z " /><path fill="rgb(192,211,211)" opacity="1" d="M 149.5 194.0 Q 151.0 195.0 148.5 196.0 Q 146.5 196.5 146.0 195.5 Q 148.6 195.6 149.5 194.0 Z " /><path fill="rgb(192,211,211)" opacity="1" d="M 256.5 194.0 Q 259.3 193.3 260.0 194.5 Q 259.3 195.8 256.5 195.0 Q 255.5 194.5 256.5 194.0 Z " /><path fill="rgb(192,211,211)" opacity="1" d="M 137.5 195.0 Q 140.3 194.3 141.0 195.5 Q 140.3 196.8 137.5 196.0 Q 136.5 195.5 137.5 195.0 Z " /><path fill="rgb(192,211,211)" opacity="1" d="M 144.5 195.0 Q 145.5 195.5 145.0 197.5 Q 144.5 198.5 144.0 197.5 Q 143.5 195.5 144.5 195.0 Z " /><path fill="rgb(192,211,211)" opacity="1" d="M 151.5 195.0 Q 152.8 195.8 152.0 198.5 Q 151.5 199.5 151.0 198.5 Q 150.3 195.8 151.5 195.0 Z " /><path fill="rgb(192,211,211)" opacity="1" d="M 97.5 196.0 L 103.5 196.0 L 104.0 196.5 L 103.5 197.0 L 97.5 197.0 Q 96.5 196.5 97.5 196.0 Z " /><path fill="rgb(192,211,211)" opacity="1" d="M 83.5 197.0 Q 86.3 196.3 87.0 197.5 Q 86.3 198.8 83.5 198.0 Q 82.5 197.5 83.5 197.0 Z " /><path fill="rgb(101,164,161)" opacity="1" d="M 222.5 22.0 Q 227.3 21.3 228.0 24.5 L 228.0 26.5 Q 225.3 28.3 224.0 31.5 L 224.0 33.5 Q 222.6 34.6 222.0 36.5 L 222.0 38.5 Q 224.3 41.7 228.0 43.5 Q 227.8 45.8 229.5 46.0 L 230.5 46.0 L 234.0 49.5 Q 234.3 50.8 233.5 51.0 L 229.5 51.0 L 222.5 44.0 L 222.0 44.5 L 222.0 50.5 L 221.5 51.0 L 215.5 51.0 L 215.0 50.5 L 215.0 36.5 Q 216.8 35.8 216.0 32.5 L 217.0 31.5 L 217.0 30.5 Q 219.5 28.5 220.0 24.5 L 222.5 22.0 Z " /><path fill="rgb(101,164,161)" opacity="1" d="M 227.5 32.0 Q 237.5 39.5 245.5 49.0 Q 247.3 45.4 252.5 45.0 Q 255.5 45.5 255.0 49.5 Q 251.6 54.0 246.5 57.0 Q 245.3 58.3 242.5 58.0 L 241.5 59.0 L 239.5 59.0 L 238.5 60.0 L 236.5 60.0 L 235.5 61.0 L 202.5 61.0 L 201.5 62.0 L 199.5 62.0 L 198.5 63.0 L 196.5 63.0 Q 195.3 64.8 192.5 65.0 L 190.0 67.5 L 190.0 68.5 Q 193.5 70.0 194.5 74.0 Q 195.8 71.8 197.0 74.5 Q 196.8 76.8 198.5 77.0 L 199.5 77.0 L 212.5 90.0 L 214.5 90.0 Q 215.1 87.0 217.0 85.5 L 217.0 83.5 L 218.0 82.5 Q 217.5 79.0 219.0 77.5 L 208.5 67.0 Q 206.3 67.3 206.0 65.5 Q 205.8 64.3 206.5 64.0 L 210.5 64.0 L 217.5 71.0 Q 220.3 69.8 218.0 68.5 Q 217.0 65.0 218.5 64.0 Q 223.8 62.8 225.0 65.5 Q 224.3 68.8 226.0 69.5 L 226.0 78.5 L 225.0 79.5 L 225.0 83.5 L 224.0 84.5 L 224.0 86.5 L 223.0 87.5 Q 223.3 90.3 222.0 91.5 Q 218.7 97.2 213.5 101.0 Q 212.8 99.3 212.0 100.5 Q 212.3 102.8 210.5 103.0 Q 208.3 102.8 207.5 104.0 Q 206.8 102.3 206.0 103.5 Q 206.3 104.8 205.5 105.0 Q 204.5 103.0 200.5 104.0 Q 199.5 104.5 200.5 105.0 Q 203.3 104.3 204.0 105.5 Q 203.3 106.8 200.5 106.0 Q 200.0 104.5 197.5 105.0 Q 196.5 105.5 197.5 106.0 Q 198.8 105.8 199.0 106.5 Q 198.5 107.5 196.5 107.0 Q 195.8 105.8 194.0 105.5 Q 194.3 104.3 193.5 104.0 Q 190.0 103.0 189.0 104.5 Q 190.8 105.3 189.5 106.0 L 183.5 106.0 L 182.5 107.0 L 169.5 107.0 Q 168.5 106.5 169.5 106.0 L 181.5 106.0 Q 182.3 104.8 184.0 104.5 Q 181.8 103.3 184.5 102.0 L 192.5 102.0 L 193.0 101.5 L 192.5 101.0 L 184.5 101.0 L 184.0 100.5 L 184.5 100.0 L 194.5 100.0 Q 195.8 102.3 200.5 101.0 Q 201.5 100.5 200.5 100.0 Q 197.8 100.8 197.0 99.5 Q 198.0 98.0 201.5 99.0 L 202.5 98.0 Q 205.0 98.5 205.5 97.0 Q 206.3 98.8 207.0 97.5 Q 206.8 95.3 208.5 95.0 Q 210.8 95.3 211.0 93.5 Q 198.6 82.9 187.5 71.0 L 186.5 71.0 L 184.0 73.5 L 184.0 75.5 Q 182.4 76.4 182.5 79.0 Q 181.6 78.4 181.5 77.0 Q 180.9 79.9 178.5 81.0 L 178.0 80.5 L 178.0 73.5 L 177.0 72.5 Q 179.5 66.0 184.5 62.0 L 185.5 62.0 Q 188.0 58.5 192.5 57.0 L 194.5 57.0 L 195.5 56.0 Q 198.0 56.5 198.5 55.0 L 201.5 55.0 L 202.5 54.0 L 234.5 54.0 L 235.5 53.0 L 237.5 53.0 L 238.5 52.0 Q 241.3 52.8 242.0 51.5 L 242.0 50.5 L 238.5 47.0 L 237.5 47.0 L 226.0 35.5 L 226.0 34.5 Q 227.3 33.8 227.5 32.0 Z " /><path fill="rgb(101,164,161)" opacity="1" d="M 155.5 39.0 Q 158.0 38.5 158.5 40.0 L 163.5 40.0 Q 164.3 41.8 167.5 41.0 Q 168.3 39.3 171.5 40.0 L 172.5 41.0 L 175.5 41.0 L 176.5 42.0 L 178.5 42.0 L 179.5 43.0 L 181.5 43.0 Q 182.0 44.5 184.5 44.0 Q 186.8 47.2 191.5 48.0 L 195.0 51.5 Q 193.6 53.6 190.5 54.0 L 188.5 52.0 L 187.5 52.0 Q 185.7 49.8 182.5 49.0 L 180.5 49.0 Q 179.4 47.6 177.5 47.0 L 174.5 47.0 L 173.5 46.0 Q 170.3 46.8 169.5 45.0 L 161.5 45.0 L 160.0 46.5 L 160.0 57.5 L 159.0 58.5 L 159.0 76.5 L 158.5 77.0 Q 158.6 74.4 157.0 73.5 Q 158.3 73.3 158.0 71.5 L 157.0 70.5 L 157.0 52.5 L 156.5 52.0 L 156.0 52.5 L 156.0 83.5 L 155.5 84.0 L 155.0 83.5 L 155.0 39.5 L 155.5 39.0 Z " /><path fill="rgb(101,164,161)" opacity="1" d="M 145.5 49.0 Q 149.8 47.8 151.0 49.5 L 151.0 101.5 L 150.5 102.0 L 150.0 101.5 L 150.0 50.5 L 149.5 50.0 Q 146.8 49.3 146.0 50.5 L 146.0 103.5 L 146.5 104.0 Q 147.3 102.3 148.0 103.5 Q 147.8 105.3 145.5 105.0 L 145.0 104.5 L 145.0 49.5 L 145.5 49.0 Z " /><path fill="rgb(101,164,161)" opacity="1" d="M 147.5 51.0 Q 148.8 50.8 149.0 51.5 L 149.0 72.5 L 148.5 73.0 Q 148.3 71.3 147.0 70.5 L 147.0 51.5 L 147.5 51.0 Z " /><path fill="rgb(101,164,161)" opacity="1" d="M 254.5 56.0 L 255.0 56.5 L 255.0 124.5 Q 254.8 125.3 253.5 125.0 L 252.5 124.0 L 243.5 124.0 L 242.5 123.0 L 234.5 123.0 Q 233.3 125.3 228.5 124.0 L 227.5 123.0 L 224.5 123.0 Q 223.6 121.4 221.0 121.5 L 221.5 121.0 Q 224.3 121.8 225.0 120.5 Q 224.2 119.3 222.0 119.5 L 222.5 119.0 L 228.5 119.0 L 229.5 118.0 L 246.5 118.0 Q 246.8 119.3 248.5 119.0 L 249.0 118.5 L 249.0 67.5 Q 251.3 66.3 250.0 61.5 L 249.0 60.5 L 251.5 58.0 Q 254.3 58.3 254.5 56.0 Z " /><path fill="rgb(101,164,161)" opacity="1" d="M 160.5 61.0 Q 162.3 62.3 161.0 66.5 Q 160.5 67.5 160.0 66.5 Q 158.8 62.3 160.5 61.0 Z " /><path fill="rgb(101,164,161)" opacity="1" d="M 244.5 62.0 L 245.0 62.5 L 245.0 113.5 L 244.5 114.0 L 233.5 114.0 Q 233.0 115.5 230.5 115.0 Q 230.3 112.8 227.5 113.0 Q 225.0 114.0 226.5 115.0 Q 227.8 114.8 228.0 115.5 Q 224.5 115.5 222.5 117.0 Q 222.3 115.8 220.5 116.0 L 220.0 116.5 Q 221.8 117.3 220.5 118.0 Q 218.8 117.8 218.5 119.0 L 218.0 118.5 Q 219.8 117.8 218.5 117.0 L 217.5 117.0 Q 216.8 118.3 215.0 118.5 Q 215.6 119.4 217.0 119.5 Q 216.4 120.4 215.0 120.5 Q 216.8 120.8 217.5 122.0 L 219.5 122.0 Q 221.3 124.2 225.0 124.5 Q 224.0 126.0 220.5 125.0 Q 220.3 126.3 218.5 126.0 Q 217.8 124.3 214.5 125.0 L 213.5 126.0 L 206.5 126.0 Q 205.8 125.8 206.0 124.5 Q 206.3 123.8 207.5 124.0 Q 208.5 126.0 212.5 125.0 Q 213.3 124.8 213.0 123.5 Q 212.3 122.3 211.5 124.0 Q 210.3 124.3 210.0 123.5 Q 209.8 121.3 211.0 120.5 Q 209.3 119.8 210.5 119.0 Q 211.8 119.3 212.0 118.5 Q 212.3 116.8 211.0 116.5 Q 211.8 115.3 212.5 117.0 Q 215.3 117.8 216.0 116.5 Q 216.3 114.8 215.0 114.5 Q 217.9 114.0 219.5 112.0 L 221.5 112.0 L 222.5 111.0 L 225.5 111.0 L 226.5 110.0 L 230.5 110.0 Q 231.3 108.3 234.5 109.0 Q 235.3 110.8 238.5 110.0 Q 239.5 109.5 238.5 109.0 Q 236.5 109.5 236.0 108.5 Q 236.8 107.3 239.5 108.0 L 241.0 106.5 L 241.0 100.5 L 240.5 100.0 L 240.0 100.5 Q 240.8 103.3 239.5 104.0 L 239.0 103.5 L 239.0 96.5 Q 239.5 95.5 240.0 96.5 Q 239.5 98.5 240.5 99.0 Q 242.0 98.0 241.0 94.5 L 240.0 93.5 L 240.0 65.5 L 241.0 64.5 Q 239.3 63.8 240.5 63.0 Q 243.8 63.8 244.5 62.0 Z M 215.0 122.0 Q 214.0 123.0 215.0 123.0 Q 216.0 123.0 217.0 123.0 Q 216.0 121.0 215.0 122.0 Z " /><path fill="rgb(101,164,161)" opacity="1" d="M 198.5 65.0 Q 198.8 67.3 201.5 67.0 L 215.0 80.5 Q 215.5 83.5 213.5 84.0 Q 210.3 79.3 205.0 76.5 Q 205.3 74.3 203.5 74.0 L 202.5 74.0 L 196.0 67.5 Q 195.8 66.3 196.5 66.0 Q 198.3 66.3 198.5 65.0 Z " /><path fill="rgb(101,164,161)" opacity="1" d="M 160.5 69.0 L 161.0 69.5 L 161.0 94.5 Q 160.5 95.5 160.0 94.5 L 160.0 69.5 L 160.5 69.0 Z " /><path fill="rgb(101,164,161)" opacity="1" d="M 175.5 77.0 Q 176.5 77.5 176.0 79.5 Q 175.5 80.5 175.0 79.5 Q 174.5 77.5 175.5 77.0 Z " /><path fill="rgb(101,164,161)" opacity="1" d="M 186.5 77.0 L 194.0 84.5 Q 193.8 85.8 194.5 86.0 L 195.5 85.0 L 204.0 93.5 Q 204.3 94.8 203.5 95.0 Q 201.8 94.8 201.5 96.0 Q 201.3 94.8 199.5 95.0 L 185.0 80.5 Q 184.5 77.5 186.5 77.0 Z M 187.0 78.0 Q 186.0 78.0 186.0 80.0 Q 186.0 80.0 188.0 80.0 Q 189.0 79.0 187.0 78.0 Z " /><path fill="rgb(101,164,161)" opacity="1" d="M 181.5 81.0 Q 181.5 87.0 186.0 88.5 Q 181.8 90.8 186.5 93.0 Q 187.0 91.5 189.5 92.0 Q 191.3 92.3 191.0 94.5 Q 190.4 95.4 189.0 95.5 Q 190.8 96.3 189.5 97.0 Q 185.9 91.6 180.0 88.5 Q 180.6 87.6 182.0 87.5 Q 182.5 85.5 181.5 85.0 Q 181.3 86.3 179.5 86.0 Q 178.8 84.8 177.0 84.5 Q 178.3 81.8 179.5 84.0 Q 180.8 84.3 181.0 83.5 Q 180.5 81.5 181.5 81.0 Z " /><path fill="rgb(101,164,161)" opacity="1" d="M 174.5 82.0 L 175.0 82.5 L 175.0 92.5 Q 174.5 93.5 174.0 92.5 L 174.0 82.5 L 174.5 82.0 Z " /><path fill="rgb(101,164,161)" opacity="1" d="M 176.5 91.0 Q 177.8 90.8 178.0 91.5 Q 176.4 92.4 176.5 95.0 Q 174.9 93.9 176.5 91.0 Z " /><path fill="rgb(101,164,161)" opacity="1" d="M 181.5 91.0 Q 182.8 91.8 182.0 94.5 Q 181.3 95.8 178.5 95.0 Q 177.5 94.5 178.5 94.0 Q 180.5 94.5 181.0 93.5 Q 180.5 91.5 181.5 91.0 Z " /><path fill="rgb(101,164,161)" opacity="1" d="M 192.5 94.0 L 195.0 96.5 L 194.5 97.0 L 192.0 94.5 L 192.5 94.0 Z " /><path fill="rgb(101,164,161)" opacity="1" d="M 175.5 96.0 L 181.5 96.0 L 182.0 96.5 L 181.5 97.0 L 175.5 97.0 Q 174.5 96.5 175.5 96.0 Z " /><path fill="rgb(101,164,161)" opacity="1" d="M 164.5 100.0 Q 166.5 99.5 167.0 100.5 Q 166.5 101.5 164.5 101.0 Q 163.5 100.5 164.5 100.0 Z " /><path fill="rgb(101,164,161)" opacity="1" d="M 170.5 110.0 L 176.0 115.5 L 175.5 116.0 L 170.0 110.5 L 170.5 110.0 Z " /><path fill="rgb(101,164,161)" opacity="1" d="M 178.5 110.0 L 184.5 110.0 L 185.0 110.5 L 184.5 111.0 L 178.5 111.0 Q 177.5 110.5 178.5 110.0 Z " /><path fill="rgb(101,164,161)" opacity="1" d="M 145.5 111.0 Q 146.5 111.5 146.0 113.5 Q 145.5 114.5 145.0 113.5 Q 144.5 111.5 145.5 111.0 Z " /><path fill="rgb(101,164,161)" opacity="1" d="M 153.5 112.0 L 154.5 112.0 L 157.0 114.5 L 156.5 115.0 L 154.5 113.0 L 153.5 113.0 L 150.5 116.0 L 147.5 116.0 Q 146.5 115.5 147.5 115.0 Q 152.8 115.8 153.5 112.0 Z " /><path fill="rgb(101,164,161)" opacity="1" d="M 168.5 113.0 L 178.0 122.5 L 177.5 123.0 L 168.0 113.5 L 168.5 113.0 Z " /><path fill="rgb(101,164,161)" opacity="1" d="M 162.5 114.0 L 174.0 125.5 L 174.0 126.5 Q 173.5 127.5 173.0 126.5 L 173.0 125.5 L 162.0 114.5 L 162.5 114.0 Z " /><path fill="rgb(101,164,161)" opacity="1" d="M 189.5 117.0 Q 191.8 116.8 192.0 118.5 L 191.5 119.0 Q 190.8 117.3 190.0 118.5 Q 191.0 122.0 189.5 123.0 L 189.0 122.5 Q 187.8 118.3 189.5 117.0 Z " /><path fill="rgb(101,164,161)" opacity="1" d="M 206.5 119.0 L 207.0 119.5 L 204.5 122.0 L 204.0 121.5 L 206.5 119.0 Z " /><path fill="rgb(101,164,161)" opacity="1" d="M 165.5 122.0 L 171.5 128.0 Q 172.8 127.8 173.0 128.5 Q 172.8 129.3 171.5 129.0 L 165.0 122.5 L 165.5 122.0 Z " /><path fill="rgb(101,164,161)" opacity="1" d="M 188.5 125.0 Q 189.5 125.5 189.0 127.5 Q 188.5 128.5 188.0 127.5 Q 187.5 125.5 188.5 125.0 Z " /><path fill="rgb(101,164,161)" opacity="1" d="M 208.5 127.0 Q 209.3 128.3 211.0 128.5 Q 210.8 129.3 209.5 129.0 Q 207.0 128.0 208.5 127.0 Z " /><path fill="rgb(101,164,161)" opacity="1" d="M 198.5 132.0 Q 201.3 131.3 202.0 132.5 Q 201.3 133.8 198.5 133.0 Q 197.5 132.5 198.5 132.0 Z " /><path fill="rgb(101,164,161)" opacity="1" d="M 173.5 133.0 Q 174.8 133.8 173.0 134.5 Q 173.3 135.8 172.5 136.0 Q 171.8 135.8 172.0 134.5 L 173.5 133.0 Z " /><path fill="rgb(101,164,161)" opacity="1" d="M 172.5 137.0 Q 173.6 139.4 177.0 139.5 Q 176.5 140.5 174.5 140.0 L 172.0 137.5 L 172.5 137.0 Z " /><path fill="rgb(101,164,161)" opacity="1" d="M 152.5 146.0 Q 153.5 146.5 153.0 148.5 Q 152.5 149.5 152.0 148.5 Q 151.5 146.5 152.5 146.0 Z " /><path fill="rgb(101,164,161)" opacity="1" d="M 219.5 146.0 L 220.0 146.5 L 220.0 160.5 Q 219.5 161.5 219.0 160.5 L 219.0 146.5 L 219.5 146.0 Z " /><path fill="rgb(101,164,161)" opacity="1" d="M 177.5 150.0 L 179.0 151.5 L 176.5 154.0 L 176.0 153.5 L 178.0 151.5 Q 176.3 150.8 177.5 150.0 Z " /><path fill="rgb(101,164,161)" opacity="1" d="M 183.5 150.0 Q 185.5 149.5 186.0 150.5 Q 185.5 151.5 183.5 151.0 Q 182.5 150.5 183.5 150.0 Z " /><path fill="rgb(101,164,161)" opacity="1" d="M 228.5 150.0 L 242.5 150.0 L 243.0 150.5 Q 239.5 150.5 237.5 152.0 Q 237.0 150.5 234.5 151.0 Q 234.3 152.3 232.5 152.0 Q 231.8 150.3 228.5 151.0 Q 227.5 150.5 228.5 150.0 Z " /><path fill="rgb(101,164,161)" opacity="1" d="M 153.5 152.0 Q 157.3 151.3 158.0 153.5 Q 158.3 154.8 157.5 155.0 Q 156.6 154.4 156.5 153.0 Q 153.8 152.3 153.0 153.5 Q 153.3 154.8 152.5 155.0 Q 151.8 154.8 152.0 153.5 L 153.5 152.0 Z " /><path fill="rgb(101,164,161)" opacity="1" d="M 187.5 153.0 Q 187.8 154.8 189.0 155.5 Q 188.0 157.0 187.0 154.5 Q 186.8 153.3 187.5 153.0 Z " /><path fill="rgb(101,164,161)" opacity="1" d="M 169.5 154.0 Q 171.5 153.5 172.0 154.5 Q 171.5 155.5 169.5 155.0 Q 168.5 154.5 169.5 154.0 Z " /><path fill="rgb(101,164,161)" opacity="1" d="M 176.5 157.0 L 177.5 158.0 L 185.5 158.0 Q 186.5 156.0 187.5 158.0 L 190.5 158.0 Q 191.3 156.3 194.5 157.0 Q 195.3 157.3 195.0 158.5 L 194.5 159.0 L 177.5 159.0 Q 175.0 158.0 176.5 157.0 Z " /><path fill="rgb(101,164,161)" opacity="1" d="M 148.5 158.0 L 161.5 158.0 L 162.0 158.5 L 161.5 159.0 L 148.5 159.0 Q 147.5 158.5 148.5 158.0 Z " /><path fill="rgb(101,164,161)" opacity="1" d="M 216.5 158.0 Q 217.5 158.5 217.0 160.5 Q 216.5 161.5 216.0 160.5 Q 215.5 158.5 216.5 158.0 Z " /><path fill="rgb(101,164,161)" opacity="1" d="M 165.5 159.0 Q 166.4 160.6 169.0 160.5 L 168.5 161.0 L 162.5 161.0 Q 161.5 160.5 162.5 160.0 Q 165.0 160.5 165.5 159.0 Z " /><path fill="rgb(101,164,161)" opacity="1" d="M 150.5 160.0 L 160.5 160.0 L 161.0 160.5 L 160.5 161.0 L 150.5 161.0 Q 149.5 160.5 150.5 160.0 Z " /><path fill="rgb(101,164,161)" opacity="1" d="M 176.5 161.0 L 190.5 161.0 L 191.0 161.5 Q 191.3 162.8 190.5 163.0 L 176.5 163.0 L 176.0 162.5 Q 175.8 161.3 176.5 161.0 Z " /><path fill="rgb(101,164,161)" opacity="1" d="M 245.5 161.0 Q 247.5 160.5 248.0 161.5 Q 247.5 162.5 245.5 162.0 Q 244.5 161.5 245.5 161.0 Z " /><path fill="rgb(101,164,161)" opacity="1" d="M 214.5 163.0 Q 216.5 162.5 217.0 163.5 Q 216.5 164.5 214.5 164.0 Q 213.5 163.5 214.5 163.0 Z " /><path fill="rgb(101,164,161)" opacity="1" d="M 219.5 163.0 Q 221.3 164.3 220.0 168.5 Q 219.5 169.5 219.0 168.5 Q 219.3 165.7 218.0 164.5 L 219.5 163.0 Z " /><path fill="rgb(101,164,161)" opacity="1" d="M 164.5 166.0 Q 165.7 166.8 165.5 169.0 Q 168.3 168.3 169.0 169.5 Q 168.3 170.8 165.5 170.0 Q 163.0 169.0 164.5 166.0 Z " /><path fill="rgb(101,164,161)" opacity="1" d="M 203.5 167.0 L 211.5 167.0 L 212.0 167.5 L 211.5 168.0 L 203.5 168.0 Q 202.5 167.5 203.5 167.0 Z " /><path fill="rgb(101,164,161)" opacity="1" d="M 245.5 169.0 Q 248.3 168.3 249.0 169.5 Q 248.3 170.8 245.5 170.0 Q 244.5 169.5 245.5 169.0 Z " /><path fill="rgb(101,164,161)" opacity="1" d="M 183.5 173.0 Q 186.3 172.3 187.0 173.5 Q 186.3 174.8 183.5 174.0 Q 182.5 173.5 183.5 173.0 Z " /><path fill="rgb(101,164,161)" opacity="1" d="M 198.5 173.0 L 199.0 173.5 L 199.0 181.5 L 199.5 182.0 Q 203.0 181.0 204.0 182.5 Q 203.0 184.0 199.5 183.0 L 198.0 181.5 L 198.0 173.5 L 198.5 173.0 Z " /><path fill="rgb(101,164,161)" opacity="1" d="M 212.5 173.0 L 213.0 173.5 L 213.0 181.5 L 214.0 182.5 Q 213.0 184.0 212.0 181.5 L 212.0 173.5 L 212.5 173.0 Z " /><path fill="rgb(101,164,161)" opacity="1" d="M 190.5 179.0 Q 193.3 178.3 194.0 179.5 Q 194.3 180.8 193.5 181.0 Q 191.3 181.2 190.5 180.0 Q 189.5 179.5 190.5 179.0 Z " /><path fill="rgb(101,164,161)" opacity="1" d="M 205.5 181.0 Q 206.3 182.3 208.0 182.5 Q 207.8 183.3 206.5 183.0 Q 204.0 182.0 205.5 181.0 Z " /><path fill="rgb(101,164,161)" opacity="1" d="M 92.5 186.0 Q 93.8 186.8 92.0 187.5 L 92.0 198.5 L 91.5 199.0 Q 91.1 196.9 89.5 196.0 Q 86.8 196.8 86.0 195.5 L 86.5 195.0 Q 90.0 196.0 91.0 194.5 L 91.0 187.5 L 92.5 186.0 Z " /><path fill="rgb(101,164,161)" opacity="1" d="M 98.5 186.0 Q 100.0 187.0 97.5 188.0 Q 95.5 188.5 95.0 187.5 Q 97.6 187.6 98.5 186.0 Z " /><path fill="rgb(101,164,161)" opacity="1" d="M 111.5 186.0 L 116.5 186.0 L 117.0 186.5 Q 115.8 188.3 111.5 187.0 Q 110.5 186.5 111.5 186.0 Z " /><path fill="rgb(101,164,161)" opacity="1" d="M 128.5 186.0 Q 129.4 187.6 132.0 187.5 Q 131.8 188.8 132.5 189.0 Q 134.8 189.3 135.0 187.5 Q 133.3 186.8 134.5 186.0 Q 137.0 187.0 136.0 191.5 Q 134.8 191.8 135.0 193.5 Q 136.3 193.8 136.0 195.5 Q 134.0 196.5 136.0 197.5 Q 136.3 198.8 135.5 199.0 L 126.5 199.0 L 126.0 198.5 Q 125.7 195.7 127.0 194.5 Q 125.3 193.8 126.5 193.0 L 133.5 193.0 L 134.0 192.5 L 134.0 191.5 L 131.5 189.0 Q 129.5 188.5 129.0 189.5 Q 131.1 189.9 132.0 191.5 Q 131.5 192.5 129.5 192.0 Q 129.3 190.8 127.5 191.0 Q 127.3 192.3 125.5 192.0 Q 124.0 191.0 126.5 190.0 Q 127.8 190.3 128.0 189.5 Q 127.2 188.3 125.0 188.5 Q 124.8 187.3 125.5 187.0 Q 128.0 187.5 128.5 186.0 Z " /><path fill="rgb(101,164,161)" opacity="1" d="M 153.5 186.0 Q 157.0 186.5 158.5 189.0 Q 160.1 188.1 160.5 186.0 L 161.0 186.5 L 161.0 195.5 L 160.5 196.0 Q 157.8 195.3 157.0 196.5 L 157.5 197.0 Q 160.3 196.3 161.0 197.5 Q 161.3 198.8 160.5 199.0 L 152.5 199.0 L 152.0 198.5 Q 150.8 194.3 152.5 193.0 L 159.5 193.0 L 160.0 192.5 Q 160.3 191.3 159.5 191.0 Q 158.3 192.3 155.5 192.0 Q 155.3 190.8 153.5 191.0 Q 153.0 192.5 150.5 192.0 Q 149.5 191.5 150.5 191.0 Q 152.8 191.3 153.0 189.5 Q 152.4 188.6 151.0 188.5 Q 150.8 187.3 151.5 187.0 Q 153.3 187.3 153.5 186.0 Z M 156.0 189.0 Q 154.0 190.0 157.0 191.0 Q 158.0 191.0 158.0 191.0 Q 158.0 189.0 156.0 189.0 Z " /><path fill="rgb(101,164,161)" opacity="1" d="M 254.5 186.0 Q 255.4 187.6 258.0 187.5 Q 257.8 188.8 258.5 189.0 Q 259.8 189.3 260.0 188.5 Q 259.5 186.5 260.5 186.0 Q 263.0 187.0 262.0 191.5 Q 260.0 192.5 262.0 193.5 Q 262.5 196.0 261.0 196.5 Q 262.3 196.8 262.0 198.5 L 261.5 199.0 L 253.5 199.0 Q 251.8 198.8 252.0 196.5 Q 253.6 195.6 253.5 193.0 L 259.5 193.0 L 260.0 192.5 L 260.0 191.5 L 257.5 189.0 Q 256.3 188.8 256.0 189.5 L 258.0 191.5 L 257.5 192.0 Q 255.3 192.2 254.5 191.0 Q 253.4 192.4 251.5 193.0 Q 250.8 192.8 251.0 191.5 Q 251.9 189.9 254.0 189.5 Q 253.2 188.3 251.0 188.5 Q 250.8 187.3 251.5 187.0 Q 254.0 187.5 254.5 186.0 Z M 257.0 194.0 Q 256.0 195.0 257.0 195.0 Q 259.0 196.0 260.0 195.0 Q 259.0 193.0 257.0 194.0 Z " /><path fill="rgb(101,164,161)" opacity="1" d="M 299.5 186.0 Q 300.8 186.8 299.0 187.5 Q 299.8 190.3 298.5 191.0 Q 297.3 190.3 298.0 187.5 L 299.5 186.0 Z " /><path fill="rgb(101,164,161)" opacity="1" d="M 163.5 187.0 L 164.0 187.5 L 164.0 196.5 Q 163.5 197.5 163.0 196.5 L 163.0 187.5 L 163.5 187.0 Z " /><path fill="rgb(101,164,161)" opacity="1" d="M 166.5 188.0 Q 168.8 187.8 169.0 189.5 Q 170.3 194.8 167.5 196.0 Q 165.5 196.5 165.0 195.5 Q 165.8 194.3 168.0 194.5 L 168.0 189.5 L 167.5 189.0 Q 165.1 188.9 166.5 188.0 Z " /><path fill="rgb(101,164,161)" opacity="1" d="M 184.5 188.0 L 185.0 188.5 L 185.0 198.5 Q 184.5 199.5 184.0 198.5 L 184.0 188.5 L 184.5 188.0 Z " /><path fill="rgb(101,164,161)" opacity="1" d="M 189.5 188.0 Q 191.5 187.5 192.0 188.5 Q 191.5 189.5 189.5 189.0 Q 188.5 188.5 189.5 188.0 Z " /><path fill="rgb(101,164,161)" opacity="1" d="M 219.5 188.0 L 220.0 188.5 L 220.0 195.5 Q 218.0 196.5 220.0 197.5 Q 220.3 198.8 219.5 199.0 Q 218.6 198.4 218.5 197.0 Q 214.3 198.3 213.0 196.5 L 213.5 196.0 L 218.5 196.0 L 219.0 195.5 L 219.0 188.5 L 219.5 188.0 Z " /><path fill="rgb(101,164,161)" opacity="1" d="M 222.5 188.0 Q 226.0 187.0 227.0 188.5 Q 226.0 190.0 222.5 189.0 Q 221.5 188.5 222.5 188.0 Z " /><path fill="rgb(101,164,161)" opacity="1" d="M 272.5 188.0 Q 274.0 189.0 271.5 190.0 Q 267.3 191.3 266.0 189.5 L 266.5 189.0 L 271.5 189.0 L 272.5 188.0 Z " /><path fill="rgb(101,164,161)" opacity="1" d="M 308.5 188.0 L 311.0 190.5 L 310.5 191.0 L 308.0 188.5 L 308.5 188.0 Z " /><path fill="rgb(101,164,161)" opacity="1" d="M 215.5 189.0 L 216.0 189.5 Q 214.3 190.3 215.5 191.0 Q 217.5 190.5 218.0 191.5 Q 217.5 192.5 215.5 192.0 Q 212.5 190.5 215.5 189.0 Z " /><path fill="rgb(101,164,161)" opacity="1" d="M 281.5 189.0 L 282.5 190.0 Q 283.3 188.3 284.0 189.5 L 281.5 192.0 L 280.0 190.5 L 281.5 189.0 Z " /><path fill="rgb(101,164,161)" opacity="1" d="M 289.5 189.0 Q 291.5 188.5 292.0 189.5 Q 291.5 190.5 289.5 190.0 Q 288.5 189.5 289.5 189.0 Z " /><path fill="rgb(101,164,161)" opacity="1" d="M 294.5 189.0 Q 296.5 188.5 297.0 189.5 Q 296.5 190.5 294.5 190.0 Q 293.5 189.5 294.5 189.0 Z " /><path fill="rgb(101,164,161)" opacity="1" d="M 302.5 189.0 Q 303.8 189.8 303.0 192.5 Q 302.5 193.5 302.0 192.5 Q 301.3 189.8 302.5 189.0 Z " /><path fill="rgb(101,164,161)" opacity="1" d="M 109.5 190.0 Q 110.6 191.4 112.5 192.0 L 119.5 192.0 L 120.0 192.5 L 119.5 193.0 L 108.5 193.0 Q 107.5 192.5 108.5 192.0 Q 109.8 192.3 110.0 191.5 Q 108.3 190.8 109.5 190.0 Z " /><path fill="rgb(101,164,161)" opacity="1" d="M 285.5 190.0 Q 286.8 190.8 286.0 193.5 Q 284.8 195.3 280.5 194.0 Q 279.5 193.5 280.5 193.0 Q 283.0 193.5 283.5 192.0 Q 284.3 193.8 285.0 192.5 Q 284.5 190.5 285.5 190.0 Z " /><path fill="rgb(101,164,161)" opacity="1" d="M 97.5 191.0 Q 98.3 192.3 100.0 192.5 Q 99.8 193.3 98.5 193.0 Q 96.0 192.0 97.5 191.0 Z " /><path fill="rgb(101,164,161)" opacity="1" d="M 148.5 191.0 L 149.0 191.5 L 148.0 192.5 Q 149.8 193.3 148.5 194.0 Q 145.0 194.5 143.5 193.0 Q 142.5 195.0 138.5 194.0 Q 137.0 193.0 139.5 192.0 Q 140.5 194.0 141.5 192.0 L 147.5 192.0 L 148.5 191.0 Z " /><path fill="rgb(101,164,161)" opacity="1" d="M 228.5 191.0 Q 229.5 191.5 229.0 193.5 Q 228.5 194.5 228.0 193.5 Q 227.5 191.5 228.5 191.0 Z " /><path fill="rgb(101,164,161)" opacity="1" d="M 233.5 191.0 Q 235.3 191.3 235.0 193.5 Q 234.5 194.5 234.0 193.5 Q 234.3 191.8 233.0 191.5 L 233.5 191.0 Z " /><path fill="rgb(101,164,161)" opacity="1" d="M 84.5 192.0 Q 85.5 192.5 85.0 194.5 Q 84.0 197.0 83.0 195.5 Q 84.6 194.6 84.5 192.0 Z " /><path fill="rgb(101,164,161)" opacity="1" d="M 102.5 192.0 L 103.0 192.5 Q 101.3 193.3 102.5 194.0 Q 104.3 194.3 104.5 193.0 Q 107.0 194.0 105.5 195.0 L 97.5 195.0 L 97.0 194.5 Q 97.8 193.3 100.5 194.0 L 102.5 192.0 Z " /><path fill="rgb(101,164,161)" opacity="1" d="M 263.5 192.0 L 264.5 193.0 L 274.5 193.0 L 275.0 193.5 Q 273.8 196.3 272.5 194.0 L 266.5 194.0 L 265.5 195.0 L 263.0 192.5 L 263.5 192.0 Z " /><path fill="rgb(101,164,161)" opacity="1" d="M 210.5 194.0 L 217.5 194.0 L 218.0 194.5 L 217.5 195.0 L 211.5 195.0 L 210.5 196.0 Q 209.4 195.4 210.5 194.0 Z " /><path fill="rgb(101,164,161)" opacity="1" d="M 303.5 194.0 Q 305.0 195.0 304.0 198.5 Q 303.5 199.5 303.0 198.5 Q 302.0 195.0 303.5 194.0 Z " /><path fill="rgb(101,164,161)" opacity="1" d="M 267.5 195.0 Q 270.3 194.3 271.0 195.5 Q 270.3 196.8 267.5 196.0 Q 266.5 195.5 267.5 195.0 Z " /><path fill="rgb(101,164,161)" opacity="1" d="M 306.5 195.0 Q 308.5 194.5 309.0 195.5 Q 308.5 196.5 306.5 196.0 Q 305.5 195.5 306.5 195.0 Z " /><path fill="rgb(101,164,161)" opacity="1" d="M 178.5 197.0 Q 180.5 196.5 181.0 197.5 Q 180.5 198.5 178.5 198.0 Q 177.5 197.5 178.5 197.0 Z " /><path fill="rgb(235,244,240)" opacity="1" d="M 228.5 24.0 Q 229.5 24.5 229.0 26.5 Q 228.0 29.0 227.0 27.5 Q 228.6 26.6 228.5 24.0 Z " /><path fill="rgb(235,244,240)" opacity="1" d="M 232.5 35.0 L 239.0 41.5 L 238.5 42.0 L 232.0 35.5 L 232.5 35.0 Z " /><path fill="rgb(235,244,240)" opacity="1" d="M 154.5 39.0 L 155.0 39.5 L 155.0 97.5 Q 154.5 98.5 154.0 97.5 L 154.0 39.5 L 154.5 39.0 Z " /><path fill="rgb(235,244,240)" opacity="1" d="M 231.5 41.0 L 238.0 47.5 L 237.5 48.0 L 231.0 41.5 L 231.5 41.0 Z " /><path fill="rgb(235,244,240)" opacity="1" d="M 223.5 45.0 L 230.0 51.5 L 229.5 52.0 L 223.5 46.0 Q 222.8 47.8 222.0 46.5 L 223.5 45.0 Z " /><path fill="rgb(235,244,240)" opacity="1" d="M 253.5 45.0 Q 256.5 45.5 256.0 49.5 Q 255.5 50.5 255.0 49.5 L 255.0 47.5 L 253.0 45.5 L 253.5 45.0 Z " /><path fill="rgb(235,244,240)" opacity="1" d="M 231.5 46.0 L 235.0 49.5 L 234.5 50.0 L 231.0 46.5 L 231.5 46.0 Z " /><path fill="rgb(235,244,240)" opacity="1" d="M 144.5 49.0 L 145.0 49.5 L 145.0 84.5 Q 144.5 85.5 144.0 84.5 L 144.0 49.5 L 144.5 49.0 Z " /><path fill="rgb(235,244,240)" opacity="1" d="M 218.5 51.0 Q 222.0 50.0 223.0 51.5 Q 222.0 53.0 218.5 52.0 Q 217.5 51.5 218.5 51.0 Z " /><path fill="rgb(235,244,240)" opacity="1" d="M 233.5 51.0 Q 236.5 50.5 237.0 52.5 Q 236.8 53.3 235.5 53.0 Q 234.8 51.8 233.0 51.5 L 233.5 51.0 Z " /><path fill="rgb(235,244,240)" opacity="1" d="M 219.5 53.0 L 230.5 53.0 L 231.0 53.5 L 230.5 54.0 L 219.5 54.0 Q 218.5 53.5 219.5 53.0 Z " /><path fill="rgb(235,244,240)" opacity="1" d="M 255.5 59.0 L 256.0 59.5 L 256.0 104.5 Q 255.5 105.5 255.0 104.5 L 255.0 59.5 L 255.5 59.0 Z " /><path fill="rgb(235,244,240)" opacity="1" d="M 216.5 61.0 Q 219.3 60.3 220.0 61.5 Q 219.3 62.8 216.5 62.0 Q 215.5 61.5 216.5 61.0 Z " /><path fill="rgb(235,244,240)" opacity="1" d="M 230.5 61.0 Q 233.3 60.3 234.0 61.5 Q 233.3 62.8 230.5 62.0 Q 229.5 61.5 230.5 61.0 Z " /><path fill="rgb(235,244,240)" opacity="1" d="M 244.5 61.0 L 246.0 62.5 L 246.0 113.5 Q 245.5 114.5 245.0 113.5 L 245.0 62.5 Q 243.3 61.8 244.5 61.0 Z " /><path fill="rgb(235,244,240)" opacity="1" d="M 195.5 66.0 Q 196.3 66.3 196.0 67.5 L 201.0 72.5 L 200.5 73.0 L 195.0 67.5 Q 194.8 66.3 195.5 66.0 Z " /><path fill="rgb(235,244,240)" opacity="1" d="M 202.5 67.0 L 209.0 73.5 L 208.5 74.0 L 202.0 67.5 L 202.5 67.0 Z " /><path fill="rgb(235,244,240)" opacity="1" d="M 200.5 77.0 L 203.0 79.5 L 202.5 80.0 L 200.0 77.5 L 200.5 77.0 Z " /><path fill="rgb(235,244,240)" opacity="1" d="M 194.5 78.0 L 201.0 84.5 L 200.5 85.0 L 194.0 78.5 L 194.5 78.0 Z " /><path fill="rgb(235,244,240)" opacity="1" d="M 144.5 86.0 L 145.0 86.5 L 145.0 101.5 Q 144.5 102.5 144.0 101.5 L 144.0 86.5 L 144.5 86.0 Z " /><path fill="rgb(235,244,240)" opacity="1" d="M 193.5 89.0 L 199.0 94.5 L 198.5 95.0 L 193.0 89.5 L 193.5 89.0 Z " /><path fill="rgb(235,244,240)" opacity="1" d="M 200.5 89.0 L 204.0 92.5 L 203.5 93.0 L 200.0 89.5 L 200.5 89.0 Z " /><path fill="rgb(235,244,240)" opacity="1" d="M 185.5 93.0 L 190.0 97.5 L 189.5 98.0 L 185.0 93.5 L 185.5 93.0 Z " /><path fill="rgb(235,244,240)" opacity="1" d="M 219.5 95.0 L 220.0 95.5 L 214.5 101.0 L 214.0 100.5 L 219.5 95.0 Z " /><path fill="rgb(235,244,240)" opacity="1" d="M 181.5 99.0 L 187.5 99.0 L 188.0 99.5 L 187.5 100.0 L 181.5 100.0 Q 180.5 99.5 181.5 99.0 Z " /><path fill="rgb(235,244,240)" opacity="1" d="M 192.5 99.0 Q 194.5 98.5 195.0 99.5 Q 194.5 100.5 192.5 100.0 Q 191.5 99.5 192.5 99.0 Z " /><path fill="rgb(235,244,240)" opacity="1" d="M 255.5 106.0 L 256.0 106.5 L 256.0 121.5 Q 255.5 122.5 255.0 121.5 L 255.0 106.5 L 255.5 106.0 Z " /><path fill="rgb(235,244,240)" opacity="1" d="M 177.5 107.0 Q 181.0 106.0 182.0 107.5 Q 181.0 109.0 177.5 108.0 Q 176.5 107.5 177.5 107.0 Z " /><path fill="rgb(235,244,240)" opacity="1" d="M 172.5 111.0 L 176.5 115.0 L 177.0 114.5 Q 176.8 113.3 177.5 113.0 Q 178.3 113.3 178.0 114.5 L 176.5 116.0 L 172.0 111.5 L 172.5 111.0 Z " /><path fill="rgb(235,244,240)" opacity="1" d="M 167.5 113.0 L 172.0 117.5 L 171.5 118.0 L 167.0 113.5 L 167.5 113.0 Z " /><path fill="rgb(235,244,240)" opacity="1" d="M 188.5 117.0 Q 190.3 118.3 189.0 122.5 Q 188.5 123.5 188.0 122.5 L 188.0 117.5 L 188.5 117.0 Z " /><path fill="rgb(235,244,240)" opacity="1" d="M 231.5 117.0 Q 234.3 116.3 235.0 117.5 Q 234.3 118.8 231.5 118.0 Q 230.5 117.5 231.5 117.0 Z " /><path fill="rgb(235,244,240)" opacity="1" d="M 238.5 117.0 L 244.5 117.0 L 245.0 117.5 L 244.5 118.0 L 238.5 118.0 Q 237.5 117.5 238.5 117.0 Z " /><path fill="rgb(235,244,240)" opacity="1" d="M 168.5 119.0 L 174.0 124.5 L 173.5 125.0 L 168.0 119.5 L 168.5 119.0 Z " /><path fill="rgb(235,244,240)" opacity="1" d="M 163.5 121.0 L 169.0 126.5 L 168.5 127.0 L 163.0 121.5 L 163.5 121.0 Z " /><path fill="rgb(235,244,240)" opacity="1" d="M 228.5 124.0 Q 230.5 123.5 231.0 124.5 Q 230.5 125.5 228.5 125.0 Q 227.5 124.5 228.5 124.0 Z " /><path fill="rgb(235,244,240)" opacity="1" d="M 247.5 124.0 Q 249.5 123.5 250.0 124.5 Q 249.5 125.5 247.5 125.0 Q 246.5 124.5 247.5 124.0 Z " /><path fill="rgb(235,244,240)" opacity="1" d="M 187.5 126.0 Q 187.8 127.8 189.0 128.5 Q 188.0 130.0 187.0 127.5 Q 186.8 126.3 187.5 126.0 Z " /><path fill="rgb(235,244,240)" opacity="1" d="M 190.5 146.0 Q 191.8 146.8 191.0 149.5 Q 190.5 150.5 190.0 149.5 Q 189.3 146.8 190.5 146.0 Z " /><path fill="rgb(235,244,240)" opacity="1" d="M 243.5 147.0 Q 244.5 147.5 244.0 149.5 Q 243.5 150.5 243.0 149.5 Q 242.5 147.5 243.5 147.0 Z " /><path fill="rgb(235,244,240)" opacity="1" d="M 217.5 153.0 Q 218.5 153.5 218.0 155.5 Q 217.5 156.5 217.0 155.5 Q 216.5 153.5 217.5 153.0 Z " /><path fill="rgb(235,244,240)" opacity="1" d="M 172.5 154.0 Q 173.8 153.8 174.0 154.5 Q 173.0 157.0 172.0 155.5 Q 171.8 154.3 172.5 154.0 Z " /><path fill="rgb(235,244,240)" opacity="1" d="M 190.5 154.0 Q 191.5 154.5 191.0 156.5 Q 190.5 157.5 190.0 156.5 Q 189.5 154.5 190.5 154.0 Z " /><path fill="rgb(235,244,240)" opacity="1" d="M 169.5 159.0 Q 170.5 159.5 170.0 161.5 Q 169.5 162.5 169.0 161.5 Q 168.5 159.5 169.5 159.0 Z " /><path fill="rgb(235,244,240)" opacity="1" d="M 212.5 161.0 Q 216.8 159.8 218.0 161.5 Q 216.8 163.3 212.5 162.0 Q 211.5 161.5 212.5 161.0 Z " /><path fill="rgb(235,244,240)" opacity="1" d="M 150.5 164.0 L 162.5 164.0 L 163.0 164.5 L 162.5 165.0 L 150.5 165.0 Q 149.5 164.5 150.5 164.0 Z " /><path fill="rgb(235,244,240)" opacity="1" d="M 169.5 166.0 Q 170.8 166.8 170.0 169.5 Q 169.5 170.5 169.0 169.5 Q 168.3 166.8 169.5 166.0 Z " /><path fill="rgb(235,244,240)" opacity="1" d="M 219.5 169.0 Q 221.5 168.5 222.0 169.5 Q 221.5 170.5 219.5 170.0 Q 218.5 169.5 219.5 169.0 Z " /><path fill="rgb(235,244,240)" opacity="1" d="M 211.5 179.0 Q 212.5 179.5 212.0 181.5 Q 211.5 182.5 211.0 181.5 Q 210.5 179.5 211.5 179.0 Z " /><path fill="rgb(235,244,240)" opacity="1" d="M 99.5 185.0 Q 100.8 184.8 101.0 185.5 Q 101.3 186.8 100.5 187.0 Q 98.0 186.0 99.5 185.0 Z " /><path fill="rgb(235,244,240)" opacity="1" d="M 127.5 185.0 Q 129.5 184.5 130.0 185.5 Q 129.5 186.5 127.5 186.0 Q 126.5 185.5 127.5 185.0 Z " /><path fill="rgb(235,244,240)" opacity="1" d="M 153.5 185.0 Q 155.8 184.8 156.0 186.5 Q 155.3 187.8 154.5 186.0 Q 152.1 185.9 153.5 185.0 Z " /><path fill="rgb(235,244,240)" opacity="1" d="M 253.5 185.0 Q 255.5 184.5 256.0 185.5 Q 255.5 186.5 253.5 186.0 Q 252.5 185.5 253.5 185.0 Z " /><path fill="rgb(235,244,240)" opacity="1" d="M 232.5 186.0 Q 233.5 186.5 233.0 188.5 Q 232.5 189.5 232.0 188.5 Q 231.5 186.5 232.5 186.0 Z " /><path fill="rgb(235,244,240)" opacity="1" d="M 234.5 186.0 Q 235.5 186.5 235.0 188.5 Q 234.5 189.5 234.0 188.5 Q 233.5 186.5 234.5 186.0 Z " /><path fill="rgb(235,244,240)" opacity="1" d="M 259.5 186.0 Q 260.5 186.5 260.0 188.5 Q 259.0 190.0 258.0 187.5 L 259.5 186.0 Z " /><path fill="rgb(235,244,240)" opacity="1" d="M 281.5 186.0 Q 282.5 186.5 282.0 188.5 Q 281.5 189.5 281.0 188.5 Q 280.5 186.5 281.5 186.0 Z " /><path fill="rgb(235,244,240)" opacity="1" d="M 294.5 186.0 Q 295.3 187.3 297.0 187.5 Q 296.8 188.3 295.5 188.0 Q 293.0 187.0 294.5 186.0 Z " /><path fill="rgb(235,244,240)" opacity="1" d="M 310.5 186.0 Q 311.3 186.3 311.0 187.5 Q 310.0 190.0 309.0 188.5 Q 310.3 187.8 310.5 186.0 Z " /><path fill="rgb(235,244,240)" opacity="1" d="M 197.5 187.0 L 198.0 187.5 L 198.0 197.5 Q 197.5 198.5 197.0 197.5 L 197.0 187.5 L 197.5 187.0 Z " /><path fill="rgb(235,244,240)" opacity="1" d="M 289.5 187.0 Q 291.5 186.5 292.0 187.5 Q 291.5 188.5 289.5 188.0 Q 288.5 187.5 289.5 187.0 Z " /><path fill="rgb(235,244,240)" opacity="1" d="M 313.5 187.0 Q 314.5 187.5 314.0 189.5 Q 313.5 190.5 313.0 189.5 Q 312.5 187.5 313.5 187.0 Z " /><path fill="rgb(235,244,240)" opacity="1" d="M 87.5 190.0 Q 88.5 190.5 88.0 192.5 Q 87.5 193.5 87.0 192.5 Q 86.5 190.5 87.5 190.0 Z " /><path fill="rgb(235,244,240)" opacity="1" d="M 132.5 191.0 Q 133.8 190.8 134.0 191.5 Q 134.3 192.8 133.5 193.0 Q 132.3 193.3 132.0 192.5 Q 131.8 191.3 132.5 191.0 Z " /><path fill="rgb(235,244,240)" opacity="1" d="M 174.5 191.0 Q 176.5 191.5 176.0 194.5 Q 175.5 195.5 175.0 194.5 L 175.0 192.5 Q 173.3 191.8 174.5 191.0 Z " /><path fill="rgb(235,244,240)" opacity="1" d="M 235.5 191.0 Q 239.8 189.8 241.0 191.5 Q 239.8 193.3 235.5 192.0 Q 234.5 191.5 235.5 191.0 Z " /><path fill="rgb(235,244,240)" opacity="1" d="M 258.5 191.0 Q 259.8 190.8 260.0 191.5 Q 260.3 192.8 259.5 193.0 Q 257.0 192.0 258.5 191.0 Z " /><path fill="rgb(235,244,240)" opacity="1" d="M 273.5 191.0 Q 275.5 190.5 276.0 191.5 Q 275.5 192.5 273.5 192.0 Q 272.5 191.5 273.5 191.0 Z " /><path fill="rgb(235,244,240)" opacity="1" d="M 120.5 192.0 Q 121.3 192.3 121.0 193.5 L 119.5 195.0 L 112.5 195.0 L 112.0 195.5 Q 112.3 196.8 111.5 197.0 Q 110.8 196.8 111.0 195.5 L 112.5 194.0 L 119.5 194.0 L 120.0 193.5 Q 119.8 192.3 120.5 192.0 Z " /><path fill="rgb(235,244,240)" opacity="1" d="M 152.5 192.0 Q 153.8 192.8 152.0 193.5 Q 152.3 194.8 151.5 195.0 Q 150.8 194.8 151.0 193.5 L 152.5 192.0 Z " /><path fill="rgb(235,244,240)" opacity="1" d="M 278.5 192.0 Q 279.3 192.3 279.0 193.5 Q 278.0 196.0 277.0 194.5 Q 278.3 193.8 278.5 192.0 Z " /><path fill="rgb(235,244,240)" opacity="1" d="M 232.5 193.0 Q 233.8 193.8 233.0 196.5 Q 232.5 197.5 232.0 196.5 Q 231.3 193.8 232.5 193.0 Z " /><path fill="rgb(235,244,240)" opacity="1" d="M 313.5 193.0 Q 314.7 193.8 314.5 196.0 Q 314.8 194.8 316.5 195.0 Q 318.3 195.3 318.0 197.5 Q 317.8 199.3 315.5 199.0 L 314.5 198.0 Q 313.8 199.8 313.0 198.5 Q 311.8 194.3 313.5 193.0 Z M 316.0 196.0 Q 315.0 196.0 315.0 198.0 Q 315.0 198.0 317.0 198.0 Q 317.0 198.0 317.0 197.0 Q 317.0 196.0 316.0 196.0 Z " /><path fill="rgb(235,244,240)" opacity="1" d="M 108.5 194.0 Q 109.8 194.8 109.0 197.5 Q 108.5 198.5 108.0 197.5 Q 107.3 194.8 108.5 194.0 Z " /><path fill="rgb(235,244,240)" opacity="1" d="M 106.5 195.0 Q 107.8 195.8 107.0 198.5 Q 106.5 199.5 106.0 198.5 Q 105.3 195.8 106.5 195.0 Z " /><path fill="rgb(235,244,240)" opacity="1" d="M 237.5 195.0 Q 238.4 196.6 241.0 196.5 Q 240.3 197.8 237.5 197.0 Q 236.4 196.4 237.5 195.0 Z " /><path fill="rgb(235,244,240)" opacity="1" d="M 281.5 195.0 Q 284.3 194.3 285.0 195.5 Q 284.3 196.8 281.5 196.0 Q 280.5 195.5 281.5 195.0 Z " /><path fill="rgb(235,244,240)" opacity="1" d="M 115.5 196.0 Q 118.3 195.3 119.0 196.5 Q 118.3 197.8 115.5 197.0 Q 114.5 196.5 115.5 196.0 Z " /><path fill="rgb(235,244,240)" opacity="1" d="M 262.5 196.0 Q 263.5 196.5 263.0 198.5 Q 262.5 199.5 262.0 198.5 Q 261.5 196.5 262.5 196.0 Z " /><path fill="rgb(235,244,240)" opacity="1" d="M 87.5 197.0 Q 89.5 196.5 90.0 197.5 Q 89.5 198.5 87.5 198.0 Q 86.5 197.5 87.5 197.0 Z " /><path fill="rgb(235,244,240)" opacity="1" d="M 163.5 197.0 L 169.5 197.0 L 170.0 197.5 L 169.5 198.0 L 163.5 198.0 Q 162.5 197.5 163.5 197.0 Z " /><path fill="rgb(235,244,240)" opacity="1" d="M 222.5 197.0 L 229.5 197.0 L 230.0 197.5 Q 230.3 198.8 229.5 199.0 L 228.5 198.0 L 222.5 198.0 Q 221.5 197.5 222.5 197.0 Z " /><path fill="rgb(235,244,240)" opacity="1" d="M 203.5 199.0 Q 205.0 200.0 202.5 201.0 Q 201.3 201.3 201.0 200.5 Q 202.8 200.3 203.5 199.0 Z " /></svg>