<svg viewBox="0 0 400 214" version="1.1" xmlns="http://www.w3.org/2000/svg" desc="Created with imagetracer.js version 1.2.6" ><path fill="rgb(41,84,112)" stroke="rgb(41,84,112)" stroke-width="0" opacity="1" d="M 164.5 40 Q 167.25 39.25 168 40.5 Q 167.25 41.75 164.5 41 Q 163.5 40.5 164.5 40 Z " /><path fill="rgb(41,84,112)" stroke="rgb(41,84,112)" stroke-width="0" opacity="1" d="M 146.5 50 Q 149.25 49.25 150 50.5 L 150 101.5 L 148.5 103 Q 146.75 102.75 146.5 104 L 146 103.5 L 146 50.5 L 146.5 50 Z M 148 51 L 147 52 L 147 71 Q 148 71 149 73 L 149 73 L 149 52 Q 149 51 148 51 Z " /><path fill="rgb(41,84,112)" stroke="rgb(41,84,112)" stroke-width="0" opacity="1" d="M 156.5 52 L 157 52.5 L 157 70.5 Q 158.25 70.75 158 72.5 Q 156 73.5 158 74.5 Q 157.5 76.5 158.5 77 L 159 76.5 L 159 58.5 L 159.5 58 L 160 58.5 L 160 96.5 Q 159.25 98.75 155.5 98 L 155 97.5 L 155 84.5 L 156 83.5 L 156 52.5 L 156.5 52 Z " /><path fill="rgb(41,84,112)" stroke="rgb(41,84,112)" stroke-width="0" opacity="1" d="M 177.5 73 L 178 73.5 L 178 80.5 L 178.5 81 Q 180.88 79.88 181.5 77 Q 182.75 77.75 182 80.5 Q 180.42 81.42 180.5 84 Q 178.75 84.25 178.5 83 Q 176 84 177.5 85 Q 179.67 84.83 180.5 86 Q 181.25 84.25 182 85.5 Q 182.5 87.5 181.5 88 Q 180.25 87.75 180 88.5 Q 182 89.5 181 93.5 Q 180.17 94.67 178 94.5 L 178.5 95 Q 181.25 94.25 182 95.5 L 181.5 96 L 175.5 96 L 175 95.5 L 175 80.5 L 176 79.5 L 176 76.5 Q 177.58 75.58 177.5 73 Z M 177 91 Q 175 94 177 95 Q 176 92 178 92 Q 178 91 177 91 Z " /><path fill="rgb(41,84,112)" stroke="rgb(41,84,112)" stroke-width="0" opacity="1" d="M 186.5 78 Q 189 79 187.5 80 Q 186.25 80.25 186 79.5 Q 185.75 78.25 186.5 78 Z " /><path fill="rgb(41,84,112)" stroke="rgb(41,84,112)" stroke-width="0" opacity="1" d="M 194.5 85 Q 195.75 85.75 194 86.5 Q 194.25 87.75 193.5 88 Q 192.75 87.75 193 86.5 L 194.5 85 Z " /><path fill="rgb(41,84,112)" stroke="rgb(41,84,112)" stroke-width="0" opacity="1" d="M 184.5 88 Q 187.42 89.08 189 91.5 Q 187.25 91.75 186.5 93 L 183 89.5 L 184.5 88 Z " /><path fill="rgb(41,84,112)" stroke="rgb(41,84,112)" stroke-width="0" opacity="1" d="M 191.5 94 L 194 96.5 L 193.5 97 Q 189.75 97.75 189 95.5 Q 190.75 95.25 191.5 94 Z " /><path fill="rgb(41,84,112)" stroke="rgb(41,84,112)" stroke-width="0" opacity="1" d="M 240.5 94 Q 242 95 241 98.5 Q 240.5 99.5 240 98.5 Q 239 95 240.5 94 Z " /><path fill="rgb(41,84,112)" stroke="rgb(41,84,112)" stroke-width="0" opacity="1" d="M 167.5 100 L 183.5 100 L 184.5 101 L 192.5 101 L 193 101.5 L 192.5 102 L 184.5 102 L 183 103.5 Q 184.75 104.25 183.5 105 Q 181.75 104.75 181.5 106 L 169.5 106 L 168.5 107 L 164.5 107 L 163.5 108 L 161.5 108 Q 160.58 109.58 158 109.5 L 158 110.5 L 173 125.5 L 173 127.5 Q 172.75 128.25 171.5 128 Q 162.37 120.63 154.5 112 L 153.5 112 Q 152.5 116 146.5 115 Q 145 114 146 110.5 Q 150.02 105.52 156.5 103 L 158.5 103 L 159.5 102 Q 162 102.5 162.5 101 L 166.5 101 L 167.5 100 Z " /><path fill="rgb(41,84,112)" stroke="rgb(41,84,112)" stroke-width="0" opacity="1" d="M 195.5 100 L 200.5 100 L 201 100.5 Q 199.75 102.25 195.5 101 Q 194.5 100.5 195.5 100 Z " /><path fill="rgb(41,84,112)" stroke="rgb(41,84,112)" stroke-width="0" opacity="1" d="M 240.5 100 L 241 100.5 L 241 106.5 Q 240.5 107.5 240 106.5 L 240 100.5 L 240.5 100 Z " /><path fill="rgb(41,84,112)" stroke="rgb(41,84,112)" stroke-width="0" opacity="1" d="M 189.5 104 Q 193 103 194 104.5 Q 193.75 105.75 194.5 106 Q 195.75 105.75 196 106.5 L 195.5 107 L 183.5 107 Q 182.5 106.5 183.5 106 L 189.5 106 L 190 105.5 Q 188.25 104.75 189.5 104 Z " /><path fill="rgb(41,84,112)" stroke="rgb(41,84,112)" stroke-width="0" opacity="1" d="M 200.5 104 Q 204 103 205 104.5 L 204.5 105 L 200.5 105 Q 200 106.5 197.5 106 Q 196.5 105.5 197.5 105 Q 200 105.5 200.5 104 Z " /><path fill="rgb(41,84,112)" stroke="rgb(41,84,112)" stroke-width="0" opacity="1" d="M 235.5 109 Q 238.25 108.25 239 109.5 Q 238.25 110.75 235.5 110 Q 234.5 109.5 235.5 109 Z " /><path fill="rgb(41,84,112)" stroke="rgb(41,84,112)" stroke-width="0" opacity="1" d="M 167.5 110 L 169.5 110 L 175.5 116 Q 177.67 115.83 178.5 117 Q 179.75 116.25 178 115.5 Q 177 112 178.5 111 L 184.5 111 L 185 111.5 L 185 123.5 L 184 124.5 Q 184.5 127 183 127.5 L 183 130.5 Q 180.98 135.48 177.5 139 Q 172.75 139.75 172 136.5 L 173 135.5 L 173 134.5 L 174 133.5 L 174 132.5 Q 176.17 130.67 177 127.5 L 177 125.5 Q 178.5 125 178 122.5 Q 173.44 115.56 166 111.5 L 167.5 110 Z " /><path fill="rgb(41,84,112)" stroke="rgb(41,84,112)" stroke-width="0" opacity="1" d="M 227.5 113 Q 229.75 112.75 230 114.5 Q 229.25 115.75 226.5 115 Q 225 114 227.5 113 Z " /><path fill="rgb(41,84,112)" stroke="rgb(41,84,112)" stroke-width="0" opacity="1" d="M 214.5 115 Q 215.75 114.75 216 115.5 Q 216.25 116.75 215.5 117 Q 212.75 116.25 212 117.5 Q 212.25 118.75 211.5 119 Q 210.25 118.75 210 119.5 Q 211.25 119.75 211 121.5 Q 209.75 121.75 210 123.5 Q 210.25 124.25 211.5 124 Q 212.25 122.25 213 123.5 Q 213.25 124.75 212.5 125 Q 208.33 125.67 206.5 124 Q 205.75 124.25 206 125.5 L 206.5 126 L 213.5 126 Q 214.25 124.25 217.5 125 Q 218.5 125.5 217.5 126 L 215.5 126 L 214.5 127 L 212.5 127 Q 212 128.5 209.5 128 L 208.5 129 L 207.5 129 Q 205.67 131.17 202.5 132 L 197.5 132 L 196.5 131 L 195.5 131 L 194.5 130 L 193.5 130 Q 191.95 128.05 189 127.5 L 189 123.5 L 190 122.5 Q 189 119 190.5 118 Q 196 120.5 199.5 125 L 200.5 125 Q 206.33 118.83 214.5 115 Z " /><path fill="rgb(41,84,112)" stroke="rgb(41,84,112)" stroke-width="0" opacity="1" d="M 217.5 117 Q 218.75 116.75 219 117.5 L 217.5 119 Q 215 118.5 214.5 120 Q 213 119 215.5 118 Q 217.25 118.25 217.5 117 Z " /><path fill="rgb(41,84,112)" stroke="rgb(41,84,112)" stroke-width="0" opacity="1" d="M 220.5 120 Q 224 119 225 120.5 L 224.5 121 Q 221.75 120.25 221 121.5 Q 223.58 121.42 224.5 123 Q 227.25 122.25 228 123.5 Q 226.75 125.25 222.5 124 Q 221.42 122.58 219.5 122 L 217.5 122 Q 217 123.5 214.5 123 Q 213.5 122.5 214.5 122 L 216.5 122 L 217.5 121 Q 220 121.5 220.5 120 Z " /><path fill="rgb(41,84,112)" stroke="rgb(41,84,112)" stroke-width="0" opacity="1" d="M 179.5 145 Q 182.25 144.25 183 145.5 Q 182.75 146.75 183.5 147 Q 187.25 146.25 188 148.5 Q 187.75 149.75 188.5 150 Q 190.5 150.5 191 149.5 Q 190.25 146.75 191.5 146 Q 194.25 145.25 195 146.5 L 195 156.5 L 194.5 157 Q 191.75 157.75 191 156.5 Q 191.5 154.5 190.5 154 Q 187.5 154.5 187 152.5 Q 188.75 151.75 187.5 151 Q 186.33 149.67 183.5 150 Q 182.75 150.25 183 151.5 Q 184.94 154.06 188 155.5 Q 188.25 156.75 187.5 157 L 184.5 157 Q 183.25 155.25 180.5 155 Q 178.46 157.46 174.5 158 Q 174.25 156.25 173 155.5 Q 177 154.5 179 151.5 Q 177.75 148.75 176.5 151 Q 174.5 151.5 174 150.5 Q 173.25 147.75 174.5 147 Q 177 146.5 177.5 148 Q 179.12 147.13 179.5 145 Z " /><path fill="rgb(41,84,112)" stroke="rgb(41,84,112)" stroke-width="0" opacity="1" d="M 234.5 145 Q 236.5 144.5 237 145.5 Q 236.75 146.75 237.5 147 Q 241.75 145.75 243 147.5 Q 243.5 149.5 242.5 150 L 228.5 150 L 228 149.5 Q 227.75 147.25 229.5 147 Q 230.5 149 231.5 147 Q 234.25 147.25 234.5 145 Z " /><path fill="rgb(41,84,112)" stroke="rgb(41,84,112)" stroke-width="0" opacity="1" d="M 149.5 146 Q 151.5 145.5 152 146.5 Q 151.5 148.5 152.5 149 Q 156.75 150.25 158 148.5 Q 157.5 146.5 158.5 146 Q 161.5 145.5 162 147.5 L 162 157.5 L 161.5 158 L 148.5 158 L 148 157.5 L 148 147.5 L 149.5 146 Z M 154 152 Q 152 152 152 155 Q 153 156 158 155 Q 158 155 158 154 Q 157 151 154 152 Z " /><path fill="rgb(41,84,112)" stroke="rgb(41,84,112)" stroke-width="0" opacity="1" d="M 165.5 146 Q 168.25 145.25 169 146.5 Q 168 150 169.5 151 Q 171.5 150.5 172 151.5 Q 172.5 153.5 171.5 154 Q 169.5 153.5 169 154.5 Q 170 158 168.5 159 Q 165.75 159.75 165 158.5 L 165 146.5 L 165.5 146 Z " /><path fill="rgb(41,84,112)" stroke="rgb(41,84,112)" stroke-width="0" opacity="1" d="M 220.5 146 Q 223.25 145.25 224 146.5 L 224 154.5 L 224.5 155 Q 225.75 152.75 227 155.5 Q 227.5 157.5 226.5 158 Q 224.5 157.5 224 158.5 L 224 168.5 L 223.5 169 Q 220.75 169.75 220 168.5 Q 220.83 163.67 219 161.5 L 220 160.5 L 220 146.5 L 220.5 146 Z " /><path fill="rgb(41,84,112)" stroke="rgb(41,84,112)" stroke-width="0" opacity="1" d="M 245.5 146 Q 248.25 145.25 249 146.5 Q 248 150 249.5 151 Q 251.5 150.5 252 151.5 Q 252.75 154.25 251.5 155 Q 249.5 154.5 249 155.5 Q 250 159 248.5 160 Q 245.75 160.75 245 159.5 L 245 146.5 L 245.5 146 Z " /><path fill="rgb(41,84,112)" stroke="rgb(41,84,112)" stroke-width="0" opacity="1" d="M 203.5 147 L 216.5 147 L 217 147.5 L 217 157.5 Q 215.42 158.42 215.5 161 Q 212.5 161.5 212 159.5 Q 214.17 156.67 213 150.5 L 212.5 150 L 203.5 150 L 203 149.5 Q 202.5 147.5 203.5 147 Z " /><path fill="rgb(41,84,112)" stroke="rgb(41,84,112)" stroke-width="0" opacity="1" d="M 234.5 151 Q 237 150.5 237.5 152 L 240.5 152 L 242 153.5 Q 243 158 240.5 159 Q 238 161 232.5 160 Q 230.25 159.25 229 157.5 Q 228 154 229.5 153 Q 230.67 151.67 233.5 152 L 234.5 151 Z M 234 154 Q 233 154 233 157 Q 234 158 238 157 Q 238 157 238 155 Q 237 153 234 154 Z " /><path fill="rgb(41,84,112)" stroke="rgb(41,84,112)" stroke-width="0" opacity="1" d="M 206.5 155 Q 209.25 154.25 210 155.5 L 210 163.5 L 210.5 164 L 216.5 164 L 217.5 163 Q 218.75 163.75 218 166.5 L 217.5 167 L 202.5 167 Q 201.25 166.25 203 165.5 Q 202.75 164.25 203.5 164 Q 205.5 164.5 206 163.5 L 206 155.5 L 206.5 155 Z " /><path fill="rgb(41,84,112)" stroke="rgb(41,84,112)" stroke-width="0" opacity="1" d="M 176.5 159 L 194.5 159 L 195 159.5 L 195 164.5 L 194.5 165 L 180.5 165 L 180 165.5 L 180.5 166 L 191.5 166 Q 191.75 167.25 193.5 167 Q 194.75 164.75 196 167.5 Q 196.25 168.75 195.5 169 L 176.5 169 L 176 168.5 Q 174.75 164.25 176.5 163 L 190.5 163 L 191 162.5 Q 191.25 161.25 190.5 161 L 176.5 161 L 176 160.5 Q 175.75 159.25 176.5 159 Z " /><path fill="rgb(41,84,112)" stroke="rgb(41,84,112)" stroke-width="0" opacity="1" d="M 161.5 160 L 162.5 161 L 168.5 161 L 169 161.5 L 169 168.5 L 168.5 169 Q 165.75 169.75 165 168.5 Q 166 165 164.5 164 L 150.5 164 L 150 163.5 Q 149.5 161.5 150.5 161 L 160.5 161 L 161.5 160 Z " /><path fill="rgb(41,84,112)" stroke="rgb(41,84,112)" stroke-width="0" opacity="1" d="M 230.5 161 L 244.5 161 Q 245 162.5 247.5 162 Q 248.25 160.25 249 161.5 L 249 168.5 L 248.5 169 Q 245.75 169.75 245 168.5 Q 245.75 165.75 244.5 165 L 230.5 165 L 230 164.5 Q 229.25 161.75 230.5 161 Z " /><path fill="rgb(41,84,112)" stroke="rgb(41,84,112)" stroke-width="0" opacity="1" d="M 182.5 173 L 183.5 174 Q 186.25 173.25 187 174.5 L 186.5 175 Q 183.75 174.25 183 175.5 Q 182.75 176.75 183.5 177 Q 186.25 176.25 187 177.5 Q 186 179.5 183 179.5 Q 183.5 181.5 182.5 182 Q 181.25 182.25 181 181.5 L 181 174.5 L 182.5 173 Z " /><path fill="rgb(41,84,112)" stroke="rgb(41,84,112)" stroke-width="0" opacity="1" d="M 199.5 173 L 200 173.5 L 200 180.5 L 200.5 181 Q 203.25 180.25 204 181.5 Q 203 183 199.5 182 L 199 181.5 L 199 173.5 L 199.5 173 Z " /><path fill="rgb(41,84,112)" stroke="rgb(41,84,112)" stroke-width="0" opacity="1" d="M 213.5 173 Q 214.67 173.83 214.5 176 Q 218.25 175.25 219 177.5 Q 219.75 181.25 217.5 182 Q 214 183 213 181.5 L 213 173.5 L 213.5 173 Z M 216 177 Q 214 177 214 180 Q 214 181 217 181 Q 218 180 217 178 Q 217 177 216 177 Z " /><path fill="rgb(41,84,112)" stroke="rgb(41,84,112)" stroke-width="0" opacity="1" d="M 189.5 176 Q 193.25 175.25 194 177.5 Q 194.25 178.75 193.5 179 Q 190.75 178.25 190 179.5 Q 189.75 180.75 190.5 181 Q 193.25 180.25 194 181.5 Q 193 183 189.5 182 Q 187.25 181.25 188 177.5 L 189.5 176 Z " /><path fill="rgb(41,84,112)" stroke="rgb(41,84,112)" stroke-width="0" opacity="1" d="M 206.5 176 Q 210 175 211 176.5 L 211 181.5 L 210.5 182 Q 206 183 205 180.5 Q 206.56 178.56 209 177.5 Q 208.75 176.75 207.5 177 Q 206.75 178.75 206 177.5 Q 205.75 176.25 206.5 176 Z M 209 179 Q 206 180 208 181 Q 209 181 209 181 Q 209 179 209 179 Z " /><path fill="rgb(41,84,112)" stroke="rgb(41,84,112)" stroke-width="0" opacity="1" d="M 99.5 186 Q 100.5 188 103 188.5 Q 102.17 189.67 100 189.5 Q 102.13 189.87 103 191.5 Q 102.25 194.75 97.5 194 Q 95.5 193.5 96 190.5 Q 96.62 189.62 98 189.5 Q 97.17 188.33 95 188.5 Q 98.42 188.42 99.5 186 Z M 98 191 Q 96 192 99 193 Q 101 193 101 192 Q 100 190 98 191 Z " /><path fill="rgb(41,84,112)" stroke="rgb(41,84,112)" stroke-width="0" opacity="1" d="M 179.5 186 Q 180.37 186.62 180.5 188 Q 182.5 187.5 183 188.5 Q 183.25 189.75 182.5 190 Q 180.5 189.5 180 190.5 Q 182.13 190.88 183 192.5 Q 183.75 196.25 181.5 197 Q 177 198 176 195.5 Q 175.25 191.75 177.5 191 Q 178.75 191.25 179 190.5 Q 178.17 189.33 176 189.5 Q 175.75 188.25 176.5 188 Q 178.5 188.5 179 187.5 Q 178.75 186.25 179.5 186 Z M 179 192 Q 177 193 178 196 Q 179 196 181 196 Q 182 195 181 193 Q 181 192 179 192 Z " /><path fill="rgb(41,84,112)" stroke="rgb(41,84,112)" stroke-width="0" opacity="1" d="M 267.5 186 Q 272.25 185.25 274 187.5 Q 274.5 190.5 272.5 191 Q 270.5 190.5 270 191.5 L 270.5 192 Q 274 191 275 192.5 L 274.5 193 L 264.5 193 Q 263.5 192.5 264.5 192 Q 267.25 192.75 268 191.5 Q 265 191.5 264 189.5 Q 263.75 187.25 265.5 187 Q 267.25 187.25 267.5 186 Z M 267 188 Q 265 189 267 190 Q 272 191 273 189 L 273 188 L 267 188 Z " /><path fill="rgb(41,84,112)" stroke="rgb(41,84,112)" stroke-width="0" opacity="1" d="M 293.5 186 Q 294.37 186.62 294.5 188 Q 296.5 187.5 297 188.5 Q 296.17 189.67 294 189.5 L 294 192.5 L 297 195.5 L 297 196.5 L 296.5 197 L 293.5 194 Q 292.25 193.75 292 194.5 Q 292.25 196.75 290.5 197 Q 289.25 197.25 289 196.5 Q 291.08 195.08 292 192.5 L 292 189.5 Q 291.17 188.33 289 188.5 Q 292.42 188.42 293.5 186 Z " /><path fill="rgb(41,84,112)" stroke="rgb(41,84,112)" stroke-width="0" opacity="1" d="M 83.5 187 L 89.5 187 L 90 187.5 Q 91.25 192.75 88.5 194 Q 87 193 88 189.5 L 86.5 188 Q 84.33 187.83 83.5 189 Q 82.37 188.37 83.5 187 Z " /><path fill="rgb(41,84,112)" stroke="rgb(41,84,112)" stroke-width="0" opacity="1" d="M 92.5 187 L 93 187.5 Q 92.25 190.25 93.5 191 Q 94.75 190.75 95 191.5 L 93 193.5 L 93 198.5 L 92.5 199 L 92 198.5 L 92 187.5 L 92.5 187 Z " /><path fill="rgb(41,84,112)" stroke="rgb(41,84,112)" stroke-width="0" opacity="1" d="M 104.5 187 Q 105.75 186.75 106 187.5 Q 105.5 189.5 106.5 190 Q 107.75 189.75 108 190.5 Q 107.37 191.37 106 191.5 Q 106.5 193.5 105.5 194 L 104 192.5 Q 102.75 188.25 104.5 187 Z " /><path fill="rgb(41,84,112)" stroke="rgb(41,84,112)" stroke-width="0" opacity="1" d="M 110.5 187 L 117.5 187 L 119 188.5 Q 119.5 190.5 118.5 191 Q 116.67 192.67 112.5 192 Q 110.25 191.25 109 189.5 Q 108.75 187.25 110.5 187 Z M 112 188 Q 111 188 111 190 L 112 190 L 117 190 Q 117 190 117 189 L 117 188 L 112 188 Z " /><path fill="rgb(41,84,112)" stroke="rgb(41,84,112)" stroke-width="0" opacity="1" d="M 138.5 187 L 147.5 187 L 148 187.5 L 147.5 188 L 140.5 188 L 140 188.5 Q 139.5 190.5 140.5 191 L 147.5 191 L 148 191.5 L 147.5 192 L 138.5 192 L 138 191.5 Q 137 188 138.5 187 Z " /><path fill="rgb(41,84,112)" stroke="rgb(41,84,112)" stroke-width="0" opacity="1" d="M 164.5 187 Q 168.75 185.75 170 187.5 L 170 196.5 L 169.5 197 L 164.5 197 L 164 196.5 L 164 187.5 L 164.5 187 Z M 167 188 Q 163 189 165 196 Q 166 196 168 196 Q 170 195 169 190 Q 169 188 167 188 Z " /><path fill="rgb(41,84,112)" stroke="rgb(41,84,112)" stroke-width="0" opacity="1" d="M 172.5 187 Q 173.75 186.75 174 187.5 L 174 198.5 L 173.5 199 Q 172.25 199.25 172 198.5 L 172 187.5 L 172.5 187 Z " /><path fill="rgb(41,84,112)" stroke="rgb(41,84,112)" stroke-width="0" opacity="1" d="M 184.5 187 Q 185.75 186.75 186 187.5 Q 185.25 191.75 188 192.5 Q 187.37 193.37 186 193.5 L 186 198.5 L 185.5 199 L 185 198.5 L 185 188.5 Q 183.25 187.75 184.5 187 Z " /><path fill="rgb(41,84,112)" stroke="rgb(41,84,112)" stroke-width="0" opacity="1" d="M 189.5 187 Q 193.25 186.25 194 188.5 Q 193.5 190.5 194.5 191 L 195 190.5 Q 194.25 187.75 195.5 187 Q 196.75 186.75 197 187.5 L 197 197.5 L 196.5 198 Q 195.25 198.25 195 197.5 Q 196.25 193.25 194.5 192 L 189.5 197 L 189 196.5 L 189 195.5 L 192 192.5 L 192 188.5 Q 191.5 187.5 189.5 188 Q 188.5 187.5 189.5 187 Z " /><path fill="rgb(41,84,112)" stroke="rgb(41,84,112)" stroke-width="0" opacity="1" d="M 198.5 187 Q 199.75 186.75 200 187.5 L 200 197.5 L 199.5 198 Q 198.25 198.25 198 197.5 L 198 187.5 L 198.5 187 Z " /><path fill="rgb(41,84,112)" stroke="rgb(41,84,112)" stroke-width="0" opacity="1" d="M 209.5 187 L 214.5 187 Q 215 188.5 217.5 188 Q 217.75 186.75 219.5 187 Q 220.75 187.75 219 188.5 L 219 195.5 L 218.5 196 Q 214.25 194.75 213 196.5 L 213.5 197 L 218.5 197 L 219 197.5 Q 219.25 198.75 218.5 199 L 211.5 199 L 210 197.5 Q 209.75 195.25 211.5 195 L 217.5 195 L 218 194.5 L 217.5 194 L 210.5 194 L 210 193.5 L 210.5 193 L 217.5 193 L 218 192.5 Q 218.25 191.25 217.5 191 Q 215 191.5 214.5 190 Q 213.75 192.75 209.5 192 Q 208.5 191.5 209.5 191 Q 213.5 191.5 214 188.5 Q 213 187 209.5 188 Q 208.5 187.5 209.5 187 Z M 216 189 Q 215 190 216 190 Q 217 190 218 190 Q 217 189 216 189 Z " /><path fill="rgb(41,84,112)" stroke="rgb(41,84,112)" stroke-width="0" opacity="1" d="M 222.5 187 Q 227.75 185.75 229 188.5 L 229 190.5 Q 227.42 191.42 227.5 194 L 227 193.5 L 227 188.5 L 226.5 188 L 222.5 188 Q 221.5 187.5 222.5 187 Z " /><path fill="rgb(41,84,112)" stroke="rgb(41,84,112)" stroke-width="0" opacity="1" d="M 230.5 187 Q 231.75 186.75 232 187.5 Q 231.5 191 233 192.5 L 232 193.5 L 232 198.5 L 231.5 199 Q 230.25 199.25 230 198.5 L 230 187.5 L 230.5 187 Z " /><path fill="rgb(41,84,112)" stroke="rgb(41,84,112)" stroke-width="0" opacity="1" d="M 235.5 187 Q 236.75 186.75 237 187.5 Q 236.5 189.5 237.5 190 L 244.5 190 L 245 190.5 L 244.5 191 L 235.5 191 Q 233.94 189.94 235.5 187 Z " /><path fill="rgb(41,84,112)" stroke="rgb(41,84,112)" stroke-width="0" opacity="1" d="M 279.5 187 Q 280.75 186.75 281 187.5 Q 280.5 190.5 282.5 191 Q 283.75 190.75 284 191.5 Q 283.75 192.25 282.5 192 L 280.5 190 L 277.5 193 L 276 191.5 Q 278.13 191.13 279 189.5 Q 278.5 187.5 279.5 187 Z " /><path fill="rgb(41,84,112)" stroke="rgb(41,84,112)" stroke-width="0" opacity="1" d="M 286.5 187 Q 288.25 188.25 287 192.5 Q 286.5 193.5 286 192.5 Q 286.5 190.5 285.5 190 Q 283.25 190.25 283 188.5 Q 285.58 188.58 286.5 187 Z " /><path fill="rgb(41,84,112)" stroke="rgb(41,84,112)" stroke-width="0" opacity="1" d="M 299.5 187 L 300 187.5 L 300 198.5 Q 299 200 298 197.5 Q 299.25 197.25 299 195.5 Q 298.08 192.92 296 191.5 Q 296.83 190.33 299 190.5 Q 298.25 187.75 299.5 187 Z " /><path fill="rgb(41,84,112)" stroke="rgb(41,84,112)" stroke-width="0" opacity="1" d="M 302.5 187 L 308.5 187 L 309 187.5 Q 307 188.5 309 189.5 L 307.5 191 Q 304.75 190.25 304 191.5 L 304.5 192 L 309.5 192 L 310 192.5 L 309.5 193 L 303.5 193 Q 302.25 192.25 303 189.5 L 303.5 189 Q 306.25 189.75 307 188.5 Q 306 187 302.5 188 Q 301.5 187.5 302.5 187 Z " /><path fill="rgb(41,84,112)" stroke="rgb(41,84,112)" stroke-width="0" opacity="1" d="M 311.5 187 Q 312.75 186.75 313 187.5 L 313 192.5 L 312.5 193 Q 311.25 193.25 311 192.5 Q 311.5 190 310 189.5 Q 311.25 188.75 311.5 187 Z " /><path fill="rgb(41,84,112)" stroke="rgb(41,84,112)" stroke-width="0" opacity="1" d="M 85.5 191 L 86 191.5 Q 85 195 86.5 196 Q 89.25 195.25 90 196.5 L 89.5 197 L 82.5 197 Q 81.5 196.5 82.5 196 Q 84.75 196.25 85 194.5 Q 84.25 191.75 85.5 191 Z " /><path fill="rgb(41,84,112)" stroke="rgb(41,84,112)" stroke-width="0" opacity="1" d="M 224.5 191 L 225 191.5 Q 224 195 225.5 196 Q 228.25 195.25 229 196.5 L 228.5 197 L 222.5 197 L 222 196.5 L 224 194.5 L 223 193.5 Q 222.75 191.25 224.5 191 Z " /><path fill="rgb(41,84,112)" stroke="rgb(41,84,112)" stroke-width="0" opacity="1" d="M 235.5 192 L 245.5 192 L 246 192.5 Q 246.25 193.75 245.5 194 L 235.5 194 L 235 193.5 Q 234.75 192.25 235.5 192 Z " /><path fill="rgb(41,84,112)" stroke="rgb(41,84,112)" stroke-width="0" opacity="1" d="M 108.5 193 L 119.5 193 L 120 193.5 L 119.5 194 L 108.5 194 Q 107.5 193.5 108.5 193 Z " /><path fill="rgb(41,84,112)" stroke="rgb(41,84,112)" stroke-width="0" opacity="1" d="M 137.5 194 L 148.5 194 L 149 194.5 L 148.5 195 Q 145 194 144 195.5 Q 144.75 198.25 143.5 199 Q 141.5 198 141.5 195 L 137.5 195 Q 136.5 194.5 137.5 194 Z " /><path fill="rgb(41,84,112)" stroke="rgb(41,84,112)" stroke-width="0" opacity="1" d="M 266.5 194 L 272.5 194 L 274 195.5 Q 274.5 198.5 272.5 199 Q 265.5 200.5 264 196.5 Q 263.75 195.25 264.5 195 Q 266.25 195.25 266.5 194 Z M 268 195 Q 265 196 267 197 L 273 197 L 273 197 Q 272 194 268 195 Z " /><path fill="rgb(41,84,112)" stroke="rgb(41,84,112)" stroke-width="0" opacity="1" d="M 278.5 194 L 286.5 194 L 287 194.5 Q 287.75 198.25 285.5 199 Q 279.5 200.5 278 197.5 Q 277.25 194.75 278.5 194 Z M 280 195 Q 279 195 279 197 L 280 197 L 286 197 Q 286 197 286 196 L 286 195 L 280 195 Z " /><path fill="rgb(41,84,112)" stroke="rgb(41,84,112)" stroke-width="0" opacity="1" d="M 304.5 194 L 312.5 194 L 313 194.5 Q 314 198 312.5 199 L 304.5 199 L 304 198.5 Q 303 195 304.5 194 Z M 307 195 Q 304 196 306 197 Q 310 198 311 197 Q 310 195 307 195 Z " /><path fill="rgb(41,84,112)" stroke="rgb(41,84,112)" stroke-width="0" opacity="1" d="M 96.5 195 L 105.5 195 L 106 195.5 Q 106.75 198.25 105.5 199 Q 104.25 199.25 104 198.5 Q 104.5 196.5 103.5 196 L 96.5 196 Q 95.5 195.5 96.5 195 Z " /><path fill="rgb(41,84,112)" stroke="rgb(41,84,112)" stroke-width="0" opacity="1" d="M 109.5 195 Q 110.75 194.75 111 195.5 Q 110.75 196.75 111.5 197 L 118.5 197 L 119 197.5 Q 119.25 198.75 118.5 199 L 110.5 199 L 109 197.5 Q 108.5 195.5 109.5 195 Z " /><path fill="rgb(41,84,112)" stroke="rgb(41,84,112)" stroke-width="0" opacity="1" d="M 235.5 195 Q 236.75 194.75 237 195.5 Q 236.75 196.75 237.5 197 L 244.5 197 L 245 197.5 Q 245.25 198.75 244.5 199 L 236.5 199 L 235 197.5 Q 234.5 195.5 235.5 195 Z " /><path fill="rgb(41,84,112)" stroke="rgb(41,84,112)" stroke-width="0" opacity="1" d="M 202.5 196 Q 203.75 196.75 203 199.5 Q 202.5 200.5 202 199.5 Q 201.25 196.75 202.5 196 Z " /><path fill="rgb(41,84,112)" stroke="rgb(41,84,112)" stroke-width="0" opacity="1" d="M 315.5 196 Q 316.75 195.75 317 196.5 Q 317.25 197.75 316.5 198 Q 315.25 198.25 315 197.5 Q 314.75 196.25 315.5 196 Z " /><path fill="rgb(192,211,211)" stroke="rgb(192,211,211)" stroke-width="0" opacity="1" d="M 223.5 21 Q 227.5 20.5 228 23.5 L 227.5 24 L 225.5 22 Q 222.5 22.5 223.5 21 Z " /><path fill="rgb(192,211,211)" stroke="rgb(192,211,211)" stroke-width="0" opacity="1" d="M 228.5 32 L 232 35.5 L 231.5 36 L 228 32.5 L 228.5 32 Z " /><path fill="rgb(192,211,211)" stroke="rgb(192,211,211)" stroke-width="0" opacity="1" d="M 222.5 36 Q 222.75 40.25 226 41.5 L 225.5 42 L 222 38.5 Q 221.5 36.5 222.5 36 Z " /><path fill="rgb(192,211,211)" stroke="rgb(192,211,211)" stroke-width="0" opacity="1" d="M 227.5 37 L 231 40.5 L 230.5 41 L 227 37.5 L 227.5 37 Z " /><path fill="rgb(192,211,211)" stroke="rgb(192,211,211)" stroke-width="0" opacity="1" d="M 158.5 39 L 167.5 39 L 168 39.5 L 167.5 40 L 158.5 40 Q 157.5 39.5 158.5 39 Z " /><path fill="rgb(192,211,211)" stroke="rgb(192,211,211)" stroke-width="0" opacity="1" d="M 214.5 39 L 215 39.5 L 215 49.5 Q 214.5 50.5 214 49.5 L 214 39.5 L 214.5 39 Z " /><path fill="rgb(192,211,211)" stroke="rgb(192,211,211)" stroke-width="0" opacity="1" d="M 239.5 42 L 245.5 48 Q 246.25 46.25 247 47.5 L 245.5 49 L 239 42.5 L 239.5 42 Z " /><path fill="rgb(192,211,211)" stroke="rgb(192,211,211)" stroke-width="0" opacity="1" d="M 167.5 45 Q 169.5 44.5 170 45.5 Q 169.5 46.5 167.5 46 Q 166.5 45.5 167.5 45 Z " /><path fill="rgb(192,211,211)" stroke="rgb(192,211,211)" stroke-width="0" opacity="1" d="M 160.5 46 L 161 46.5 L 161 60.5 Q 160.5 61.5 160 60.5 L 160 46.5 L 160.5 46 Z " /><path fill="rgb(192,211,211)" stroke="rgb(192,211,211)" stroke-width="0" opacity="1" d="M 238.5 47 L 242 50.5 L 242 51.5 Q 241.75 52.25 240.5 52 Q 239.25 51.25 241 50.5 L 238 47.5 L 238.5 47 Z " /><path fill="rgb(192,211,211)" stroke="rgb(192,211,211)" stroke-width="0" opacity="1" d="M 193.5 49 L 196 51.5 L 196 52.5 Q 195.75 53.25 194.5 53 Q 193.25 52.25 195 51.5 L 193 49.5 L 193.5 49 Z " /><path fill="rgb(192,211,211)" stroke="rgb(192,211,211)" stroke-width="0" opacity="1" d="M 254.5 50 L 255 50.5 L 250.5 55 L 250 54.5 L 254.5 50 Z " /><path fill="rgb(192,211,211)" stroke="rgb(192,211,211)" stroke-width="0" opacity="1" d="M 230.5 51 Q 232.5 50.5 233 51.5 Q 232.5 52.5 230.5 52 Q 229.5 51.5 230.5 51 Z " /><path fill="rgb(192,211,211)" stroke="rgb(192,211,211)" stroke-width="0" opacity="1" d="M 205.5 53 L 218.5 53 L 219 53.5 L 218.5 54 L 205.5 54 Q 204.5 53.5 205.5 53 Z " /><path fill="rgb(192,211,211)" stroke="rgb(192,211,211)" stroke-width="0" opacity="1" d="M 231.5 53 Q 234.25 52.25 235 53.5 Q 234.25 54.75 231.5 54 Q 230.5 53.5 231.5 53 Z " /><path fill="rgb(192,211,211)" stroke="rgb(192,211,211)" stroke-width="0" opacity="1" d="M 254.5 55 L 255 55.5 L 252.5 58 L 252 57.5 L 254.5 55 Z " /><path fill="rgb(192,211,211)" stroke="rgb(192,211,211)" stroke-width="0" opacity="1" d="M 202.5 61 Q 204.5 60.5 205 61.5 Q 204.5 62.5 202.5 62 Q 201.5 61.5 202.5 61 Z " /><path fill="rgb(192,211,211)" stroke="rgb(192,211,211)" stroke-width="0" opacity="1" d="M 220.5 61 L 229.5 61 L 230 61.5 L 229.5 62 L 220.5 62 Q 219.5 61.5 220.5 61 Z " /><path fill="rgb(192,211,211)" stroke="rgb(192,211,211)" stroke-width="0" opacity="1" d="M 249.5 61 Q 251.25 62.25 250 66.5 Q 249.5 67.5 249 66.5 Q 247.75 62.25 249.5 61 Z " /><path fill="rgb(192,211,211)" stroke="rgb(192,211,211)" stroke-width="0" opacity="1" d="M 207.5 63 Q 209.5 62.5 210 63.5 Q 209.5 64.5 207.5 64 Q 206.5 63.5 207.5 63 Z " /><path fill="rgb(192,211,211)" stroke="rgb(192,211,211)" stroke-width="0" opacity="1" d="M 239.5 63 L 240 63.5 L 240 95.5 Q 239.5 96.5 239 95.5 L 239 63.5 L 239.5 63 Z " /><path fill="rgb(192,211,211)" stroke="rgb(192,211,211)" stroke-width="0" opacity="1" d="M 212.5 65 L 217.5 70 Q 218.25 68.25 219 69.5 L 217.5 71 L 212 65.5 L 212.5 65 Z " /><path fill="rgb(192,211,211)" stroke="rgb(192,211,211)" stroke-width="0" opacity="1" d="M 225.5 66 Q 226.5 66.5 226 68.5 Q 225.5 69.5 225 68.5 Q 224.5 66.5 225.5 66 Z " /><path fill="rgb(192,211,211)" stroke="rgb(192,211,211)" stroke-width="0" opacity="1" d="M 208.5 67 L 216 74.5 L 215.5 75 L 208 67.5 L 208.5 67 Z " /><path fill="rgb(192,211,211)" stroke="rgb(192,211,211)" stroke-width="0" opacity="1" d="M 190.5 68 L 195 72.5 L 194.5 73 L 190 68.5 L 190.5 68 Z " /><path fill="rgb(192,211,211)" stroke="rgb(192,211,211)" stroke-width="0" opacity="1" d="M 187.5 71 L 194 77.5 L 193.5 78 L 187 71.5 L 187.5 71 Z " /><path fill="rgb(192,211,211)" stroke="rgb(192,211,211)" stroke-width="0" opacity="1" d="M 209.5 74 L 215 79.5 L 214.5 80 L 209 74.5 L 209.5 74 Z " /><path fill="rgb(192,211,211)" stroke="rgb(192,211,211)" stroke-width="0" opacity="1" d="M 187.5 77 L 195 84.5 L 194.5 85 L 187 77.5 L 187.5 77 Z " /><path fill="rgb(192,211,211)" stroke="rgb(192,211,211)" stroke-width="0" opacity="1" d="M 207.5 78 L 213.5 84 Q 214.25 82.25 215 83.5 L 213.5 85 L 207 78.5 L 207.5 78 Z " /><path fill="rgb(192,211,211)" stroke="rgb(192,211,211)" stroke-width="0" opacity="1" d="M 225.5 79 Q 226.5 79.5 226 81.5 Q 225.5 82.5 225 81.5 Q 224.5 79.5 225.5 79 Z " /><path fill="rgb(192,211,211)" stroke="rgb(192,211,211)" stroke-width="0" opacity="1" d="M 185.5 81 L 193 88.5 L 192.5 89 L 185 81.5 L 185.5 81 Z " /><path fill="rgb(192,211,211)" stroke="rgb(192,211,211)" stroke-width="0" opacity="1" d="M 182.5 84 L 192 93.5 L 191.5 94 L 182 84.5 L 182.5 84 Z " /><path fill="rgb(192,211,211)" stroke="rgb(192,211,211)" stroke-width="0" opacity="1" d="M 207.5 84 L 213 89.5 L 212.5 90 L 207 84.5 L 207.5 84 Z " /><path fill="rgb(192,211,211)" stroke="rgb(192,211,211)" stroke-width="0" opacity="1" d="M 202.5 85 L 211 93.5 L 209.5 95 Q 208.25 94.25 210 93.5 L 202 85.5 L 202.5 85 Z " /><path fill="rgb(192,211,211)" stroke="rgb(192,211,211)" stroke-width="0" opacity="1" d="M 181.5 90 Q 184.75 89.75 185 92.5 L 184.5 93 L 182.5 91 Q 180.13 90.87 181.5 90 Z " /><path fill="rgb(192,211,211)" stroke="rgb(192,211,211)" stroke-width="0" opacity="1" d="M 174.5 93 Q 175.5 93.5 175 95.5 Q 174.5 96.5 174 95.5 Q 173.5 93.5 174.5 93 Z " /><path fill="rgb(192,211,211)" stroke="rgb(192,211,211)" stroke-width="0" opacity="1" d="M 190.5 97 Q 193.25 96.25 194 97.5 Q 193.25 98.75 190.5 98 Q 189.5 97.5 190.5 97 Z " /><path fill="rgb(192,211,211)" stroke="rgb(192,211,211)" stroke-width="0" opacity="1" d="M 168.5 99 L 173.5 99 L 174 99.5 Q 172.75 101.25 168.5 100 Q 167.5 99.5 168.5 99 Z " /><path fill="rgb(192,211,211)" stroke="rgb(192,211,211)" stroke-width="0" opacity="1" d="M 175.5 99 L 180.5 99 L 181 99.5 Q 179.75 101.25 175.5 100 Q 174.5 99.5 175.5 99 Z " /><path fill="rgb(192,211,211)" stroke="rgb(192,211,211)" stroke-width="0" opacity="1" d="M 239.5 104 Q 240.75 104.75 240 107.5 Q 239.5 108.5 239 107.5 Q 238.25 104.75 239.5 104 Z " /><path fill="rgb(192,211,211)" stroke="rgb(192,211,211)" stroke-width="0" opacity="1" d="M 149.5 106 L 150 106.5 L 145.5 111 L 145 110.5 L 149.5 106 Z " /><path fill="rgb(192,211,211)" stroke="rgb(192,211,211)" stroke-width="0" opacity="1" d="M 182.5 107 L 195.5 107 L 196 107.5 L 195.5 108 L 182.5 108 Q 181.5 107.5 182.5 107 Z " /><path fill="rgb(192,211,211)" stroke="rgb(192,211,211)" stroke-width="0" opacity="1" d="M 233.5 108 Q 235.5 107.5 236 108.5 Q 235.5 109.5 233.5 109 Q 232.5 108.5 233.5 108 Z " /><path fill="rgb(192,211,211)" stroke="rgb(192,211,211)" stroke-width="0" opacity="1" d="M 159.5 109 Q 160.75 109.75 159 110.5 L 162 113.5 L 161.5 114 L 158 110.5 L 159.5 109 Z " /><path fill="rgb(192,211,211)" stroke="rgb(192,211,211)" stroke-width="0" opacity="1" d="M 177.5 110 Q 178.5 110.5 178 112.5 Q 177.5 113.5 177 112.5 Q 176.5 110.5 177.5 110 Z " /><path fill="rgb(192,211,211)" stroke="rgb(192,211,211)" stroke-width="0" opacity="1" d="M 185.5 112 L 186 112.5 L 186 122.5 Q 185.5 123.5 185 122.5 L 185 112.5 L 185.5 112 Z " /><path fill="rgb(192,211,211)" stroke="rgb(192,211,211)" stroke-width="0" opacity="1" d="M 157.5 115 L 163 120.5 L 162.5 121 L 157 115.5 L 157.5 115 Z " /><path fill="rgb(192,211,211)" stroke="rgb(192,211,211)" stroke-width="0" opacity="1" d="M 235.5 117 Q 237.5 116.5 238 117.5 Q 237.5 118.5 235.5 118 Q 234.5 117.5 235.5 117 Z " /><path fill="rgb(192,211,211)" stroke="rgb(192,211,211)" stroke-width="0" opacity="1" d="M 219.5 118 Q 220.25 119.25 222 119.5 Q 221.75 120.25 220.5 120 Q 218 119 219.5 118 Z " /><path fill="rgb(192,211,211)" stroke="rgb(192,211,211)" stroke-width="0" opacity="1" d="M 226.5 118 Q 228.5 117.5 229 118.5 Q 228.5 119.5 226.5 119 Q 225.5 118.5 226.5 118 Z " /><path fill="rgb(192,211,211)" stroke="rgb(192,211,211)" stroke-width="0" opacity="1" d="M 204.5 120 L 205 120.5 L 200.5 125 L 199.5 125 L 196 121.5 L 196.5 121 L 199.5 124 L 200.5 124 L 204.5 120 Z " /><path fill="rgb(192,211,211)" stroke="rgb(192,211,211)" stroke-width="0" opacity="1" d="M 234.5 123 L 242.5 123 L 243 123.5 L 242.5 124 L 234.5 124 Q 233.5 123.5 234.5 123 Z " /><path fill="rgb(192,211,211)" stroke="rgb(192,211,211)" stroke-width="0" opacity="1" d="M 225.5 124 Q 227.5 123.5 228 124.5 Q 227.5 125.5 225.5 125 Q 224.5 124.5 225.5 124 Z " /><path fill="rgb(192,211,211)" stroke="rgb(192,211,211)" stroke-width="0" opacity="1" d="M 250.5 124 Q 252.5 123.5 253 124.5 Q 252.5 125.5 250.5 125 Q 249.5 124.5 250.5 124 Z " /><path fill="rgb(192,211,211)" stroke="rgb(192,211,211)" stroke-width="0" opacity="1" d="M 179.5 137 L 180 137.5 L 177.5 140 L 177 139.5 L 179.5 137 Z " /><path fill="rgb(192,211,211)" stroke="rgb(192,211,211)" stroke-width="0" opacity="1" d="M 165.5 145 Q 168.25 144.25 169 145.5 L 168.5 146 Q 165.75 145.25 165 146.5 L 165 153.5 L 164.5 154 L 164 153.5 L 164 146.5 L 165.5 145 Z " /><path fill="rgb(192,211,211)" stroke="rgb(192,211,211)" stroke-width="0" opacity="1" d="M 191.5 145 Q 195.25 144.25 196 146.5 L 196 156.5 L 195.5 157 L 195 156.5 L 195 146.5 L 194.5 146 Q 190.5 146.75 191.5 145 Z " /><path fill="rgb(192,211,211)" stroke="rgb(192,211,211)" stroke-width="0" opacity="1" d="M 220.5 145 Q 223.25 144.25 224 145.5 Q 223.25 146.75 220.5 146 Q 219.5 145.5 220.5 145 Z " /><path fill="rgb(192,211,211)" stroke="rgb(192,211,211)" stroke-width="0" opacity="1" d="M 245.5 145 Q 249.25 144.25 250 146.5 Q 251 150 249.5 151 L 249 150.5 Q 250 147 248.5 146 Q 245.75 145.25 245 146.5 L 245 159.5 L 245.5 160 Q 248.25 160.75 249 159.5 Q 248 156 249.5 155 Q 251 156 250 159.5 Q 248 160.5 250 161.5 L 250 168.5 L 249.5 169 L 249 168.5 L 249 161.5 L 248.5 161 Q 244.75 161.75 244 159.5 L 244 146.5 L 245.5 145 Z " /><path fill="rgb(192,211,211)" stroke="rgb(192,211,211)" stroke-width="0" opacity="1" d="M 203.5 146 L 216.5 146 L 218 147.5 L 218 152.5 L 217.5 153 L 217 152.5 Q 218.25 148.25 216.5 147 L 203.5 147 Q 202.5 146.5 203.5 146 Z " /><path fill="rgb(192,211,211)" stroke="rgb(192,211,211)" stroke-width="0" opacity="1" d="M 227.5 147 Q 228.5 147.5 228 149.5 Q 227.5 150.5 227 149.5 Q 226.5 147.5 227.5 147 Z " /><path fill="rgb(192,211,211)" stroke="rgb(192,211,211)" stroke-width="0" opacity="1" d="M 203.5 150 L 211.5 150 L 213 151.5 Q 214 155 212.5 156 L 212 155.5 Q 213 152 211.5 151 L 203.5 151 Q 202.5 150.5 203.5 150 Z " /><path fill="rgb(192,211,211)" stroke="rgb(192,211,211)" stroke-width="0" opacity="1" d="M 252.5 151 Q 253.75 151.75 253 154.5 Q 252 157 251 155.5 L 252 154.5 Q 251.25 151.75 252.5 151 Z " /><path fill="rgb(192,211,211)" stroke="rgb(192,211,211)" stroke-width="0" opacity="1" d="M 234.5 154 Q 236.5 153.5 237 154.5 Q 236.5 155.5 234.5 155 Q 233.5 154.5 234.5 154 Z " /><path fill="rgb(192,211,211)" stroke="rgb(192,211,211)" stroke-width="0" opacity="1" d="M 205.5 155 L 206 155.5 L 206 163.5 Q 205.5 164.5 203.5 164 Q 202.5 163.5 203.5 163 Q 204.75 163.25 205 162.5 L 205 155.5 L 205.5 155 Z " /><path fill="rgb(192,211,211)" stroke="rgb(192,211,211)" stroke-width="0" opacity="1" d="M 210.5 155 L 211 155.5 L 211 162.5 L 211.5 163 Q 213.5 162.5 214 163.5 Q 213.25 164.75 210.5 164 L 210 163.5 L 210 155.5 L 210.5 155 Z " /><path fill="rgb(192,211,211)" stroke="rgb(192,211,211)" stroke-width="0" opacity="1" d="M 164.5 156 Q 165.5 156.5 165 158.5 Q 164.5 159.5 164 158.5 Q 163.5 156.5 164.5 156 Z " /><path fill="rgb(192,211,211)" stroke="rgb(192,211,211)" stroke-width="0" opacity="1" d="M 169.5 158 Q 171 159 168.5 160 Q 166.5 160.5 166 159.5 Q 168.58 159.58 169.5 158 Z " /><path fill="rgb(192,211,211)" stroke="rgb(192,211,211)" stroke-width="0" opacity="1" d="M 224.5 158 Q 226.5 157.5 227 158.5 Q 226.5 159.5 224.5 159 Q 223.5 158.5 224.5 158 Z " /><path fill="rgb(192,211,211)" stroke="rgb(192,211,211)" stroke-width="0" opacity="1" d="M 195.5 159 Q 197.25 160.25 196 164.5 L 194.5 166 L 181.5 166 Q 180.5 165.5 181.5 165 L 194.5 165 L 195 164.5 Q 193.75 160.25 195.5 159 Z " /><path fill="rgb(192,211,211)" stroke="rgb(192,211,211)" stroke-width="0" opacity="1" d="M 149.5 160 Q 150.75 160.75 150 163.5 Q 149.5 164.5 149 163.5 Q 148.25 160.75 149.5 160 Z " /><path fill="rgb(192,211,211)" stroke="rgb(192,211,211)" stroke-width="0" opacity="1" d="M 234.5 160 Q 236.5 159.5 237 160.5 Q 236.5 161.5 234.5 161 Q 233.5 160.5 234.5 160 Z " /><path fill="rgb(192,211,211)" stroke="rgb(192,211,211)" stroke-width="0" opacity="1" d="M 229.5 161 Q 230.75 161.75 230 164.5 Q 229.5 165.5 229 164.5 Q 228.25 161.75 229.5 161 Z " /><path fill="rgb(192,211,211)" stroke="rgb(192,211,211)" stroke-width="0" opacity="1" d="M 169.5 162 Q 170.75 162.75 170 165.5 Q 169.5 166.5 169 165.5 Q 168.25 162.75 169.5 162 Z " /><path fill="rgb(192,211,211)" stroke="rgb(192,211,211)" stroke-width="0" opacity="1" d="M 244.5 166 Q 245.5 166.5 245 168.5 Q 244.5 169.5 244 168.5 Q 243.5 166.5 244.5 166 Z " /><path fill="rgb(192,211,211)" stroke="rgb(192,211,211)" stroke-width="0" opacity="1" d="M 212.5 167 Q 214.5 166.5 215 167.5 Q 214.5 168.5 212.5 168 Q 211.5 167.5 212.5 167 Z " /><path fill="rgb(192,211,211)" stroke="rgb(192,211,211)" stroke-width="0" opacity="1" d="M 176.5 169 L 195.5 169 L 196 169.5 L 195.5 170 L 176.5 170 Q 175.5 169.5 176.5 169 Z " /><path fill="rgb(192,211,211)" stroke="rgb(192,211,211)" stroke-width="0" opacity="1" d="M 200.5 173 Q 201.75 173.75 201 176.5 Q 200.5 177.5 200 176.5 Q 199.25 173.75 200.5 173 Z " /><path fill="rgb(192,211,211)" stroke="rgb(192,211,211)" stroke-width="0" opacity="1" d="M 214.5 173 Q 214.75 174.75 216 175.5 Q 215.75 176.25 214.5 176 Q 213.17 175.17 214.5 173 Z " /><path fill="rgb(192,211,211)" stroke="rgb(192,211,211)" stroke-width="0" opacity="1" d="M 200.5 178 Q 201.37 178.62 201.5 180 Q 204.5 179.5 205 181.5 Q 205.25 182.75 204.5 183 Q 203.62 182.37 203.5 181 Q 200.5 181.5 200 179.5 Q 199.75 178.25 200.5 178 Z " /><path fill="rgb(192,211,211)" stroke="rgb(192,211,211)" stroke-width="0" opacity="1" d="M 183.5 179 Q 184.5 179.5 184 181.5 Q 183.5 182.5 183 181.5 Q 182.5 179.5 183.5 179 Z " /><path fill="rgb(192,211,211)" stroke="rgb(192,211,211)" stroke-width="0" opacity="1" d="M 138.5 186 L 147.5 186 L 149 187.5 L 147.5 189 L 140.5 189 Q 139.5 188.5 140.5 188 L 147.5 188 L 148 187.5 L 147.5 187 L 138.5 187 Q 137.5 186.5 138.5 186 Z " /><path fill="rgb(192,211,211)" stroke="rgb(192,211,211)" stroke-width="0" opacity="1" d="M 161.5 186 L 162 186.5 L 162 191.5 Q 161.5 192.5 161 191.5 Q 159.75 187.25 161.5 186 Z " /><path fill="rgb(192,211,211)" stroke="rgb(192,211,211)" stroke-width="0" opacity="1" d="M 209.5 186 L 214.5 186 L 215 186.5 Q 213.75 188.25 209.5 187 Q 208.5 186.5 209.5 186 Z " /><path fill="rgb(192,211,211)" stroke="rgb(192,211,211)" stroke-width="0" opacity="1" d="M 302.5 186 L 308.5 186 L 309 186.5 L 308.5 187 L 302.5 187 Q 301.5 186.5 302.5 186 Z " /><path fill="rgb(192,211,211)" stroke="rgb(192,211,211)" stroke-width="0" opacity="1" d="M 93.5 187 Q 94.75 187.75 94 190.5 Q 93.5 191.5 93 190.5 Q 92.25 187.75 93.5 187 Z " /><path fill="rgb(192,211,211)" stroke="rgb(192,211,211)" stroke-width="0" opacity="1" d="M 133.5 187 Q 134.25 187.25 134 188.5 Q 133.37 189.37 132 189.5 Q 133.75 190.25 132.5 191 Q 131.25 191.25 131 190.5 L 131 189.5 L 133.5 187 Z " /><path fill="rgb(192,211,211)" stroke="rgb(192,211,211)" stroke-width="0" opacity="1" d="M 170.5 187 L 171 187.5 L 171 196.5 Q 170.5 197.5 170 196.5 L 170 187.5 L 170.5 187 Z " /><path fill="rgb(192,211,211)" stroke="rgb(192,211,211)" stroke-width="0" opacity="1" d="M 186.5 187 Q 187.75 187.75 187 190.5 Q 186.5 191.5 186 190.5 Q 185.25 187.75 186.5 187 Z " /><path fill="rgb(192,211,211)" stroke="rgb(192,211,211)" stroke-width="0" opacity="1" d="M 287.5 187 Q 289.25 188.25 288 192.5 Q 287 195 286 193.5 L 287 192.5 Q 285.75 188.25 287.5 187 Z " /><path fill="rgb(192,211,211)" stroke="rgb(192,211,211)" stroke-width="0" opacity="1" d="M 300.5 187 L 301 187.5 L 301 198.5 Q 300.5 199.5 300 198.5 L 300 187.5 L 300.5 187 Z " /><path fill="rgb(192,211,211)" stroke="rgb(192,211,211)" stroke-width="0" opacity="1" d="M 209.5 188 Q 212.25 187.25 213 188.5 Q 212.25 189.75 209.5 189 Q 208.5 188.5 209.5 188 Z " /><path fill="rgb(192,211,211)" stroke="rgb(192,211,211)" stroke-width="0" opacity="1" d="M 303.5 188 Q 305.5 187.5 306 188.5 Q 305.5 189.5 303.5 189 Q 302.5 188.5 303.5 188 Z " /><path fill="rgb(192,211,211)" stroke="rgb(192,211,211)" stroke-width="0" opacity="1" d="M 155.5 189 Q 156.25 190.25 158 190.5 Q 157.75 191.25 156.5 191 Q 154 190 155.5 189 Z " /><path fill="rgb(192,211,211)" stroke="rgb(192,211,211)" stroke-width="0" opacity="1" d="M 165.5 189 Q 167.25 190.25 166 194.5 Q 165.5 195.5 165 194.5 L 165 189.5 L 165.5 189 Z " /><path fill="rgb(192,211,211)" stroke="rgb(192,211,211)" stroke-width="0" opacity="1" d="M 237.5 189 L 243.5 189 L 244 189.5 L 243.5 190 L 237.5 190 Q 236.5 189.5 237.5 189 Z " /><path fill="rgb(192,211,211)" stroke="rgb(192,211,211)" stroke-width="0" opacity="1" d="M 140.5 190 L 147.5 190 L 148 190.5 L 147.5 191 L 140.5 191 Q 139.5 190.5 140.5 190 Z " /><path fill="rgb(192,211,211)" stroke="rgb(192,211,211)" stroke-width="0" opacity="1" d="M 226.5 190 Q 227.5 190.5 227 192.5 Q 225.75 193.25 225.5 195 Q 224.5 194.5 225 192.5 Q 226.25 191.75 226.5 190 Z " /><path fill="rgb(192,211,211)" stroke="rgb(192,211,211)" stroke-width="0" opacity="1" d="M 308.5 190 Q 309.75 189.75 310 190.5 Q 310.25 191.75 309.5 192 L 304.5 192 L 304 191.5 Q 304.75 190.25 307.5 191 L 308.5 190 Z " /><path fill="rgb(192,211,211)" stroke="rgb(192,211,211)" stroke-width="0" opacity="1" d="M 86.5 191 Q 87 193.5 89 194.5 L 88.5 195 L 87.5 194 Q 86.75 195.75 86 194.5 Q 85.25 191.75 86.5 191 Z " /><path fill="rgb(192,211,211)" stroke="rgb(192,211,211)" stroke-width="0" opacity="1" d="M 124.5 191 Q 124.75 192.25 126.5 192 Q 126.75 190.75 128.5 191 Q 129.5 191.5 128.5 192 Q 126.33 191.83 125.5 193 Q 123 192 124.5 191 Z " /><path fill="rgb(192,211,211)" stroke="rgb(192,211,211)" stroke-width="0" opacity="1" d="M 241.5 191 Q 243.5 190.5 244 191.5 Q 243.5 192.5 241.5 192 Q 240.5 191.5 241.5 191 Z " /><path fill="rgb(192,211,211)" stroke="rgb(192,211,211)" stroke-width="0" opacity="1" d="M 95.5 192 Q 97.25 192.25 97 194.5 Q 96.5 195.5 96 194.5 Q 96.25 192.75 95 192.5 L 95.5 192 Z " /><path fill="rgb(192,211,211)" stroke="rgb(192,211,211)" stroke-width="0" opacity="1" d="M 252.5 192 Q 253.75 192.75 253 195.5 Q 252.5 196.5 252 195.5 Q 251.25 192.75 252.5 192 Z " /><path fill="rgb(192,211,211)" stroke="rgb(192,211,211)" stroke-width="0" opacity="1" d="M 93.5 193 L 94 193.5 L 94 198.5 Q 93.5 199.5 93 198.5 Q 91.75 194.25 93.5 193 Z " /><path fill="rgb(192,211,211)" stroke="rgb(192,211,211)" stroke-width="0" opacity="1" d="M 161.5 193 Q 162.5 193.5 162 195.5 Q 160 196.5 162 197.5 Q 162.25 198.75 161.5 199 Q 160.62 198.37 160.5 197 Q 157.75 197.75 157 196.5 L 157.5 196 Q 160.25 196.75 161 195.5 Q 160.5 193.5 161.5 193 Z " /><path fill="rgb(192,211,211)" stroke="rgb(192,211,211)" stroke-width="0" opacity="1" d="M 186.5 193 Q 188.25 194.25 187 198.5 Q 186.5 199.5 186 198.5 Q 184.75 194.25 186.5 193 Z " /><path fill="rgb(192,211,211)" stroke="rgb(192,211,211)" stroke-width="0" opacity="1" d="M 302.5 193 L 309.5 193 L 310 193.5 L 309.5 194 L 302.5 194 Q 301.5 193.5 302.5 193 Z " /><path fill="rgb(192,211,211)" stroke="rgb(192,211,211)" stroke-width="0" opacity="1" d="M 109.5 194 Q 111.5 193.5 112 194.5 Q 111.5 195.5 109.5 195 Q 108.5 194.5 109.5 194 Z " /><path fill="rgb(192,211,211)" stroke="rgb(192,211,211)" stroke-width="0" opacity="1" d="M 149.5 194 Q 151 195 148.5 196 Q 146.5 196.5 146 195.5 Q 148.58 195.58 149.5 194 Z " /><path fill="rgb(192,211,211)" stroke="rgb(192,211,211)" stroke-width="0" opacity="1" d="M 256.5 194 Q 259.25 193.25 260 194.5 Q 259.25 195.75 256.5 195 Q 255.5 194.5 256.5 194 Z " /><path fill="rgb(192,211,211)" stroke="rgb(192,211,211)" stroke-width="0" opacity="1" d="M 137.5 195 Q 140.25 194.25 141 195.5 Q 140.25 196.75 137.5 196 Q 136.5 195.5 137.5 195 Z " /><path fill="rgb(192,211,211)" stroke="rgb(192,211,211)" stroke-width="0" opacity="1" d="M 144.5 195 Q 145.5 195.5 145 197.5 Q 144.5 198.5 144 197.5 Q 143.5 195.5 144.5 195 Z " /><path fill="rgb(192,211,211)" stroke="rgb(192,211,211)" stroke-width="0" opacity="1" d="M 151.5 195 Q 152.75 195.75 152 198.5 Q 151.5 199.5 151 198.5 Q 150.25 195.75 151.5 195 Z " /><path fill="rgb(192,211,211)" stroke="rgb(192,211,211)" stroke-width="0" opacity="1" d="M 97.5 196 L 103.5 196 L 104 196.5 L 103.5 197 L 97.5 197 Q 96.5 196.5 97.5 196 Z " /><path fill="rgb(192,211,211)" stroke="rgb(192,211,211)" stroke-width="0" opacity="1" d="M 83.5 197 Q 86.25 196.25 87 197.5 Q 86.25 198.75 83.5 198 Q 82.5 197.5 83.5 197 Z " /><path fill="rgb(101,164,161)" stroke="rgb(101,164,161)" stroke-width="0" opacity="1" d="M 222.5 22 Q 227.25 21.25 228 24.5 L 228 26.5 Q 225.25 28.25 224 31.5 L 224 33.5 Q 222.58 34.58 222 36.5 L 222 38.5 Q 224.31 41.69 228 43.5 Q 227.75 45.75 229.5 46 L 230.5 46 L 234 49.5 Q 234.25 50.75 233.5 51 L 229.5 51 L 222.5 44 L 222 44.5 L 222 50.5 L 221.5 51 L 215.5 51 L 215 50.5 L 215 36.5 Q 216.75 35.75 216 32.5 L 217 31.5 L 217 30.5 Q 219.46 28.46 220 24.5 L 222.5 22 Z " /><path fill="rgb(101,164,161)" stroke="rgb(101,164,161)" stroke-width="0" opacity="1" d="M 227.5 32 Q 237.47 39.53 245.5 49 Q 247.35 45.35 252.5 45 Q 255.5 45.5 255 49.5 Q 251.55 54.05 246.5 57 Q 245.33 58.33 242.5 58 L 241.5 59 L 239.5 59 L 238.5 60 L 236.5 60 L 235.5 61 L 202.5 61 L 201.5 62 L 199.5 62 L 198.5 63 L 196.5 63 Q 195.25 64.75 192.5 65 L 190 67.5 L 190 68.5 Q 193.5 70 194.5 74 Q 195.75 71.75 197 74.5 Q 196.75 76.75 198.5 77 L 199.5 77 L 212.5 90 L 214.5 90 Q 215.05 87.05 217 85.5 L 217 83.5 L 218 82.5 Q 217.5 79 219 77.5 L 208.5 67 Q 206.25 67.25 206 65.5 Q 205.75 64.25 206.5 64 L 210.5 64 L 217.5 71 Q 220.25 69.75 218 68.5 Q 217 65 218.5 64 Q 223.75 62.75 225 65.5 Q 224.25 68.75 226 69.5 L 226 78.5 L 225 79.5 L 225 83.5 L 224 84.5 L 224 86.5 L 223 87.5 Q 223.33 90.33 222 91.5 Q 218.65 97.15 213.5 101 Q 212.75 99.25 212 100.5 Q 212.25 102.75 210.5 103 Q 208.33 102.83 207.5 104 Q 206.75 102.25 206 103.5 Q 206.25 104.75 205.5 105 Q 204.5 103 200.5 104 Q 199.5 104.5 200.5 105 Q 203.25 104.25 204 105.5 Q 203.25 106.75 200.5 106 Q 200 104.5 197.5 105 Q 196.5 105.5 197.5 106 Q 198.75 105.75 199 106.5 Q 198.5 107.5 196.5 107 Q 195.75 105.75 194 105.5 Q 194.25 104.25 193.5 104 Q 190 103 189 104.5 Q 190.75 105.25 189.5 106 L 183.5 106 L 182.5 107 L 169.5 107 Q 168.5 106.5 169.5 106 L 181.5 106 Q 182.25 104.75 184 104.5 Q 181.75 103.25 184.5 102 L 192.5 102 L 193 101.5 L 192.5 101 L 184.5 101 L 184 100.5 L 184.5 100 L 194.5 100 Q 195.75 102.25 200.5 101 Q 201.5 100.5 200.5 100 Q 197.75 100.75 197 99.5 Q 198 98 201.5 99 L 202.5 98 Q 205 98.5 205.5 97 Q 206.25 98.75 207 97.5 Q 206.75 95.25 208.5 95 Q 210.75 95.25 211 93.5 Q 198.61 82.89 187.5 71 L 186.5 71 L 184 73.5 L 184 75.5 Q 182.42 76.42 182.5 79 Q 181.62 78.37 181.5 77 Q 180.88 79.88 178.5 81 L 178 80.5 L 178 73.5 L 177 72.5 Q 179.52 66.02 184.5 62 L 185.5 62 Q 188 58.5 192.5 57 L 194.5 57 L 195.5 56 Q 198 56.5 198.5 55 L 201.5 55 L 202.5 54 L 234.5 54 L 235.5 53 L 237.5 53 L 238.5 52 Q 241.25 52.75 242 51.5 L 242 50.5 L 238.5 47 L 237.5 47 L 226 35.5 L 226 34.5 Q 227.25 33.75 227.5 32 Z " /><path fill="rgb(101,164,161)" stroke="rgb(101,164,161)" stroke-width="0" opacity="1" d="M 155.5 39 Q 158 38.5 158.5 40 L 163.5 40 Q 164.25 41.75 167.5 41 Q 168.25 39.25 171.5 40 L 172.5 41 L 175.5 41 L 176.5 42 L 178.5 42 L 179.5 43 L 181.5 43 Q 182 44.5 184.5 44 Q 186.82 47.18 191.5 48 L 195 51.5 Q 193.63 53.63 190.5 54 L 188.5 52 L 187.5 52 Q 185.67 49.83 182.5 49 L 180.5 49 Q 179.42 47.58 177.5 47 L 174.5 47 L 173.5 46 Q 170.25 46.75 169.5 45 L 161.5 45 L 160 46.5 L 160 57.5 L 159 58.5 L 159 76.5 L 158.5 77 Q 158.58 74.42 157 73.5 Q 158.25 73.25 158 71.5 L 157 70.5 L 157 52.5 L 156.5 52 L 156 52.5 L 156 83.5 L 155.5 84 L 155 83.5 L 155 39.5 L 155.5 39 Z " /><path fill="rgb(101,164,161)" stroke="rgb(101,164,161)" stroke-width="0" opacity="1" d="M 145.5 49 Q 149.75 47.75 151 49.5 L 151 101.5 L 150.5 102 L 150 101.5 L 150 50.5 L 149.5 50 Q 146.75 49.25 146 50.5 L 146 103.5 L 146.5 104 Q 147.25 102.25 148 103.5 Q 147.75 105.25 145.5 105 L 145 104.5 L 145 49.5 L 145.5 49 Z " /><path fill="rgb(101,164,161)" stroke="rgb(101,164,161)" stroke-width="0" opacity="1" d="M 147.5 51 Q 148.75 50.75 149 51.5 L 149 72.5 L 148.5 73 Q 148.25 71.25 147 70.5 L 147 51.5 L 147.5 51 Z " /><path fill="rgb(101,164,161)" stroke="rgb(101,164,161)" stroke-width="0" opacity="1" d="M 254.5 56 L 255 56.5 L 255 124.5 Q 254.75 125.25 253.5 125 L 252.5 124 L 243.5 124 L 242.5 123 L 234.5 123 Q 233.25 125.25 228.5 124 L 227.5 123 L 224.5 123 Q 223.58 121.42 221 121.5 L 221.5 121 Q 224.25 121.75 225 120.5 Q 224.17 119.33 222 119.5 L 222.5 119 L 228.5 119 L 229.5 118 L 246.5 118 Q 246.75 119.25 248.5 119 L 249 118.5 L 249 67.5 Q 251.25 66.25 250 61.5 L 249 60.5 L 251.5 58 Q 254.25 58.25 254.5 56 Z " /><path fill="rgb(101,164,161)" stroke="rgb(101,164,161)" stroke-width="0" opacity="1" d="M 160.5 61 Q 162.25 62.25 161 66.5 Q 160.5 67.5 160 66.5 Q 158.75 62.25 160.5 61 Z " /><path fill="rgb(101,164,161)" stroke="rgb(101,164,161)" stroke-width="0" opacity="1" d="M 244.5 62 L 245 62.5 L 245 113.5 L 244.5 114 L 233.5 114 Q 233 115.5 230.5 115 Q 230.25 112.75 227.5 113 Q 225 114 226.5 115 Q 227.75 114.75 228 115.5 Q 224.52 115.52 222.5 117 Q 222.25 115.75 220.5 116 L 220 116.5 Q 221.75 117.25 220.5 118 Q 218.75 117.75 218.5 119 L 218 118.5 Q 219.75 117.75 218.5 117 L 217.5 117 Q 216.75 118.25 215 118.5 Q 215.62 119.37 217 119.5 Q 216.37 120.37 215 120.5 Q 216.75 120.75 217.5 122 L 219.5 122 Q 221.32 124.18 225 124.5 Q 224 126 220.5 125 Q 220.25 126.25 218.5 126 Q 217.75 124.25 214.5 125 L 213.5 126 L 206.5 126 Q 205.75 125.75 206 124.5 Q 206.25 123.75 207.5 124 Q 208.5 126 212.5 125 Q 213.25 124.75 213 123.5 Q 212.25 122.25 211.5 124 Q 210.25 124.25 210 123.5 Q 209.83 121.33 211 120.5 Q 209.25 119.75 210.5 119 Q 211.75 119.25 212 118.5 Q 212.25 116.75 211 116.5 Q 211.75 115.25 212.5 117 Q 215.25 117.75 216 116.5 Q 216.25 114.75 215 114.5 Q 217.95 113.95 219.5 112 L 221.5 112 L 222.5 111 L 225.5 111 L 226.5 110 L 230.5 110 Q 231.25 108.25 234.5 109 Q 235.25 110.75 238.5 110 Q 239.5 109.5 238.5 109 Q 236.5 109.5 236 108.5 Q 236.75 107.25 239.5 108 L 241 106.5 L 241 100.5 L 240.5 100 L 240 100.5 Q 240.75 103.25 239.5 104 L 239 103.5 L 239 96.5 Q 239.5 95.5 240 96.5 Q 239.5 98.5 240.5 99 Q 242 98 241 94.5 L 240 93.5 L 240 65.5 L 241 64.5 Q 239.25 63.75 240.5 63 Q 243.75 63.75 244.5 62 Z M 215 122 Q 214 123 215 123 Q 216 123 217 123 Q 216 121 215 122 Z " /><path fill="rgb(101,164,161)" stroke="rgb(101,164,161)" stroke-width="0" opacity="1" d="M 198.5 65 Q 198.75 67.25 201.5 67 L 215 80.5 Q 215.5 83.5 213.5 84 Q 210.25 79.25 205 76.5 Q 205.25 74.25 203.5 74 L 202.5 74 L 196 67.5 Q 195.75 66.25 196.5 66 Q 198.25 66.25 198.5 65 Z " /><path fill="rgb(101,164,161)" stroke="rgb(101,164,161)" stroke-width="0" opacity="1" d="M 160.5 69 L 161 69.5 L 161 94.5 Q 160.5 95.5 160 94.5 L 160 69.5 L 160.5 69 Z " /><path fill="rgb(101,164,161)" stroke="rgb(101,164,161)" stroke-width="0" opacity="1" d="M 175.5 77 Q 176.5 77.5 176 79.5 Q 175.5 80.5 175 79.5 Q 174.5 77.5 175.5 77 Z " /><path fill="rgb(101,164,161)" stroke="rgb(101,164,161)" stroke-width="0" opacity="1" d="M 186.5 77 L 194 84.5 Q 193.75 85.75 194.5 86 L 195.5 85 L 204 93.5 Q 204.25 94.75 203.5 95 Q 201.75 94.75 201.5 96 Q 201.25 94.75 199.5 95 L 185 80.5 Q 184.5 77.5 186.5 77 Z M 187 78 Q 186 78 186 80 Q 186 80 188 80 Q 189 79 187 78 Z " /><path fill="rgb(101,164,161)" stroke="rgb(101,164,161)" stroke-width="0" opacity="1" d="M 181.5 81 Q 181.5 87 186 88.5 Q 181.75 90.75 186.5 93 Q 187 91.5 189.5 92 Q 191.25 92.25 191 94.5 Q 190.37 95.37 189 95.5 Q 190.75 96.25 189.5 97 Q 185.88 91.62 180 88.5 Q 180.62 87.62 182 87.5 Q 182.5 85.5 181.5 85 Q 181.25 86.25 179.5 86 Q 178.75 84.75 177 84.5 Q 178.25 81.75 179.5 84 Q 180.75 84.25 181 83.5 Q 180.5 81.5 181.5 81 Z " /><path fill="rgb(101,164,161)" stroke="rgb(101,164,161)" stroke-width="0" opacity="1" d="M 174.5 82 L 175 82.5 L 175 92.5 Q 174.5 93.5 174 92.5 L 174 82.5 L 174.5 82 Z " /><path fill="rgb(101,164,161)" stroke="rgb(101,164,161)" stroke-width="0" opacity="1" d="M 176.5 91 Q 177.75 90.75 178 91.5 Q 176.42 92.42 176.5 95 Q 174.94 93.94 176.5 91 Z " /><path fill="rgb(101,164,161)" stroke="rgb(101,164,161)" stroke-width="0" opacity="1" d="M 181.5 91 Q 182.75 91.75 182 94.5 Q 181.25 95.75 178.5 95 Q 177.5 94.5 178.5 94 Q 180.5 94.5 181 93.5 Q 180.5 91.5 181.5 91 Z " /><path fill="rgb(101,164,161)" stroke="rgb(101,164,161)" stroke-width="0" opacity="1" d="M 192.5 94 L 195 96.5 L 194.5 97 L 192 94.5 L 192.5 94 Z " /><path fill="rgb(101,164,161)" stroke="rgb(101,164,161)" stroke-width="0" opacity="1" d="M 175.5 96 L 181.5 96 L 182 96.5 L 181.5 97 L 175.5 97 Q 174.5 96.5 175.5 96 Z " /><path fill="rgb(101,164,161)" stroke="rgb(101,164,161)" stroke-width="0" opacity="1" d="M 164.5 100 Q 166.5 99.5 167 100.5 Q 166.5 101.5 164.5 101 Q 163.5 100.5 164.5 100 Z " /><path fill="rgb(101,164,161)" stroke="rgb(101,164,161)" stroke-width="0" opacity="1" d="M 170.5 110 L 176 115.5 L 175.5 116 L 170 110.5 L 170.5 110 Z " /><path fill="rgb(101,164,161)" stroke="rgb(101,164,161)" stroke-width="0" opacity="1" d="M 178.5 110 L 184.5 110 L 185 110.5 L 184.5 111 L 178.5 111 Q 177.5 110.5 178.5 110 Z " /><path fill="rgb(101,164,161)" stroke="rgb(101,164,161)" stroke-width="0" opacity="1" d="M 145.5 111 Q 146.5 111.5 146 113.5 Q 145.5 114.5 145 113.5 Q 144.5 111.5 145.5 111 Z " /><path fill="rgb(101,164,161)" stroke="rgb(101,164,161)" stroke-width="0" opacity="1" d="M 153.5 112 L 154.5 112 L 157 114.5 L 156.5 115 L 154.5 113 L 153.5 113 L 150.5 116 L 147.5 116 Q 146.5 115.5 147.5 115 Q 152.75 115.75 153.5 112 Z " /><path fill="rgb(101,164,161)" stroke="rgb(101,164,161)" stroke-width="0" opacity="1" d="M 168.5 113 L 178 122.5 L 177.5 123 L 168 113.5 L 168.5 113 Z " /><path fill="rgb(101,164,161)" stroke="rgb(101,164,161)" stroke-width="0" opacity="1" d="M 162.5 114 L 174 125.5 L 174 126.5 Q 173.5 127.5 173 126.5 L 173 125.5 L 162 114.5 L 162.5 114 Z " /><path fill="rgb(101,164,161)" stroke="rgb(101,164,161)" stroke-width="0" opacity="1" d="M 189.5 117 Q 191.75 116.75 192 118.5 L 191.5 119 Q 190.75 117.25 190 118.5 Q 191 122 189.5 123 L 189 122.5 Q 187.75 118.25 189.5 117 Z " /><path fill="rgb(101,164,161)" stroke="rgb(101,164,161)" stroke-width="0" opacity="1" d="M 206.5 119 L 207 119.5 L 204.5 122 L 204 121.5 L 206.5 119 Z " /><path fill="rgb(101,164,161)" stroke="rgb(101,164,161)" stroke-width="0" opacity="1" d="M 165.5 122 L 171.5 128 Q 172.75 127.75 173 128.5 Q 172.75 129.25 171.5 129 L 165 122.5 L 165.5 122 Z " /><path fill="rgb(101,164,161)" stroke="rgb(101,164,161)" stroke-width="0" opacity="1" d="M 188.5 125 Q 189.5 125.5 189 127.5 Q 188.5 128.5 188 127.5 Q 187.5 125.5 188.5 125 Z " /><path fill="rgb(101,164,161)" stroke="rgb(101,164,161)" stroke-width="0" opacity="1" d="M 208.5 127 Q 209.25 128.25 211 128.5 Q 210.75 129.25 209.5 129 Q 207 128 208.5 127 Z " /><path fill="rgb(101,164,161)" stroke="rgb(101,164,161)" stroke-width="0" opacity="1" d="M 198.5 132 Q 201.25 131.25 202 132.5 Q 201.25 133.75 198.5 133 Q 197.5 132.5 198.5 132 Z " /><path fill="rgb(101,164,161)" stroke="rgb(101,164,161)" stroke-width="0" opacity="1" d="M 173.5 133 Q 174.75 133.75 173 134.5 Q 173.25 135.75 172.5 136 Q 171.75 135.75 172 134.5 L 173.5 133 Z " /><path fill="rgb(101,164,161)" stroke="rgb(101,164,161)" stroke-width="0" opacity="1" d="M 172.5 137 Q 173.58 139.42 177 139.5 Q 176.5 140.5 174.5 140 L 172 137.5 L 172.5 137 Z " /><path fill="rgb(101,164,161)" stroke="rgb(101,164,161)" stroke-width="0" opacity="1" d="M 152.5 146 Q 153.5 146.5 153 148.5 Q 152.5 149.5 152 148.5 Q 151.5 146.5 152.5 146 Z " /><path fill="rgb(101,164,161)" stroke="rgb(101,164,161)" stroke-width="0" opacity="1" d="M 219.5 146 L 220 146.5 L 220 160.5 Q 219.5 161.5 219 160.5 L 219 146.5 L 219.5 146 Z " /><path fill="rgb(101,164,161)" stroke="rgb(101,164,161)" stroke-width="0" opacity="1" d="M 177.5 150 L 179 151.5 L 176.5 154 L 176 153.5 L 178 151.5 Q 176.25 150.75 177.5 150 Z " /><path fill="rgb(101,164,161)" stroke="rgb(101,164,161)" stroke-width="0" opacity="1" d="M 183.5 150 Q 185.5 149.5 186 150.5 Q 185.5 151.5 183.5 151 Q 182.5 150.5 183.5 150 Z " /><path fill="rgb(101,164,161)" stroke="rgb(101,164,161)" stroke-width="0" opacity="1" d="M 228.5 150 L 242.5 150 L 243 150.5 Q 239.52 150.52 237.5 152 Q 237 150.5 234.5 151 Q 234.25 152.25 232.5 152 Q 231.75 150.25 228.5 151 Q 227.5 150.5 228.5 150 Z " /><path fill="rgb(101,164,161)" stroke="rgb(101,164,161)" stroke-width="0" opacity="1" d="M 153.5 152 Q 157.25 151.25 158 153.5 Q 158.25 154.75 157.5 155 Q 156.62 154.37 156.5 153 Q 153.75 152.25 153 153.5 Q 153.25 154.75 152.5 155 Q 151.75 154.75 152 153.5 L 153.5 152 Z " /><path fill="rgb(101,164,161)" stroke="rgb(101,164,161)" stroke-width="0" opacity="1" d="M 187.5 153 Q 187.75 154.75 189 155.5 Q 188 157 187 154.5 Q 186.75 153.25 187.5 153 Z " /><path fill="rgb(101,164,161)" stroke="rgb(101,164,161)" stroke-width="0" opacity="1" d="M 169.5 154 Q 171.5 153.5 172 154.5 Q 171.5 155.5 169.5 155 Q 168.5 154.5 169.5 154 Z " /><path fill="rgb(101,164,161)" stroke="rgb(101,164,161)" stroke-width="0" opacity="1" d="M 176.5 157 L 177.5 158 L 185.5 158 Q 186.5 156 187.5 158 L 190.5 158 Q 191.25 156.25 194.5 157 Q 195.25 157.25 195 158.5 L 194.5 159 L 177.5 159 Q 175 158 176.5 157 Z " /><path fill="rgb(101,164,161)" stroke="rgb(101,164,161)" stroke-width="0" opacity="1" d="M 148.5 158 L 161.5 158 L 162 158.5 L 161.5 159 L 148.5 159 Q 147.5 158.5 148.5 158 Z " /><path fill="rgb(101,164,161)" stroke="rgb(101,164,161)" stroke-width="0" opacity="1" d="M 216.5 158 Q 217.5 158.5 217 160.5 Q 216.5 161.5 216 160.5 Q 215.5 158.5 216.5 158 Z " /><path fill="rgb(101,164,161)" stroke="rgb(101,164,161)" stroke-width="0" opacity="1" d="M 165.5 159 Q 166.42 160.58 169 160.5 L 168.5 161 L 162.5 161 Q 161.5 160.5 162.5 160 Q 165 160.5 165.5 159 Z " /><path fill="rgb(101,164,161)" stroke="rgb(101,164,161)" stroke-width="0" opacity="1" d="M 150.5 160 L 160.5 160 L 161 160.5 L 160.5 161 L 150.5 161 Q 149.5 160.5 150.5 160 Z " /><path fill="rgb(101,164,161)" stroke="rgb(101,164,161)" stroke-width="0" opacity="1" d="M 176.5 161 L 190.5 161 L 191 161.5 Q 191.25 162.75 190.5 163 L 176.5 163 L 176 162.5 Q 175.75 161.25 176.5 161 Z " /><path fill="rgb(101,164,161)" stroke="rgb(101,164,161)" stroke-width="0" opacity="1" d="M 245.5 161 Q 247.5 160.5 248 161.5 Q 247.5 162.5 245.5 162 Q 244.5 161.5 245.5 161 Z " /><path fill="rgb(101,164,161)" stroke="rgb(101,164,161)" stroke-width="0" opacity="1" d="M 214.5 163 Q 216.5 162.5 217 163.5 Q 216.5 164.5 214.5 164 Q 213.5 163.5 214.5 163 Z " /><path fill="rgb(101,164,161)" stroke="rgb(101,164,161)" stroke-width="0" opacity="1" d="M 219.5 163 Q 221.25 164.25 220 168.5 Q 219.5 169.5 219 168.5 Q 219.33 165.67 218 164.5 L 219.5 163 Z " /><path fill="rgb(101,164,161)" stroke="rgb(101,164,161)" stroke-width="0" opacity="1" d="M 164.5 166 Q 165.67 166.83 165.5 169 Q 168.25 168.25 169 169.5 Q 168.25 170.75 165.5 170 Q 163 169 164.5 166 Z " /><path fill="rgb(101,164,161)" stroke="rgb(101,164,161)" stroke-width="0" opacity="1" d="M 203.5 167 L 211.5 167 L 212 167.5 L 211.5 168 L 203.5 168 Q 202.5 167.5 203.5 167 Z " /><path fill="rgb(101,164,161)" stroke="rgb(101,164,161)" stroke-width="0" opacity="1" d="M 245.5 169 Q 248.25 168.25 249 169.5 Q 248.25 170.75 245.5 170 Q 244.5 169.5 245.5 169 Z " /><path fill="rgb(101,164,161)" stroke="rgb(101,164,161)" stroke-width="0" opacity="1" d="M 183.5 173 Q 186.25 172.25 187 173.5 Q 186.25 174.75 183.5 174 Q 182.5 173.5 183.5 173 Z " /><path fill="rgb(101,164,161)" stroke="rgb(101,164,161)" stroke-width="0" opacity="1" d="M 198.5 173 L 199 173.5 L 199 181.5 L 199.5 182 Q 203 181 204 182.5 Q 203 184 199.5 183 L 198 181.5 L 198 173.5 L 198.5 173 Z " /><path fill="rgb(101,164,161)" stroke="rgb(101,164,161)" stroke-width="0" opacity="1" d="M 212.5 173 L 213 173.5 L 213 181.5 L 214 182.5 Q 213 184 212 181.5 L 212 173.5 L 212.5 173 Z " /><path fill="rgb(101,164,161)" stroke="rgb(101,164,161)" stroke-width="0" opacity="1" d="M 190.5 179 Q 193.25 178.25 194 179.5 Q 194.25 180.75 193.5 181 Q 191.33 181.17 190.5 180 Q 189.5 179.5 190.5 179 Z " /><path fill="rgb(101,164,161)" stroke="rgb(101,164,161)" stroke-width="0" opacity="1" d="M 205.5 181 Q 206.25 182.25 208 182.5 Q 207.75 183.25 206.5 183 Q 204 182 205.5 181 Z " /><path fill="rgb(101,164,161)" stroke="rgb(101,164,161)" stroke-width="0" opacity="1" d="M 92.5 186 Q 93.75 186.75 92 187.5 L 92 198.5 L 91.5 199 Q 91.13 196.88 89.5 196 Q 86.75 196.75 86 195.5 L 86.5 195 Q 90 196 91 194.5 L 91 187.5 L 92.5 186 Z " /><path fill="rgb(101,164,161)" stroke="rgb(101,164,161)" stroke-width="0" opacity="1" d="M 98.5 186 Q 100 187 97.5 188 Q 95.5 188.5 95 187.5 Q 97.58 187.58 98.5 186 Z " /><path fill="rgb(101,164,161)" stroke="rgb(101,164,161)" stroke-width="0" opacity="1" d="M 111.5 186 L 116.5 186 L 117 186.5 Q 115.75 188.25 111.5 187 Q 110.5 186.5 111.5 186 Z " /><path fill="rgb(101,164,161)" stroke="rgb(101,164,161)" stroke-width="0" opacity="1" d="M 128.5 186 Q 129.42 187.58 132 187.5 Q 131.75 188.75 132.5 189 Q 134.75 189.25 135 187.5 Q 133.25 186.75 134.5 186 Q 137 187 136 191.5 Q 134.75 191.75 135 193.5 Q 136.25 193.75 136 195.5 Q 134 196.5 136 197.5 Q 136.25 198.75 135.5 199 L 126.5 199 L 126 198.5 Q 125.67 195.67 127 194.5 Q 125.25 193.75 126.5 193 L 133.5 193 L 134 192.5 L 134 191.5 L 131.5 189 Q 129.5 188.5 129 189.5 Q 131.13 189.87 132 191.5 Q 131.5 192.5 129.5 192 Q 129.25 190.75 127.5 191 Q 127.25 192.25 125.5 192 Q 124 191 126.5 190 Q 127.75 190.25 128 189.5 Q 127.17 188.33 125 188.5 Q 124.75 187.25 125.5 187 Q 128 187.5 128.5 186 Z " /><path fill="rgb(101,164,161)" stroke="rgb(101,164,161)" stroke-width="0" opacity="1" d="M 153.5 186 Q 157 186.5 158.5 189 Q 160.12 188.13 160.5 186 L 161 186.5 L 161 195.5 L 160.5 196 Q 157.75 195.25 157 196.5 L 157.5 197 Q 160.25 196.25 161 197.5 Q 161.25 198.75 160.5 199 L 152.5 199 L 152 198.5 Q 150.75 194.25 152.5 193 L 159.5 193 L 160 192.5 Q 160.25 191.25 159.5 191 Q 158.33 192.33 155.5 192 Q 155.25 190.75 153.5 191 Q 153 192.5 150.5 192 Q 149.5 191.5 150.5 191 Q 152.75 191.25 153 189.5 Q 152.37 188.62 151 188.5 Q 150.75 187.25 151.5 187 Q 153.25 187.25 153.5 186 Z M 156 189 Q 154 190 157 191 Q 158 191 158 191 Q 158 189 156 189 Z " /><path fill="rgb(101,164,161)" stroke="rgb(101,164,161)" stroke-width="0" opacity="1" d="M 254.5 186 Q 255.42 187.58 258 187.5 Q 257.75 188.75 258.5 189 Q 259.75 189.25 260 188.5 Q 259.5 186.5 260.5 186 Q 263 187 262 191.5 Q 260 192.5 262 193.5 Q 262.5 196 261 196.5 Q 262.25 196.75 262 198.5 L 261.5 199 L 253.5 199 Q 251.75 198.75 252 196.5 Q 253.58 195.58 253.5 193 L 259.5 193 L 260 192.5 L 260 191.5 L 257.5 189 Q 256.25 188.75 256 189.5 L 258 191.5 L 257.5 192 Q 255.33 192.17 254.5 191 Q 253.42 192.42 251.5 193 Q 250.75 192.75 251 191.5 Q 251.87 189.87 254 189.5 Q 253.17 188.33 251 188.5 Q 250.75 187.25 251.5 187 Q 254 187.5 254.5 186 Z M 257 194 Q 256 195 257 195 Q 259 196 260 195 Q 259 193 257 194 Z " /><path fill="rgb(101,164,161)" stroke="rgb(101,164,161)" stroke-width="0" opacity="1" d="M 299.5 186 Q 300.75 186.75 299 187.5 Q 299.75 190.25 298.5 191 Q 297.25 190.25 298 187.5 L 299.5 186 Z " /><path fill="rgb(101,164,161)" stroke="rgb(101,164,161)" stroke-width="0" opacity="1" d="M 163.5 187 L 164 187.5 L 164 196.5 Q 163.5 197.5 163 196.5 L 163 187.5 L 163.5 187 Z " /><path fill="rgb(101,164,161)" stroke="rgb(101,164,161)" stroke-width="0" opacity="1" d="M 166.5 188 Q 168.75 187.75 169 189.5 Q 170.25 194.75 167.5 196 Q 165.5 196.5 165 195.5 Q 165.83 194.33 168 194.5 L 168 189.5 L 167.5 189 Q 165.12 188.87 166.5 188 Z " /><path fill="rgb(101,164,161)" stroke="rgb(101,164,161)" stroke-width="0" opacity="1" d="M 184.5 188 L 185 188.5 L 185 198.5 Q 184.5 199.5 184 198.5 L 184 188.5 L 184.5 188 Z " /><path fill="rgb(101,164,161)" stroke="rgb(101,164,161)" stroke-width="0" opacity="1" d="M 189.5 188 Q 191.5 187.5 192 188.5 Q 191.5 189.5 189.5 189 Q 188.5 188.5 189.5 188 Z " /><path fill="rgb(101,164,161)" stroke="rgb(101,164,161)" stroke-width="0" opacity="1" d="M 219.5 188 L 220 188.5 L 220 195.5 Q 218 196.5 220 197.5 Q 220.25 198.75 219.5 199 Q 218.62 198.37 218.5 197 Q 214.25 198.25 213 196.5 L 213.5 196 L 218.5 196 L 219 195.5 L 219 188.5 L 219.5 188 Z " /><path fill="rgb(101,164,161)" stroke="rgb(101,164,161)" stroke-width="0" opacity="1" d="M 222.5 188 Q 226 187 227 188.5 Q 226 190 222.5 189 Q 221.5 188.5 222.5 188 Z " /><path fill="rgb(101,164,161)" stroke="rgb(101,164,161)" stroke-width="0" opacity="1" d="M 272.5 188 Q 274 189 271.5 190 Q 267.25 191.25 266 189.5 L 266.5 189 L 271.5 189 L 272.5 188 Z " /><path fill="rgb(101,164,161)" stroke="rgb(101,164,161)" stroke-width="0" opacity="1" d="M 308.5 188 L 311 190.5 L 310.5 191 L 308 188.5 L 308.5 188 Z " /><path fill="rgb(101,164,161)" stroke="rgb(101,164,161)" stroke-width="0" opacity="1" d="M 215.5 189 L 216 189.5 Q 214.25 190.25 215.5 191 Q 217.5 190.5 218 191.5 Q 217.5 192.5 215.5 192 Q 212.5 190.5 215.5 189 Z " /><path fill="rgb(101,164,161)" stroke="rgb(101,164,161)" stroke-width="0" opacity="1" d="M 281.5 189 L 282.5 190 Q 283.25 188.25 284 189.5 L 281.5 192 L 280 190.5 L 281.5 189 Z " /><path fill="rgb(101,164,161)" stroke="rgb(101,164,161)" stroke-width="0" opacity="1" d="M 289.5 189 Q 291.5 188.5 292 189.5 Q 291.5 190.5 289.5 190 Q 288.5 189.5 289.5 189 Z " /><path fill="rgb(101,164,161)" stroke="rgb(101,164,161)" stroke-width="0" opacity="1" d="M 294.5 189 Q 296.5 188.5 297 189.5 Q 296.5 190.5 294.5 190 Q 293.5 189.5 294.5 189 Z " /><path fill="rgb(101,164,161)" stroke="rgb(101,164,161)" stroke-width="0" opacity="1" d="M 302.5 189 Q 303.75 189.75 303 192.5 Q 302.5 193.5 302 192.5 Q 301.25 189.75 302.5 189 Z " /><path fill="rgb(101,164,161)" stroke="rgb(101,164,161)" stroke-width="0" opacity="1" d="M 109.5 190 Q 110.58 191.42 112.5 192 L 119.5 192 L 120 192.5 L 119.5 193 L 108.5 193 Q 107.5 192.5 108.5 192 Q 109.75 192.25 110 191.5 Q 108.25 190.75 109.5 190 Z " /><path fill="rgb(101,164,161)" stroke="rgb(101,164,161)" stroke-width="0" opacity="1" d="M 285.5 190 Q 286.75 190.75 286 193.5 Q 284.75 195.25 280.5 194 Q 279.5 193.5 280.5 193 Q 283 193.5 283.5 192 Q 284.25 193.75 285 192.5 Q 284.5 190.5 285.5 190 Z " /><path fill="rgb(101,164,161)" stroke="rgb(101,164,161)" stroke-width="0" opacity="1" d="M 97.5 191 Q 98.25 192.25 100 192.5 Q 99.75 193.25 98.5 193 Q 96 192 97.5 191 Z " /><path fill="rgb(101,164,161)" stroke="rgb(101,164,161)" stroke-width="0" opacity="1" d="M 148.5 191 L 149 191.5 L 148 192.5 Q 149.75 193.25 148.5 194 Q 145 194.5 143.5 193 Q 142.5 195 138.5 194 Q 137 193 139.5 192 Q 140.5 194 141.5 192 L 147.5 192 L 148.5 191 Z " /><path fill="rgb(101,164,161)" stroke="rgb(101,164,161)" stroke-width="0" opacity="1" d="M 228.5 191 Q 229.5 191.5 229 193.5 Q 228.5 194.5 228 193.5 Q 227.5 191.5 228.5 191 Z " /><path fill="rgb(101,164,161)" stroke="rgb(101,164,161)" stroke-width="0" opacity="1" d="M 233.5 191 Q 235.25 191.25 235 193.5 Q 234.5 194.5 234 193.5 Q 234.25 191.75 233 191.5 L 233.5 191 Z " /><path fill="rgb(101,164,161)" stroke="rgb(101,164,161)" stroke-width="0" opacity="1" d="M 84.5 192 Q 85.5 192.5 85 194.5 Q 84 197 83 195.5 Q 84.58 194.58 84.5 192 Z " /><path fill="rgb(101,164,161)" stroke="rgb(101,164,161)" stroke-width="0" opacity="1" d="M 102.5 192 L 103 192.5 Q 101.25 193.25 102.5 194 Q 104.25 194.25 104.5 193 Q 107 194 105.5 195 L 97.5 195 L 97 194.5 Q 97.75 193.25 100.5 194 L 102.5 192 Z " /><path fill="rgb(101,164,161)" stroke="rgb(101,164,161)" stroke-width="0" opacity="1" d="M 263.5 192 L 264.5 193 L 274.5 193 L 275 193.5 Q 273.75 196.25 272.5 194 L 266.5 194 L 265.5 195 L 263 192.5 L 263.5 192 Z " /><path fill="rgb(101,164,161)" stroke="rgb(101,164,161)" stroke-width="0" opacity="1" d="M 210.5 194 L 217.5 194 L 218 194.5 L 217.5 195 L 211.5 195 L 210.5 196 Q 209.37 195.37 210.5 194 Z " /><path fill="rgb(101,164,161)" stroke="rgb(101,164,161)" stroke-width="0" opacity="1" d="M 303.5 194 Q 305 195 304 198.5 Q 303.5 199.5 303 198.5 Q 302 195 303.5 194 Z " /><path fill="rgb(101,164,161)" stroke="rgb(101,164,161)" stroke-width="0" opacity="1" d="M 267.5 195 Q 270.25 194.25 271 195.5 Q 270.25 196.75 267.5 196 Q 266.5 195.5 267.5 195 Z " /><path fill="rgb(101,164,161)" stroke="rgb(101,164,161)" stroke-width="0" opacity="1" d="M 306.5 195 Q 308.5 194.5 309 195.5 Q 308.5 196.5 306.5 196 Q 305.5 195.5 306.5 195 Z " /><path fill="rgb(101,164,161)" stroke="rgb(101,164,161)" stroke-width="0" opacity="1" d="M 178.5 197 Q 180.5 196.5 181 197.5 Q 180.5 198.5 178.5 198 Q 177.5 197.5 178.5 197 Z " /><path fill="rgb(235,244,240)" stroke="rgb(235,244,240)" stroke-width="0" opacity="1" d="M 228.5 24 Q 229.5 24.5 229 26.5 Q 228 29 227 27.5 Q 228.58 26.58 228.5 24 Z " /><path fill="rgb(235,244,240)" stroke="rgb(235,244,240)" stroke-width="0" opacity="1" d="M 232.5 35 L 239 41.5 L 238.5 42 L 232 35.5 L 232.5 35 Z " /><path fill="rgb(235,244,240)" stroke="rgb(235,244,240)" stroke-width="0" opacity="1" d="M 154.5 39 L 155 39.5 L 155 97.5 Q 154.5 98.5 154 97.5 L 154 39.5 L 154.5 39 Z " /><path fill="rgb(235,244,240)" stroke="rgb(235,244,240)" stroke-width="0" opacity="1" d="M 231.5 41 L 238 47.5 L 237.5 48 L 231 41.5 L 231.5 41 Z " /><path fill="rgb(235,244,240)" stroke="rgb(235,244,240)" stroke-width="0" opacity="1" d="M 223.5 45 L 230 51.5 L 229.5 52 L 223.5 46 Q 222.75 47.75 222 46.5 L 223.5 45 Z " /><path fill="rgb(235,244,240)" stroke="rgb(235,244,240)" stroke-width="0" opacity="1" d="M 253.5 45 Q 256.5 45.5 256 49.5 Q 255.5 50.5 255 49.5 L 255 47.5 L 253 45.5 L 253.5 45 Z " /><path fill="rgb(235,244,240)" stroke="rgb(235,244,240)" stroke-width="0" opacity="1" d="M 231.5 46 L 235 49.5 L 234.5 50 L 231 46.5 L 231.5 46 Z " /><path fill="rgb(235,244,240)" stroke="rgb(235,244,240)" stroke-width="0" opacity="1" d="M 144.5 49 L 145 49.5 L 145 84.5 Q 144.5 85.5 144 84.5 L 144 49.5 L 144.5 49 Z " /><path fill="rgb(235,244,240)" stroke="rgb(235,244,240)" stroke-width="0" opacity="1" d="M 218.5 51 Q 222 50 223 51.5 Q 222 53 218.5 52 Q 217.5 51.5 218.5 51 Z " /><path fill="rgb(235,244,240)" stroke="rgb(235,244,240)" stroke-width="0" opacity="1" d="M 233.5 51 Q 236.5 50.5 237 52.5 Q 236.75 53.25 235.5 53 Q 234.75 51.75 233 51.5 L 233.5 51 Z " /><path fill="rgb(235,244,240)" stroke="rgb(235,244,240)" stroke-width="0" opacity="1" d="M 219.5 53 L 230.5 53 L 231 53.5 L 230.5 54 L 219.5 54 Q 218.5 53.5 219.5 53 Z " /><path fill="rgb(235,244,240)" stroke="rgb(235,244,240)" stroke-width="0" opacity="1" d="M 255.5 59 L 256 59.5 L 256 104.5 Q 255.5 105.5 255 104.5 L 255 59.5 L 255.5 59 Z " /><path fill="rgb(235,244,240)" stroke="rgb(235,244,240)" stroke-width="0" opacity="1" d="M 216.5 61 Q 219.25 60.25 220 61.5 Q 219.25 62.75 216.5 62 Q 215.5 61.5 216.5 61 Z " /><path fill="rgb(235,244,240)" stroke="rgb(235,244,240)" stroke-width="0" opacity="1" d="M 230.5 61 Q 233.25 60.25 234 61.5 Q 233.25 62.75 230.5 62 Q 229.5 61.5 230.5 61 Z " /><path fill="rgb(235,244,240)" stroke="rgb(235,244,240)" stroke-width="0" opacity="1" d="M 244.5 61 L 246 62.5 L 246 113.5 Q 245.5 114.5 245 113.5 L 245 62.5 Q 243.25 61.75 244.5 61 Z " /><path fill="rgb(235,244,240)" stroke="rgb(235,244,240)" stroke-width="0" opacity="1" d="M 195.5 66 Q 196.25 66.25 196 67.5 L 201 72.5 L 200.5 73 L 195 67.5 Q 194.75 66.25 195.5 66 Z " /><path fill="rgb(235,244,240)" stroke="rgb(235,244,240)" stroke-width="0" opacity="1" d="M 202.5 67 L 209 73.5 L 208.5 74 L 202 67.5 L 202.5 67 Z " /><path fill="rgb(235,244,240)" stroke="rgb(235,244,240)" stroke-width="0" opacity="1" d="M 200.5 77 L 203 79.5 L 202.5 80 L 200 77.5 L 200.5 77 Z " /><path fill="rgb(235,244,240)" stroke="rgb(235,244,240)" stroke-width="0" opacity="1" d="M 194.5 78 L 201 84.5 L 200.5 85 L 194 78.5 L 194.5 78 Z " /><path fill="rgb(235,244,240)" stroke="rgb(235,244,240)" stroke-width="0" opacity="1" d="M 144.5 86 L 145 86.5 L 145 101.5 Q 144.5 102.5 144 101.5 L 144 86.5 L 144.5 86 Z " /><path fill="rgb(235,244,240)" stroke="rgb(235,244,240)" stroke-width="0" opacity="1" d="M 193.5 89 L 199 94.5 L 198.5 95 L 193 89.5 L 193.5 89 Z " /><path fill="rgb(235,244,240)" stroke="rgb(235,244,240)" stroke-width="0" opacity="1" d="M 200.5 89 L 204 92.5 L 203.5 93 L 200 89.5 L 200.5 89 Z " /><path fill="rgb(235,244,240)" stroke="rgb(235,244,240)" stroke-width="0" opacity="1" d="M 185.5 93 L 190 97.5 L 189.5 98 L 185 93.5 L 185.5 93 Z " /><path fill="rgb(235,244,240)" stroke="rgb(235,244,240)" stroke-width="0" opacity="1" d="M 219.5 95 L 220 95.5 L 214.5 101 L 214 100.5 L 219.5 95 Z " /><path fill="rgb(235,244,240)" stroke="rgb(235,244,240)" stroke-width="0" opacity="1" d="M 181.5 99 L 187.5 99 L 188 99.5 L 187.5 100 L 181.5 100 Q 180.5 99.5 181.5 99 Z " /><path fill="rgb(235,244,240)" stroke="rgb(235,244,240)" stroke-width="0" opacity="1" d="M 192.5 99 Q 194.5 98.5 195 99.5 Q 194.5 100.5 192.5 100 Q 191.5 99.5 192.5 99 Z " /><path fill="rgb(235,244,240)" stroke="rgb(235,244,240)" stroke-width="0" opacity="1" d="M 255.5 106 L 256 106.5 L 256 121.5 Q 255.5 122.5 255 121.5 L 255 106.5 L 255.5 106 Z " /><path fill="rgb(235,244,240)" stroke="rgb(235,244,240)" stroke-width="0" opacity="1" d="M 177.5 107 Q 181 106 182 107.5 Q 181 109 177.5 108 Q 176.5 107.5 177.5 107 Z " /><path fill="rgb(235,244,240)" stroke="rgb(235,244,240)" stroke-width="0" opacity="1" d="M 172.5 111 L 176.5 115 L 177 114.5 Q 176.75 113.25 177.5 113 Q 178.25 113.25 178 114.5 L 176.5 116 L 172 111.5 L 172.5 111 Z " /><path fill="rgb(235,244,240)" stroke="rgb(235,244,240)" stroke-width="0" opacity="1" d="M 167.5 113 L 172 117.5 L 171.5 118 L 167 113.5 L 167.5 113 Z " /><path fill="rgb(235,244,240)" stroke="rgb(235,244,240)" stroke-width="0" opacity="1" d="M 188.5 117 Q 190.25 118.25 189 122.5 Q 188.5 123.5 188 122.5 L 188 117.5 L 188.5 117 Z " /><path fill="rgb(235,244,240)" stroke="rgb(235,244,240)" stroke-width="0" opacity="1" d="M 231.5 117 Q 234.25 116.25 235 117.5 Q 234.25 118.75 231.5 118 Q 230.5 117.5 231.5 117 Z " /><path fill="rgb(235,244,240)" stroke="rgb(235,244,240)" stroke-width="0" opacity="1" d="M 238.5 117 L 244.5 117 L 245 117.5 L 244.5 118 L 238.5 118 Q 237.5 117.5 238.5 117 Z " /><path fill="rgb(235,244,240)" stroke="rgb(235,244,240)" stroke-width="0" opacity="1" d="M 168.5 119 L 174 124.5 L 173.5 125 L 168 119.5 L 168.5 119 Z " /><path fill="rgb(235,244,240)" stroke="rgb(235,244,240)" stroke-width="0" opacity="1" d="M 163.5 121 L 169 126.5 L 168.5 127 L 163 121.5 L 163.5 121 Z " /><path fill="rgb(235,244,240)" stroke="rgb(235,244,240)" stroke-width="0" opacity="1" d="M 228.5 124 Q 230.5 123.5 231 124.5 Q 230.5 125.5 228.5 125 Q 227.5 124.5 228.5 124 Z " /><path fill="rgb(235,244,240)" stroke="rgb(235,244,240)" stroke-width="0" opacity="1" d="M 247.5 124 Q 249.5 123.5 250 124.5 Q 249.5 125.5 247.5 125 Q 246.5 124.5 247.5 124 Z " /><path fill="rgb(235,244,240)" stroke="rgb(235,244,240)" stroke-width="0" opacity="1" d="M 187.5 126 Q 187.75 127.75 189 128.5 Q 188 130 187 127.5 Q 186.75 126.25 187.5 126 Z " /><path fill="rgb(235,244,240)" stroke="rgb(235,244,240)" stroke-width="0" opacity="1" d="M 190.5 146 Q 191.75 146.75 191 149.5 Q 190.5 150.5 190 149.5 Q 189.25 146.75 190.5 146 Z " /><path fill="rgb(235,244,240)" stroke="rgb(235,244,240)" stroke-width="0" opacity="1" d="M 243.5 147 Q 244.5 147.5 244 149.5 Q 243.5 150.5 243 149.5 Q 242.5 147.5 243.5 147 Z " /><path fill="rgb(235,244,240)" stroke="rgb(235,244,240)" stroke-width="0" opacity="1" d="M 217.5 153 Q 218.5 153.5 218 155.5 Q 217.5 156.5 217 155.5 Q 216.5 153.5 217.5 153 Z " /><path fill="rgb(235,244,240)" stroke="rgb(235,244,240)" stroke-width="0" opacity="1" d="M 172.5 154 Q 173.75 153.75 174 154.5 Q 173 157 172 155.5 Q 171.75 154.25 172.5 154 Z " /><path fill="rgb(235,244,240)" stroke="rgb(235,244,240)" stroke-width="0" opacity="1" d="M 190.5 154 Q 191.5 154.5 191 156.5 Q 190.5 157.5 190 156.5 Q 189.5 154.5 190.5 154 Z " /><path fill="rgb(235,244,240)" stroke="rgb(235,244,240)" stroke-width="0" opacity="1" d="M 169.5 159 Q 170.5 159.5 170 161.5 Q 169.5 162.5 169 161.5 Q 168.5 159.5 169.5 159 Z " /><path fill="rgb(235,244,240)" stroke="rgb(235,244,240)" stroke-width="0" opacity="1" d="M 212.5 161 Q 216.75 159.75 218 161.5 Q 216.75 163.25 212.5 162 Q 211.5 161.5 212.5 161 Z " /><path fill="rgb(235,244,240)" stroke="rgb(235,244,240)" stroke-width="0" opacity="1" d="M 150.5 164 L 162.5 164 L 163 164.5 L 162.5 165 L 150.5 165 Q 149.5 164.5 150.5 164 Z " /><path fill="rgb(235,244,240)" stroke="rgb(235,244,240)" stroke-width="0" opacity="1" d="M 169.5 166 Q 170.75 166.75 170 169.5 Q 169.5 170.5 169 169.5 Q 168.25 166.75 169.5 166 Z " /><path fill="rgb(235,244,240)" stroke="rgb(235,244,240)" stroke-width="0" opacity="1" d="M 219.5 169 Q 221.5 168.5 222 169.5 Q 221.5 170.5 219.5 170 Q 218.5 169.5 219.5 169 Z " /><path fill="rgb(235,244,240)" stroke="rgb(235,244,240)" stroke-width="0" opacity="1" d="M 211.5 179 Q 212.5 179.5 212 181.5 Q 211.5 182.5 211 181.5 Q 210.5 179.5 211.5 179 Z " /><path fill="rgb(235,244,240)" stroke="rgb(235,244,240)" stroke-width="0" opacity="1" d="M 99.5 185 Q 100.75 184.75 101 185.5 Q 101.25 186.75 100.5 187 Q 98 186 99.5 185 Z " /><path fill="rgb(235,244,240)" stroke="rgb(235,244,240)" stroke-width="0" opacity="1" d="M 127.5 185 Q 129.5 184.5 130 185.5 Q 129.5 186.5 127.5 186 Q 126.5 185.5 127.5 185 Z " /><path fill="rgb(235,244,240)" stroke="rgb(235,244,240)" stroke-width="0" opacity="1" d="M 153.5 185 Q 155.75 184.75 156 186.5 Q 155.25 187.75 154.5 186 Q 152.13 185.88 153.5 185 Z " /><path fill="rgb(235,244,240)" stroke="rgb(235,244,240)" stroke-width="0" opacity="1" d="M 253.5 185 Q 255.5 184.5 256 185.5 Q 255.5 186.5 253.5 186 Q 252.5 185.5 253.5 185 Z " /><path fill="rgb(235,244,240)" stroke="rgb(235,244,240)" stroke-width="0" opacity="1" d="M 232.5 186 Q 233.5 186.5 233 188.5 Q 232.5 189.5 232 188.5 Q 231.5 186.5 232.5 186 Z " /><path fill="rgb(235,244,240)" stroke="rgb(235,244,240)" stroke-width="0" opacity="1" d="M 234.5 186 Q 235.5 186.5 235 188.5 Q 234.5 189.5 234 188.5 Q 233.5 186.5 234.5 186 Z " /><path fill="rgb(235,244,240)" stroke="rgb(235,244,240)" stroke-width="0" opacity="1" d="M 259.5 186 Q 260.5 186.5 260 188.5 Q 259 190 258 187.5 L 259.5 186 Z " /><path fill="rgb(235,244,240)" stroke="rgb(235,244,240)" stroke-width="0" opacity="1" d="M 281.5 186 Q 282.5 186.5 282 188.5 Q 281.5 189.5 281 188.5 Q 280.5 186.5 281.5 186 Z " /><path fill="rgb(235,244,240)" stroke="rgb(235,244,240)" stroke-width="0" opacity="1" d="M 294.5 186 Q 295.25 187.25 297 187.5 Q 296.75 188.25 295.5 188 Q 293 187 294.5 186 Z " /><path fill="rgb(235,244,240)" stroke="rgb(235,244,240)" stroke-width="0" opacity="1" d="M 310.5 186 Q 311.25 186.25 311 187.5 Q 310 190 309 188.5 Q 310.25 187.75 310.5 186 Z " /><path fill="rgb(235,244,240)" stroke="rgb(235,244,240)" stroke-width="0" opacity="1" d="M 197.5 187 L 198 187.5 L 198 197.5 Q 197.5 198.5 197 197.5 L 197 187.5 L 197.5 187 Z " /><path fill="rgb(235,244,240)" stroke="rgb(235,244,240)" stroke-width="0" opacity="1" d="M 289.5 187 Q 291.5 186.5 292 187.5 Q 291.5 188.5 289.5 188 Q 288.5 187.5 289.5 187 Z " /><path fill="rgb(235,244,240)" stroke="rgb(235,244,240)" stroke-width="0" opacity="1" d="M 313.5 187 Q 314.5 187.5 314 189.5 Q 313.5 190.5 313 189.5 Q 312.5 187.5 313.5 187 Z " /><path fill="rgb(235,244,240)" stroke="rgb(235,244,240)" stroke-width="0" opacity="1" d="M 87.5 190 Q 88.5 190.5 88 192.5 Q 87.5 193.5 87 192.5 Q 86.5 190.5 87.5 190 Z " /><path fill="rgb(235,244,240)" stroke="rgb(235,244,240)" stroke-width="0" opacity="1" d="M 132.5 191 Q 133.75 190.75 134 191.5 Q 134.25 192.75 133.5 193 Q 132.25 193.25 132 192.5 Q 131.75 191.25 132.5 191 Z " /><path fill="rgb(235,244,240)" stroke="rgb(235,244,240)" stroke-width="0" opacity="1" d="M 174.5 191 Q 176.5 191.5 176 194.5 Q 175.5 195.5 175 194.5 L 175 192.5 Q 173.25 191.75 174.5 191 Z " /><path fill="rgb(235,244,240)" stroke="rgb(235,244,240)" stroke-width="0" opacity="1" d="M 235.5 191 Q 239.75 189.75 241 191.5 Q 239.75 193.25 235.5 192 Q 234.5 191.5 235.5 191 Z " /><path fill="rgb(235,244,240)" stroke="rgb(235,244,240)" stroke-width="0" opacity="1" d="M 258.5 191 Q 259.75 190.75 260 191.5 Q 260.25 192.75 259.5 193 Q 257 192 258.5 191 Z " /><path fill="rgb(235,244,240)" stroke="rgb(235,244,240)" stroke-width="0" opacity="1" d="M 273.5 191 Q 275.5 190.5 276 191.5 Q 275.5 192.5 273.5 192 Q 272.5 191.5 273.5 191 Z " /><path fill="rgb(235,244,240)" stroke="rgb(235,244,240)" stroke-width="0" opacity="1" d="M 120.5 192 Q 121.25 192.25 121 193.5 L 119.5 195 L 112.5 195 L 112 195.5 Q 112.25 196.75 111.5 197 Q 110.75 196.75 111 195.5 L 112.5 194 L 119.5 194 L 120 193.5 Q 119.75 192.25 120.5 192 Z " /><path fill="rgb(235,244,240)" stroke="rgb(235,244,240)" stroke-width="0" opacity="1" d="M 152.5 192 Q 153.75 192.75 152 193.5 Q 152.25 194.75 151.5 195 Q 150.75 194.75 151 193.5 L 152.5 192 Z " /><path fill="rgb(235,244,240)" stroke="rgb(235,244,240)" stroke-width="0" opacity="1" d="M 278.5 192 Q 279.25 192.25 279 193.5 Q 278 196 277 194.5 Q 278.25 193.75 278.5 192 Z " /><path fill="rgb(235,244,240)" stroke="rgb(235,244,240)" stroke-width="0" opacity="1" d="M 232.5 193 Q 233.75 193.75 233 196.5 Q 232.5 197.5 232 196.5 Q 231.25 193.75 232.5 193 Z " /><path fill="rgb(235,244,240)" stroke="rgb(235,244,240)" stroke-width="0" opacity="1" d="M 313.5 193 Q 314.67 193.83 314.5 196 Q 314.75 194.75 316.5 195 Q 318.25 195.25 318 197.5 Q 317.75 199.25 315.5 199 L 314.5 198 Q 313.75 199.75 313 198.5 Q 311.75 194.25 313.5 193 Z M 316 196 Q 315 196 315 198 Q 315 198 317 198 Q 317 198 317 197 Q 317 196 316 196 Z " /><path fill="rgb(235,244,240)" stroke="rgb(235,244,240)" stroke-width="0" opacity="1" d="M 108.5 194 Q 109.75 194.75 109 197.5 Q 108.5 198.5 108 197.5 Q 107.25 194.75 108.5 194 Z " /><path fill="rgb(235,244,240)" stroke="rgb(235,244,240)" stroke-width="0" opacity="1" d="M 106.5 195 Q 107.75 195.75 107 198.5 Q 106.5 199.5 106 198.5 Q 105.25 195.75 106.5 195 Z " /><path fill="rgb(235,244,240)" stroke="rgb(235,244,240)" stroke-width="0" opacity="1" d="M 237.5 195 Q 238.42 196.58 241 196.5 Q 240.25 197.75 237.5 197 Q 236.37 196.37 237.5 195 Z " /><path fill="rgb(235,244,240)" stroke="rgb(235,244,240)" stroke-width="0" opacity="1" d="M 281.5 195 Q 284.25 194.25 285 195.5 Q 284.25 196.75 281.5 196 Q 280.5 195.5 281.5 195 Z " /><path fill="rgb(235,244,240)" stroke="rgb(235,244,240)" stroke-width="0" opacity="1" d="M 115.5 196 Q 118.25 195.25 119 196.5 Q 118.25 197.75 115.5 197 Q 114.5 196.5 115.5 196 Z " /><path fill="rgb(235,244,240)" stroke="rgb(235,244,240)" stroke-width="0" opacity="1" d="M 262.5 196 Q 263.5 196.5 263 198.5 Q 262.5 199.5 262 198.5 Q 261.5 196.5 262.5 196 Z " /><path fill="rgb(235,244,240)" stroke="rgb(235,244,240)" stroke-width="0" opacity="1" d="M 87.5 197 Q 89.5 196.5 90 197.5 Q 89.5 198.5 87.5 198 Q 86.5 197.5 87.5 197 Z " /><path fill="rgb(235,244,240)" stroke="rgb(235,244,240)" stroke-width="0" opacity="1" d="M 163.5 197 L 169.5 197 L 170 197.5 L 169.5 198 L 163.5 198 Q 162.5 197.5 163.5 197 Z " /><path fill="rgb(235,244,240)" stroke="rgb(235,244,240)" stroke-width="0" opacity="1" d="M 222.5 197 L 229.5 197 L 230 197.5 Q 230.25 198.75 229.5 199 L 228.5 198 L 222.5 198 Q 221.5 197.5 222.5 197 Z " /><path fill="rgb(235,244,240)" stroke="rgb(235,244,240)" stroke-width="0" opacity="1" d="M 203.5 199 Q 205 200 202.5 201 Q 201.25 201.25 201 200.5 Q 202.75 200.25 203.5 199 Z " /></svg>